<svg width="173" height="48" viewBox="0 0 173 48" fill="none" xmlns="http://www.w3.org/2000/svg">
<path d="M7.64703 3.84079C7.01003 3.84079 6.44403 3.96609 5.95023 4.21679C5.46323 4.46029 5.05142 4.81479 4.71482 5.28029C4.38542 5.74579 4.13482 6.30789 3.96292 6.96679C3.79102 7.62569 3.70512 8.36689 3.70512 9.19039C3.70512 10.3005 3.84112 11.2493 4.11332 12.0371C4.39262 12.8177 4.82232 13.4157 5.40232 13.8311C5.98242 14.2393 6.73103 14.4434 7.64703 14.4434C8.28503 14.4434 8.92202 14.3717 9.56002 14.2285C10.204 14.0853 10.902 13.8812 11.654 13.6162V16.4092C10.96 16.6956 10.276 16.8997 9.60302 17.0215C8.92902 17.1504 8.17402 17.2148 7.33602 17.2148C5.71742 17.2148 4.38542 16.8818 3.33982 16.2158C2.30142 15.5426 1.53162 14.6045 1.03032 13.4014C0.529019 12.1911 0.27832 10.7803 0.27832 9.16889C0.27832 7.98009 0.439526 6.89159 0.761726 5.90329C1.08403 4.91499 1.55663 4.05919 2.17973 3.33589C2.80273 2.61259 3.57263 2.05399 4.48933 1.66019C5.40593 1.26629 6.45903 1.06929 7.64703 1.06929C8.42803 1.06929 9.20902 1.16959 9.98902 1.37009C10.777 1.56349 11.529 1.83199 12.245 2.17579L11.171 4.88279C10.584 4.60349 9.99303 4.35999 9.39803 4.15229C8.80403 3.94469 8.22003 3.84079 7.64703 3.84079ZM19.7 4.76459C20.81 4.76459 21.766 4.97949 22.568 5.40919C23.37 5.83169 23.99 6.44759 24.427 7.25679C24.864 8.06609 25.082 9.05439 25.082 10.2217V11.8115H17.337C17.373 12.7354 17.648 13.4622 18.164 13.9922C18.687 14.515 19.41 14.7764 20.334 14.7764C21.1 14.7764 21.802 14.6976 22.439 14.54C23.077 14.3825 23.732 14.1462 24.405 13.8311V16.3662C23.811 16.6598 23.188 16.8747 22.536 17.0107C21.892 17.1468 21.107 17.2148 20.184 17.2148C18.98 17.2148 17.913 16.9928 16.982 16.5488C16.059 16.1048 15.332 15.4281 14.802 14.5186C14.279 13.609 14.018 12.4632 14.018 11.0811C14.018 9.67739 14.254 8.51009 14.727 7.57909C15.206 6.64099 15.872 5.93909 16.725 5.47359C17.577 5.00099 18.569 4.76459 19.7 4.76459ZM19.722 7.09569C19.084 7.09569 18.554 7.29979 18.132 7.70799C17.716 8.11619 17.477 8.75719 17.412 9.63089H22.01C22.003 9.14389 21.913 8.71059 21.741 8.33109C21.576 7.95149 21.326 7.65069 20.989 7.42869C20.66 7.20669 20.237 7.09569 19.722 7.09569ZM34.449 4.76459C34.614 4.76459 34.804 4.77539 35.019 4.79689C35.241 4.81119 35.42 4.83269 35.556 4.86129L35.309 7.93359C35.201 7.89779 35.047 7.87269 34.847 7.85839C34.653 7.83689 34.485 7.82619 34.342 7.82619C33.919 7.82619 33.507 7.87989 33.106 7.98729C32.713 8.09469 32.358 8.27019 32.043 8.51369C31.728 8.74999 31.477 9.06509 31.291 9.45899C31.112 9.84569 31.022 10.3219 31.022 10.8877V17H27.746V4.99019H30.228L30.711 7.00979H30.872C31.108 6.60159 31.402 6.22919 31.753 5.89259C32.111 5.54879 32.516 5.27669 32.967 5.07619C33.425 4.86849 33.919 4.76459 34.449 4.76459ZM42.796 14.6045C43.154 14.6045 43.501 14.5687 43.838 14.4971C44.182 14.4255 44.522 14.3359 44.858 14.2285V16.667C44.507 16.8245 44.071 16.9535 43.548 17.0537C43.032 17.1611 42.466 17.2148 41.851 17.2148C41.134 17.2148 40.49 17.1003 39.917 16.8711C39.351 16.6348 38.904 16.2301 38.574 15.6572C38.252 15.0771 38.091 14.2715 38.091 13.2402V7.45019H36.522V6.06449L38.327 4.96879L39.272 2.43359H41.367V4.99019H44.729V7.45019H41.367V13.2402C41.367 13.6986 41.496 14.0423 41.754 14.2715C42.019 14.4935 42.366 14.6045 42.796 14.6045ZM50.573 4.99019V17H47.297V4.99019H50.573ZM48.94 0.285192C49.427 0.285192 49.846 0.399692 50.197 0.628892C50.548 0.850892 50.724 1.26989 50.724 1.88569C50.724 2.49449 50.548 2.91699 50.197 3.15329C49.846 3.38249 49.427 3.49709 48.94 3.49709C48.446 3.49709 48.024 3.38249 47.673 3.15329C47.329 2.91699 47.157 2.49449 47.157 1.88569C47.157 1.26989 47.329 0.850892 47.673 0.628892C48.024 0.399692 48.446 0.285192 48.94 0.285192ZM60.66 7.45019H57.824V17H54.548V7.45019H52.743V5.87109L54.548 4.99019V4.10939C54.548 3.08529 54.72 2.29039 55.063 1.72459C55.414 1.15169 55.905 0.750692 56.535 0.521492C57.173 0.285192 57.924 0.166992 58.791 0.166992C59.428 0.166992 60.008 0.220693 60.531 0.328093C61.054 0.428393 61.48 0.542992 61.81 0.671892L60.972 3.07809C60.721 2.99929 60.449 2.92769 60.155 2.86329C59.862 2.79879 59.525 2.76659 59.146 2.76659C58.687 2.76659 58.351 2.90619 58.136 3.18549C57.928 3.45769 57.824 3.80859 57.824 4.23829V4.99019H60.66V7.45019ZM65.816 4.99019V17H62.54V4.99019H65.816ZM64.184 0.285192C64.671 0.285192 65.09 0.399692 65.44 0.628892C65.791 0.850892 65.967 1.26989 65.967 1.88569C65.967 2.49449 65.791 2.91699 65.44 3.15329C65.09 3.38249 64.671 3.49709 64.184 3.49709C63.689 3.49709 63.267 3.38249 62.916 3.15329C62.572 2.91699 62.4 2.49449 62.4 1.88569C62.4 1.26989 62.572 0.850892 62.916 0.628892C63.267 0.399692 63.689 0.285192 64.184 0.285192ZM74.131 17.2148C72.942 17.2148 71.929 17 71.091 16.5703C70.253 16.1335 69.616 15.4603 69.179 14.5508C68.742 13.6413 68.523 12.4775 68.523 11.0596C68.523 9.59149 68.771 8.39549 69.265 7.47169C69.766 6.54069 70.457 5.85679 71.338 5.41989C72.226 4.98309 73.254 4.76459 74.421 4.76459C75.252 4.76459 75.968 4.84699 76.569 5.01169C77.178 5.16929 77.708 5.35899 78.159 5.58109L77.192 8.11619C76.677 7.90849 76.197 7.74019 75.753 7.61129C75.309 7.47529 74.865 7.40719 74.421 7.40719C73.848 7.40719 73.372 7.54329 72.992 7.81539C72.613 8.08039 72.33 8.48139 72.144 9.01859C71.957 9.55569 71.864 10.2288 71.864 11.0381C71.864 11.833 71.965 12.4919 72.165 13.0146C72.366 13.5374 72.656 13.9277 73.035 14.1855C73.415 14.4362 73.877 14.5615 74.421 14.5615C75.101 14.5615 75.706 14.472 76.236 14.293C76.766 14.1068 77.282 13.849 77.783 13.5195V16.3232C77.282 16.6383 76.756 16.8639 76.204 17C75.66 17.1432 74.969 17.2148 74.131 17.2148ZM85.496 4.74319C87.107 4.74319 88.343 5.09409 89.202 5.79589C90.062 6.49769 90.491 7.56479 90.491 8.99709V17H88.203L87.569 15.3672H87.483C87.14 15.7969 86.789 16.1478 86.431 16.4199C86.073 16.6921 85.661 16.8926 85.195 17.0215C84.73 17.1504 84.164 17.2148 83.498 17.2148C82.789 17.2148 82.152 17.0788 81.586 16.8066C81.027 16.5345 80.587 16.1191 80.265 15.5605C79.942 14.9948 79.781 14.2786 79.781 13.4121C79.781 12.1374 80.229 11.1992 81.124 10.5977C82.019 9.98889 83.362 9.65229 85.152 9.58789L87.236 9.52339V8.99709C87.236 8.36689 87.072 7.90489 86.742 7.61129C86.413 7.31769 85.954 7.17089 85.367 7.17089C84.787 7.17089 84.218 7.25329 83.659 7.41799C83.101 7.58269 82.542 7.79039 81.983 8.04099L80.898 5.82809C81.536 5.49149 82.248 5.22659 83.036 5.03319C83.831 4.83979 84.651 4.74319 85.496 4.74319ZM87.236 11.4355L85.969 11.4785C84.909 11.5072 84.171 11.6969 83.756 12.0479C83.348 12.3988 83.144 12.8607 83.144 13.4336C83.144 13.9349 83.29 14.293 83.584 14.5078C83.878 14.7155 84.261 14.8193 84.733 14.8193C85.435 14.8193 86.026 14.6117 86.506 14.1963C86.993 13.7809 87.236 13.1901 87.236 12.4238V11.4355ZM98.935 14.6045C99.293 14.6045 99.64 14.5687 99.977 14.4971C100.32 14.4255 100.66 14.3359 100.997 14.2285V16.667C100.646 16.8245 100.209 16.9535 99.687 17.0537C99.171 17.1611 98.605 17.2148 97.989 17.2148C97.273 17.2148 96.629 17.1003 96.056 16.8711C95.49 16.6348 95.042 16.2301 94.713 15.6572C94.391 15.0771 94.229 14.2715 94.229 13.2402V7.45019H92.661V6.06449L94.466 4.96879L95.411 2.43359H97.506V4.99019H100.868V7.45019H97.506V13.2402C97.506 13.6986 97.635 14.0423 97.893 14.2715C98.158 14.4935 98.505 14.6045 98.935 14.6045ZM108.388 4.76459C109.498 4.76459 110.454 4.97949 111.256 5.40919C112.058 5.83169 112.677 6.44759 113.114 7.25679C113.551 8.06609 113.77 9.05439 113.77 10.2217V11.8115H106.024C106.06 12.7354 106.336 13.4622 106.852 13.9922C107.374 14.515 108.098 14.7764 109.021 14.7764C109.788 14.7764 110.49 14.6976 111.127 14.54C111.764 14.3825 112.42 14.1462 113.093 13.8311V16.3662C112.498 16.6598 111.875 16.8747 111.224 17.0107C110.579 17.1468 109.795 17.2148 108.871 17.2148C107.668 17.2148 106.601 16.9928 105.67 16.5488C104.746 16.1048 104.019 15.4281 103.489 14.5186C102.966 13.609 102.705 12.4632 102.705 11.0811C102.705 9.67739 102.941 8.51009 103.414 7.57909C103.894 6.64099 104.56 5.93909 105.412 5.47359C106.264 5.00099 107.256 4.76459 108.388 4.76459ZM108.409 7.09569C107.772 7.09569 107.242 7.29979 106.819 7.70799C106.404 8.11619 106.164 8.75719 106.1 9.63089H110.697C110.69 9.14389 110.601 8.71059 110.429 8.33109C110.264 7.95149 110.013 7.65069 109.677 7.42869C109.347 7.20669 108.925 7.09569 108.409 7.09569ZM128.787 7.45019H125.951V17H122.675V7.45019H120.87V5.87109L122.675 4.99019V4.10939C122.675 3.08529 122.847 2.29039 123.19 1.72459C123.541 1.15169 124.032 0.750692 124.662 0.521492C125.299 0.285192 126.051 0.166992 126.918 0.166992C127.555 0.166992 128.135 0.220693 128.658 0.328093C129.181 0.428393 129.607 0.542992 129.937 0.671892L129.099 3.07809C128.848 2.99929 128.576 2.92769 128.282 2.86329C127.989 2.79879 127.652 2.76659 127.272 2.76659C126.814 2.76659 126.478 2.90619 126.263 3.18549C126.055 3.45769 125.951 3.80859 125.951 4.23829V4.99019H128.787V7.45019ZM137.381 4.76459C137.546 4.76459 137.735 4.77539 137.95 4.79689C138.172 4.81119 138.351 4.83269 138.487 4.86129L138.24 7.93359C138.133 7.89779 137.979 7.87269 137.778 7.85839C137.585 7.83689 137.417 7.82619 137.273 7.82619C136.851 7.82619 136.439 7.87989 136.038 7.98729C135.644 8.09469 135.29 8.27019 134.975 8.51369C134.66 8.74999 134.409 9.06509 134.223 9.45899C134.044 9.84569 133.954 10.3219 133.954 10.8877V17H130.678V4.99019H133.159L133.643 7.00979H133.804C134.04 6.60159 134.334 6.22919 134.685 5.89259C135.043 5.54879 135.447 5.27669 135.898 5.07619C136.357 4.86849 136.851 4.76459 137.381 4.76459ZM151.582 10.9736C151.582 11.9762 151.446 12.8643 151.174 13.6377C150.909 14.4111 150.519 15.0664 150.003 15.6035C149.494 16.1335 148.879 16.5345 148.155 16.8066C147.439 17.0788 146.63 17.2148 145.728 17.2148C144.882 17.2148 144.105 17.0788 143.396 16.8066C142.695 16.5345 142.082 16.1335 141.56 15.6035C141.044 15.0664 140.643 14.4111 140.356 13.6377C140.077 12.8643 139.938 11.9762 139.938 10.9736C139.938 9.64159 140.174 8.51369 140.646 7.58979C141.119 6.66599 141.792 5.96419 142.666 5.48439C143.54 5.00459 144.582 4.76459 145.792 4.76459C146.916 4.76459 147.912 5.00459 148.778 5.48439C149.652 5.96419 150.336 6.66599 150.83 7.58979C151.331 8.51369 151.582 9.64159 151.582 10.9736ZM143.278 10.9736C143.278 11.7614 143.364 12.4238 143.536 12.9609C143.708 13.498 143.977 13.9027 144.342 14.1748C144.707 14.4469 145.183 14.583 145.771 14.583C146.351 14.583 146.82 14.4469 147.178 14.1748C147.543 13.9027 147.808 13.498 147.973 12.9609C148.145 12.4238 148.23 11.7614 148.23 10.9736C148.23 10.1787 148.145 9.51989 147.973 8.99709C147.808 8.46709 147.543 8.06969 147.178 7.80469C146.812 7.53969 146.336 7.40719 145.749 7.40719C144.882 7.40719 144.252 7.70439 143.858 8.29879C143.472 8.89319 143.278 9.78479 143.278 10.9736ZM168.394 4.76459C169.754 4.76459 170.782 5.11559 171.477 5.81739C172.178 6.51199 172.529 7.62919 172.529 9.16889V17H169.242V9.98539C169.242 9.12599 169.095 8.47789 168.802 8.04099C168.508 7.60419 168.053 7.38569 167.438 7.38569C166.571 7.38569 165.955 7.69729 165.59 8.32029C165.225 8.93619 165.042 9.82059 165.042 10.9736V17H161.766V9.98539C161.766 9.41239 161.701 8.93259 161.572 8.54589C161.443 8.15919 161.246 7.86909 160.981 7.67579C160.716 7.48239 160.376 7.38569 159.961 7.38569C159.352 7.38569 158.872 7.53969 158.521 7.84769C158.178 8.14839 157.931 8.59599 157.78 9.19039C157.637 9.77769 157.565 10.4974 157.565 11.3496V17H154.289V4.99019H156.792L157.232 6.52639H157.415C157.659 6.11099 157.963 5.77439 158.328 5.51659C158.701 5.25879 159.109 5.06899 159.553 4.94729C159.997 4.82549 160.448 4.76459 160.906 4.76459C161.787 4.76459 162.532 4.90789 163.141 5.19429C163.757 5.48079 164.229 5.92479 164.559 6.52639H164.849C165.207 5.91049 165.712 5.46289 166.363 5.18359C167.022 4.90429 167.699 4.76459 168.394 4.76459ZM6.93803 38.1807H13.169V46.3232C12.345 46.5954 11.49 46.8138 10.602 46.9785C9.71402 47.1361 8.70702 47.2148 7.58302 47.2148C6.02202 47.2148 4.69692 46.9069 3.60842 46.291C2.51992 45.6751 1.69272 44.7656 1.12702 43.5625C0.561222 42.3594 0.27832 40.8805 0.27832 39.126C0.27832 37.4788 0.593425 36.0537 1.22363 34.8506C1.86103 33.6475 2.78842 32.7165 4.00592 32.0576C5.23052 31.3988 6.72402 31.0693 8.48502 31.0693C9.31602 31.0693 10.136 31.1589 10.945 31.3379C11.755 31.5169 12.489 31.7497 13.147 32.0361L12.041 34.7002C11.561 34.4567 11.013 34.2526 10.397 34.0879C9.78203 33.9232 9.13702 33.8408 8.46402 33.8408C7.49702 33.8408 6.65602 34.0628 5.93952 34.5068C5.23052 34.9508 4.67902 35.5739 4.28522 36.376C3.89842 37.1709 3.70512 38.109 3.70512 39.1904C3.70512 40.2145 3.84472 41.124 4.12402 41.9189C4.40332 42.7067 4.84382 43.3262 5.44532 43.7773C6.04702 44.2214 6.83102 44.4434 7.79802 44.4434C8.27102 44.4434 8.66802 44.4219 8.99002 44.3789C9.32002 44.3288 9.62802 44.2786 9.91402 44.2285V40.9521H6.93803V38.1807ZM29.948 38.9971C29.948 40.766 29.608 42.2448 28.928 43.4336C28.255 44.6152 27.277 45.5068 25.995 46.1084C24.713 46.7028 23.17 47 21.365 47H16.918V31.2949H21.849C23.496 31.2949 24.924 31.5885 26.135 32.1758C27.345 32.7559 28.283 33.6188 28.949 34.7646C29.615 35.9033 29.948 37.3141 29.948 38.9971ZM26.489 39.083C26.489 37.9229 26.317 36.9704 25.974 36.2256C25.637 35.4736 25.136 34.9186 24.47 34.5605C23.811 34.2025 22.994 34.0234 22.021 34.0234H20.248V44.25H21.677C23.302 44.25 24.509 43.8167 25.297 42.9502C26.092 42.0837 26.489 40.7946 26.489 39.083ZM42.474 42.6387C42.474 43.5697 42.248 44.3789 41.797 45.0664C41.346 45.7539 40.687 46.2839 39.82 46.6562C38.961 47.0286 37.915 47.2148 36.684 47.2148C36.139 47.2148 35.606 47.179 35.083 47.1074C34.567 47.0358 34.07 46.932 33.59 46.7959C33.117 46.6527 32.666 46.4772 32.236 46.2695V43.1758C32.981 43.5052 33.755 43.8024 34.557 44.0674C35.359 44.3324 36.154 44.4648 36.941 44.4648C37.486 44.4648 37.923 44.3932 38.252 44.25C38.589 44.1068 38.832 43.9098 38.982 43.6592C39.133 43.4085 39.208 43.1221 39.208 42.7998C39.208 42.4059 39.076 42.0693 38.811 41.79C38.546 41.5107 38.18 41.2493 37.715 41.0059C37.257 40.7624 36.737 40.501 36.157 40.2217C35.792 40.0498 35.395 39.8421 34.965 39.5986C34.535 39.348 34.127 39.0436 33.74 38.6855C33.354 38.3275 33.035 37.8942 32.784 37.3857C32.541 36.8701 32.419 36.2542 32.419 35.5381C32.419 34.5999 32.634 33.7979 33.063 33.1318C33.493 32.4658 34.105 31.9574 34.9 31.6064C35.702 31.2484 36.648 31.0693 37.736 31.0693C38.553 31.0693 39.33 31.166 40.067 31.3594C40.812 31.5456 41.589 31.8177 42.398 32.1758L41.324 34.7646C40.601 34.471 39.953 34.2454 39.38 34.0879C38.807 33.9232 38.223 33.8408 37.629 33.8408C37.214 33.8408 36.859 33.9089 36.565 34.0449C36.272 34.1738 36.05 34.36 35.899 34.6035C35.749 34.8398 35.674 35.1156 35.674 35.4307C35.674 35.8031 35.781 36.1182 35.996 36.376C36.218 36.6266 36.548 36.8701 36.984 37.1064C37.428 37.3428 37.98 37.6185 38.639 37.9336C39.441 38.3132 40.125 38.7106 40.69 39.126C41.263 39.5342 41.704 40.0176 42.012 40.5762C42.32 41.1276 42.474 41.8151 42.474 42.6387ZM51.991 33.8408C51.354 33.8408 50.788 33.9661 50.294 34.2168C49.807 34.4603 49.395 34.8148 49.059 35.2803C48.729 35.7458 48.479 36.3079 48.307 36.9668C48.135 37.6257 48.049 38.3669 48.049 39.1904C48.049 40.3005 48.185 41.2493 48.457 42.0371C48.736 42.8177 49.166 43.4157 49.746 43.8311C50.326 44.2393 51.075 44.4434 51.991 44.4434C52.629 44.4434 53.266 44.3717 53.903 44.2285C54.548 44.0853 55.246 43.8812 55.998 43.6162V46.4092C55.303 46.6956 54.619 46.8997 53.946 47.0215C53.273 47.1504 52.518 47.2148 51.68 47.2148C50.061 47.2148 48.729 46.8818 47.684 46.2158C46.645 45.5426 45.875 44.6045 45.374 43.4014C44.873 42.1911 44.622 40.7803 44.622 39.1689C44.622 37.9801 44.783 36.8916 45.105 35.9033C45.428 34.915 45.9 34.0592 46.523 33.3359C47.146 32.6126 47.916 32.054 48.833 31.6602C49.75 31.2663 50.802 31.0693 51.991 31.0693C52.772 31.0693 53.552 31.1696 54.333 31.3701C55.121 31.5635 55.873 31.832 56.589 32.1758L55.515 34.8828C54.927 34.6035 54.337 34.36 53.742 34.1523C53.148 33.9447 52.564 33.8408 51.991 33.8408Z" fill="#656C73"/>
</svg>
