<svg width="74" height="74" viewBox="0 0 74 74" fill="none" xmlns="http://www.w3.org/2000/svg">
<path d="M37 74C57.4345 74 74 57.4345 74 37C74 16.5655 57.4345 0 37 0C16.5655 0 0 16.5655 0 37C0 57.4345 16.5655 74 37 74Z" fill="#D9D9D9"/>
<path d="M36.5 13C35.3432 13 34.1937 13.3877 33.2035 14.0966L30.1383 16.2308L26.6067 16.6923H26.5494L26.492 16.7495C25.3337 17.0104 24.2733 17.5934 23.4337 18.4309C22.5941 19.2683 22.0096 20.326 21.748 21.4812L21.6925 21.5385V21.5957L21.2298 25.1735L19.0901 27.9428L19.0308 28V28.0572C17.737 30.1194 17.6797 32.7815 19.0901 34.7495L21.2871 37.8068L21.8665 40.9822L15.9083 50.0375L14 52.8658H22.8493L24.989 57.8265L26.3198 61L28.2282 58.1145L34.0697 49.3452C35.6393 49.9877 37.4107 50.0468 38.9303 49.3452L44.7718 58.1145L46.6802 61L48.011 57.8265L50.1507 52.8658H59L57.0917 50.0375L51.3075 41.2702L51.7702 37.8086L53.9099 34.7514L53.9692 34.6942V34.6369C55.263 32.5748 55.3203 29.9698 53.9099 28.0018L51.7702 24.9428L51.0761 21.4812H51.1335C51.1261 21.4369 51.0835 21.4074 51.0761 21.3649C50.743 18.9502 48.8272 16.9895 46.3914 16.6923H46.3322L42.8617 16.2308L39.7965 14.0966C38.8392 13.3971 37.6866 13.0137 36.5 13ZM36.5 16.7495C36.9257 16.7495 37.3459 16.8788 37.6568 17.0966L40.9534 19.4615L41.3587 19.7495L41.8214 19.8086L45.8713 20.3846H45.9268C46.7598 20.4769 47.3372 21.0548 47.4316 21.8855V22L48.185 26.0966L48.2405 26.5009L48.5311 26.8462L50.9021 30.1342C51.3445 30.7471 51.4019 31.7865 50.8448 32.6726L48.2424 36.3077L48.1831 36.7692L47.6056 40.8086V40.864C47.5748 41.1525 47.4759 41.4296 47.3169 41.6726L47.2003 41.7317V41.7871C46.9252 42.1166 46.5307 42.3243 46.1027 42.3649H45.9861L41.7641 43.1163L41.3013 43.1717L40.9534 43.4615L37.6568 45.8265C37.0423 46.2677 35.9429 46.3249 35.0544 45.7692L32.0466 43.4615L31.6987 43.1735L31.1786 43.1145L27.1287 42.5385H27.0732C26.8115 42.5154 26.5591 42.4299 26.3375 42.2892C26.1159 42.1485 25.9314 41.9566 25.7997 41.7298C25.6767 41.5169 25.598 41.2815 25.5684 41.0375V40.9231L24.8169 36.712L24.7577 36.2505L24.4689 35.9034L22.0979 32.6154C21.6555 32.0025 21.5981 30.9058 22.1552 30.0197L24.4689 27.0197L24.7577 26.6726L24.815 26.1538L25.337 22.288C25.3444 22.2603 25.387 22.2603 25.3944 22.2308C25.5098 21.7864 25.7422 21.3808 26.0677 21.0562C26.3932 20.7316 26.7997 20.4997 27.2453 20.3846C27.2749 20.3772 27.2749 20.3348 27.3027 20.3274L31.1786 19.8068L31.6413 19.7514L32.0466 19.4615L35.3432 17.0966C35.6541 16.8806 36.0743 16.7495 36.5 16.7495ZM49.2826 44.8462L52.1182 49.1735H47.6612L47.1984 50.3274L45.9268 53.2683L41.9936 47.2683L42.8598 46.6351L46.5062 46V46.0572C46.5487 46.0498 46.5765 46.0074 46.6209 46C47.5951 45.8598 48.5137 45.4613 49.2807 44.8462H49.2826ZM23.7174 44.9034C24.5211 45.6322 25.5308 46.0958 26.6086 46.2308H26.666L30.1957 46.6923L31.0046 47.3274L27.0713 53.2683L25.7997 50.3274L25.337 49.1735H20.8836L23.7174 44.9034Z" fill="#656C73"/>
</svg>
