<svg width="74" height="74" viewBox="0 0 74 74" fill="none" xmlns="http://www.w3.org/2000/svg">
<path d="M37 74C57.4345 74 74 57.4345 74 37C74 16.5655 57.4345 0 37 0C16.5655 0 0 16.5655 0 37C0 57.4345 16.5655 74 37 74Z" fill="#D9D9D9"/>
<path d="M39 29C39 31.1217 38.1571 33.1566 36.6569 34.6569C35.1566 36.1571 33.1217 37 31 37C28.8783 37 26.8434 36.1571 25.3431 34.6569C23.8429 33.1566 23 31.1217 23 29C23 26.8783 23.8429 24.8434 25.3431 23.3431C26.8434 21.8429 28.8783 21 31 21C33.1217 21 35.1566 21.8429 36.6569 23.3431C38.1571 24.8434 39 26.8783 39 29ZM47 49V53H15V49C15 44.58 22.16 41 31 41C39.84 41 47 44.58 47 49ZM54 42V45H51V42H54ZM50 32H47V31C47 29.4087 47.6321 27.8826 48.7574 26.7574C49.8826 25.6321 51.4087 25 53 25C54.5913 25 56.1174 25.6321 57.2426 26.7574C58.3679 27.8826 59 29.4087 59 31C59 32.94 58 34.76 56.42 35.82L55.82 36.2C54.68 37 54 38.22 54 39.6V40H51V39.6C51 37.22 52.2 35 54.18 33.7L54.76 33.32C55.54 32.8 56 31.94 56 31C56 30.2044 55.6839 29.4413 55.1213 28.8787C54.5587 28.3161 53.7957 28 53 28C52.2043 28 51.4413 28.3161 50.8787 28.8787C50.3161 29.4413 50 30.2044 50 31V32Z" fill="#656C73"/>
</svg>
