<svg width="206" height="48" viewBox="0 0 206 48" fill="none" xmlns="http://www.w3.org/2000/svg">
<path d="M8.08802 17H4.76862V7.91206C4.76862 7.66146 4.77212 7.35346 4.77932 6.98826C4.78652 6.61586 4.79722 6.23626 4.81152 5.84956C4.82582 5.45566 4.84022 5.10116 4.85452 4.78606C4.77572 4.87916 4.61462 5.04036 4.37112 5.26946C4.13482 5.49146 3.91282 5.69206 3.70512 5.87106L1.90042 7.32126L0.29982 5.32316L5.35942 1.29486H8.08802V17ZM17.96 12.4453V9.75976H23.729V12.4453H17.96ZM39.197 17H35.878V7.91206C35.878 7.66146 35.882 7.35346 35.889 6.98826C35.896 6.61586 35.907 6.23626 35.921 5.84956C35.935 5.45566 35.95 5.10116 35.964 4.78606C35.885 4.87916 35.724 5.04036 35.48 5.26946C35.244 5.49146 35.022 5.69206 34.814 5.87106L33.01 7.32126L31.409 5.32316L36.469 1.29486H39.197V17ZM63.421 8.99706C63.421 10.766 63.081 12.2448 62.4 13.4336C61.727 14.6152 60.75 15.5068 59.468 16.1084C58.186 16.7028 56.643 17 54.838 17H50.391V1.29486H55.321C56.968 1.29486 58.397 1.58846 59.607 2.17576C60.818 2.75586 61.756 3.61876 62.422 4.76456C63.088 5.90326 63.421 7.31406 63.421 8.99706ZM59.962 9.08296C59.962 7.92286 59.79 6.97036 59.446 6.22556C59.11 5.47356 58.608 4.91856 57.942 4.56046C57.284 4.20246 56.467 4.02336 55.493 4.02336H53.721V14.25H55.149C56.775 14.25 57.982 13.8167 58.77 12.9502C59.564 12.0837 59.962 10.7946 59.962 9.08296ZM77.332 10.9736C77.332 11.9762 77.196 12.8643 76.924 13.6377C76.659 14.4111 76.269 15.0664 75.753 15.6035C75.244 16.1335 74.629 16.5345 73.905 16.8066C73.189 17.0788 72.38 17.2148 71.478 17.2148C70.632 17.2148 69.855 17.0788 69.146 16.8066C68.445 16.5345 67.832 16.1335 67.31 15.6035C66.794 15.0664 66.393 14.4111 66.106 13.6377C65.827 12.8643 65.688 11.9762 65.688 10.9736C65.688 9.64156 65.924 8.51366 66.396 7.58976C66.869 6.66596 67.542 5.96416 68.416 5.48436C69.29 5.00456 70.332 4.76456 71.542 4.76456C72.666 4.76456 73.662 5.00456 74.528 5.48436C75.402 5.96416 76.086 6.66596 76.58 7.58976C77.081 8.51366 77.332 9.64156 77.332 10.9736ZM69.028 10.9736C69.028 11.7614 69.114 12.4238 69.286 12.9609C69.458 13.498 69.727 13.9027 70.092 14.1748C70.457 14.4469 70.933 14.583 71.521 14.583C72.101 14.583 72.57 14.4469 72.928 14.1748C73.293 13.9027 73.558 13.498 73.723 12.9609C73.895 12.4238 73.98 11.7614 73.98 10.9736C73.98 10.1787 73.895 9.51986 73.723 8.99706C73.558 8.46706 73.293 8.06966 72.928 7.80466C72.562 7.53966 72.086 7.40716 71.499 7.40716C70.632 7.40716 70.002 7.70436 69.608 8.29876C69.222 8.89316 69.028 9.78476 69.028 10.9736ZM91.061 4.99016V17H88.547L88.106 15.4639H87.935C87.677 15.8721 87.354 16.2051 86.968 16.4629C86.581 16.7207 86.155 16.9105 85.689 17.0322C85.224 17.154 84.741 17.2148 84.239 17.2148C83.38 17.2148 82.632 17.0645 81.994 16.7637C81.357 16.4557 80.859 15.9795 80.501 15.335C80.15 14.6904 79.975 13.8525 79.975 12.8213V4.99016H83.251V12.0049C83.251 12.8643 83.405 13.5124 83.713 13.9492C84.021 14.3861 84.511 14.6045 85.185 14.6045C85.851 14.6045 86.373 14.4541 86.753 14.1533C87.132 13.8454 87.397 13.3978 87.548 12.8105C87.705 12.2161 87.784 11.4928 87.784 10.6406V4.99016H91.061ZM97.774 0.285156V4.17376C97.774 4.62496 97.76 5.07256 97.731 5.51656C97.71 5.96056 97.681 6.30436 97.646 6.54786H97.774C98.09 6.05366 98.519 5.63476 99.063 5.29096C99.608 4.94006 100.313 4.76456 101.18 4.76456C102.526 4.76456 103.618 5.29096 104.456 6.34376C105.294 7.39646 105.713 8.93976 105.713 10.9736C105.713 12.3415 105.52 13.4909 105.133 14.4219C104.746 15.3457 104.205 16.0439 103.511 16.5166C102.816 16.9821 102.01 17.2148 101.094 17.2148C100.213 17.2148 99.518 17.0573 99.01 16.7422C98.501 16.4271 98.09 16.0726 97.774 15.6787H97.549L97.001 17H94.498V0.285156H97.774ZM100.127 7.38566C99.554 7.38566 99.099 7.50386 98.763 7.74016C98.426 7.97656 98.179 8.33106 98.021 8.80366C97.871 9.27636 97.789 9.87426 97.774 10.5977V10.9521C97.774 12.1195 97.946 13.0146 98.29 13.6377C98.634 14.2536 99.26 14.5615 100.17 14.5615C100.843 14.5615 101.377 14.25 101.771 13.627C102.172 13.0039 102.372 12.1051 102.372 10.9307C102.372 9.75616 102.172 8.87166 101.771 8.27726C101.369 7.68286 100.822 7.38566 100.127 7.38566ZM113.479 14.6045C113.838 14.6045 114.185 14.5687 114.521 14.4971C114.865 14.4255 115.205 14.3359 115.542 14.2285V16.667C115.191 16.8245 114.754 16.9535 114.231 17.0537C113.716 17.1611 113.15 17.2148 112.534 17.2148C111.818 17.2148 111.174 17.1003 110.601 16.8711C110.035 16.6348 109.587 16.2301 109.258 15.6572C108.936 15.0771 108.774 14.2715 108.774 13.2402V7.45016H107.206V6.06446L109.011 4.96876L109.956 2.43356H112.051V4.99016H115.413V7.45016H112.051V13.2402C112.051 13.6986 112.18 14.0423 112.438 14.2715C112.702 14.4935 113.05 14.6045 113.479 14.6045ZM7.64703 33.8408C7.01003 33.8408 6.44403 33.9661 5.95023 34.2168C5.46323 34.4603 5.05142 34.8148 4.71482 35.2803C4.38542 35.7458 4.13482 36.3079 3.96292 36.9668C3.79102 37.6257 3.70512 38.3669 3.70512 39.1904C3.70512 40.3005 3.84112 41.2493 4.11332 42.0371C4.39262 42.8177 4.82232 43.4157 5.40232 43.8311C5.98242 44.2393 6.73103 44.4434 7.64703 44.4434C8.28503 44.4434 8.92202 44.3717 9.56002 44.2285C10.204 44.0853 10.902 43.8812 11.654 43.6162V46.4092C10.96 46.6956 10.276 46.8997 9.60302 47.0215C8.92902 47.1504 8.17402 47.2148 7.33602 47.2148C5.71742 47.2148 4.38542 46.8818 3.33982 46.2158C2.30142 45.5426 1.53162 44.6045 1.03032 43.4014C0.529019 42.1911 0.27832 40.7803 0.27832 39.1689C0.27832 37.9801 0.439526 36.8916 0.761726 35.9033C1.08403 34.915 1.55663 34.0592 2.17973 33.3359C2.80273 32.6126 3.57263 32.054 4.48933 31.6602C5.40593 31.2663 6.45903 31.0693 7.64703 31.0693C8.42803 31.0693 9.20902 31.1696 9.98902 31.3701C10.777 31.5635 11.529 31.832 12.245 32.1758L11.171 34.8828C10.584 34.6035 9.99303 34.36 9.39803 34.1523C8.80403 33.9447 8.22003 33.8408 7.64703 33.8408ZM18.024 47H14.748V30.2852H18.024V47ZM26.425 34.7646C27.535 34.7646 28.491 34.9795 29.293 35.4092C30.095 35.8317 30.715 36.4476 31.151 37.2568C31.588 38.0661 31.807 39.0544 31.807 40.2217V41.8115H24.062C24.097 42.7354 24.373 43.4622 24.889 43.9922C25.411 44.515 26.135 44.7764 27.059 44.7764C27.825 44.7764 28.527 44.6976 29.164 44.54C29.801 44.3825 30.457 44.1462 31.13 43.8311V46.3662C30.535 46.6598 29.912 46.8747 29.261 47.0107C28.616 47.1468 27.832 47.2148 26.908 47.2148C25.705 47.2148 24.638 46.9928 23.707 46.5488C22.783 46.1048 22.056 45.4281 21.526 44.5186C21.004 43.609 20.742 42.4632 20.742 41.0811C20.742 39.6774 20.979 38.5101 21.451 37.5791C21.931 36.641 22.597 35.9391 23.449 35.4736C24.301 35.001 25.293 34.7646 26.425 34.7646ZM26.446 37.0957C25.809 37.0957 25.279 37.2998 24.856 37.708C24.441 38.1162 24.201 38.7572 24.137 39.6309H28.734C28.727 39.1439 28.638 38.7106 28.466 38.3311C28.301 37.9515 28.05 37.6507 27.714 37.4287C27.384 37.2067 26.962 37.0957 26.446 37.0957ZM39.391 34.7432C41.002 34.7432 42.237 35.0941 43.097 35.7959C43.956 36.4977 44.386 37.5648 44.386 38.9971V47H42.098L41.464 45.3672H41.378C41.034 45.7969 40.683 46.1478 40.325 46.4199C39.967 46.6921 39.555 46.8926 39.09 47.0215C38.624 47.1504 38.059 47.2148 37.393 47.2148C36.684 47.2148 36.046 47.0788 35.48 46.8066C34.922 46.5345 34.481 46.1191 34.159 45.5605C33.837 44.9948 33.676 44.2786 33.676 43.4121C33.676 42.1374 34.123 41.1992 35.019 40.5977C35.914 39.9889 37.257 39.6523 39.047 39.5879L41.131 39.5234V38.9971C41.131 38.3669 40.966 37.9049 40.637 37.6113C40.307 37.3177 39.849 37.1709 39.262 37.1709C38.682 37.1709 38.112 37.2533 37.554 37.418C36.995 37.5827 36.437 37.7904 35.878 38.041L34.793 35.8281C35.43 35.4915 36.143 35.2266 36.931 35.0332C37.726 34.8398 38.546 34.7432 39.391 34.7432ZM41.131 41.4355L39.863 41.4785C38.803 41.5072 38.066 41.6969 37.65 42.0479C37.242 42.3988 37.038 42.8607 37.038 43.4336C37.038 43.9349 37.185 44.293 37.479 44.5078C37.772 44.7155 38.155 44.8193 38.628 44.8193C39.33 44.8193 39.921 44.6117 40.4 44.1963C40.887 43.7809 41.131 43.1901 41.131 42.4238V41.4355ZM54.473 34.7646C54.637 34.7646 54.827 34.7754 55.042 34.7969C55.264 34.8112 55.443 34.8327 55.579 34.8613L55.332 37.9336C55.225 37.8978 55.071 37.8727 54.87 37.8584C54.677 37.8369 54.508 37.8262 54.365 37.8262C53.943 37.8262 53.531 37.8799 53.13 37.9873C52.736 38.0947 52.382 38.2702 52.066 38.5137C51.751 38.75 51.501 39.0651 51.314 39.459C51.135 39.8457 51.046 40.3219 51.046 40.8877V47H47.77V34.9902H50.251L50.734 37.0098H50.896C51.132 36.6016 51.425 36.2292 51.776 35.8926C52.134 35.5488 52.539 35.2767 52.99 35.0762C53.449 34.8685 53.943 34.7646 54.473 34.7646ZM62.68 34.7432C64.291 34.7432 65.526 35.0941 66.386 35.7959C67.245 36.4977 67.675 37.5648 67.675 38.9971V47H65.387L64.753 45.3672H64.667C64.323 45.7969 63.972 46.1478 63.614 46.4199C63.256 46.6921 62.844 46.8926 62.379 47.0215C61.913 47.1504 61.348 47.2148 60.682 47.2148C59.973 47.2148 59.335 47.0788 58.77 46.8066C58.211 46.5345 57.771 46.1191 57.448 45.5605C57.126 44.9948 56.965 44.2786 56.965 43.4121C56.965 42.1374 57.412 41.1992 58.308 40.5977C59.203 39.9889 60.546 39.6523 62.336 39.5879L64.42 39.5234V38.9971C64.42 38.3669 64.255 37.9049 63.926 37.6113C63.596 37.3177 63.138 37.1709 62.551 37.1709C61.971 37.1709 61.401 37.2533 60.843 37.418C60.284 37.5827 59.726 37.7904 59.167 38.041L58.082 35.8281C58.719 35.4915 59.432 35.2266 60.22 35.0332C61.015 34.8398 61.835 34.7432 62.68 34.7432ZM64.42 41.4355L63.152 41.4785C62.092 41.5072 61.355 41.6969 60.939 42.0479C60.531 42.3988 60.327 42.8607 60.327 43.4336C60.327 43.9349 60.474 44.293 60.768 44.5078C61.061 44.7155 61.444 44.8193 61.917 44.8193C62.619 44.8193 63.21 44.6117 63.689 44.1963C64.176 43.7809 64.42 43.1901 64.42 42.4238V41.4355ZM77.88 34.7646C79.162 34.7646 80.193 35.1156 80.974 35.8174C81.754 36.512 82.145 37.6292 82.145 39.1689V47H78.868V39.9854C78.868 39.126 78.711 38.4779 78.396 38.041C78.088 37.6042 77.601 37.3857 76.935 37.3857C75.932 37.3857 75.248 37.7259 74.883 38.4062C74.518 39.0866 74.335 40.0677 74.335 41.3496V47H71.059V34.9902H73.562L74.002 36.5264H74.185C74.442 36.111 74.761 35.7744 75.141 35.5166C75.527 35.2588 75.953 35.069 76.419 34.9473C76.892 34.8255 77.379 34.7646 77.88 34.7646ZM90.395 47.2148C89.206 47.2148 88.192 47 87.354 46.5703C86.517 46.1335 85.879 45.4603 85.442 44.5508C85.006 43.6413 84.787 42.4775 84.787 41.0596C84.787 39.5915 85.034 38.3955 85.528 37.4717C86.03 36.5407 86.721 35.8568 87.602 35.4199C88.49 34.9831 89.517 34.7646 90.685 34.7646C91.515 34.7646 92.231 34.847 92.833 35.0117C93.442 35.1693 93.972 35.359 94.423 35.5811L93.456 38.1162C92.94 37.9085 92.461 37.7402 92.017 37.6113C91.573 37.4753 91.129 37.4072 90.685 37.4072C90.112 37.4072 89.635 37.5433 89.256 37.8154C88.876 38.0804 88.593 38.4814 88.407 39.0186C88.221 39.5557 88.128 40.2288 88.128 41.0381C88.128 41.833 88.228 42.4919 88.429 43.0146C88.629 43.5374 88.919 43.9277 89.299 44.1855C89.678 44.4362 90.14 44.5615 90.685 44.5615C91.365 44.5615 91.97 44.472 92.5 44.293C93.03 44.1068 93.546 43.849 94.047 43.5195V46.3232C93.546 46.6383 93.019 46.8639 92.468 47C91.924 47.1432 91.232 47.2148 90.395 47.2148ZM101.792 34.7646C102.902 34.7646 103.858 34.9795 104.66 35.4092C105.462 35.8317 106.082 36.4476 106.519 37.2568C106.955 38.0661 107.174 39.0544 107.174 40.2217V41.8115H99.429C99.465 42.7354 99.74 43.4622 100.256 43.9922C100.779 44.515 101.502 44.7764 102.426 44.7764C103.192 44.7764 103.894 44.6976 104.531 44.54C105.169 44.3825 105.824 44.1462 106.497 43.8311V46.3662C105.903 46.6598 105.28 46.8747 104.628 47.0107C103.983 47.1468 103.199 47.2148 102.275 47.2148C101.072 47.2148 100.005 46.9928 99.074 46.5488C98.15 46.1048 97.424 45.4281 96.894 44.5186C96.371 43.609 96.109 42.4632 96.109 41.0811C96.109 39.6774 96.346 38.5101 96.818 37.5791C97.298 36.641 97.964 35.9391 98.816 35.4736C99.669 35.001 100.66 34.7646 101.792 34.7646ZM101.813 37.0957C101.176 37.0957 100.646 37.2998 100.224 37.708C99.808 38.1162 99.568 38.7572 99.504 39.6309H104.102C104.094 39.1439 104.005 38.7106 103.833 38.3311C103.668 37.9515 103.418 37.6507 103.081 37.4287C102.752 37.2067 102.329 37.0957 101.813 37.0957ZM125.081 42.6387C125.081 43.5697 124.855 44.3789 124.404 45.0664C123.953 45.7539 123.294 46.2839 122.428 46.6562C121.568 47.0286 120.523 47.2148 119.291 47.2148C118.747 47.2148 118.213 47.179 117.69 47.1074C117.175 47.0358 116.677 46.932 116.197 46.7959C115.725 46.6527 115.273 46.4772 114.844 46.2695V43.1758C115.589 43.5052 116.362 43.8024 117.164 44.0674C117.966 44.3324 118.761 44.4648 119.549 44.4648C120.093 44.4648 120.53 44.3932 120.859 44.25C121.196 44.1068 121.439 43.9098 121.59 43.6592C121.74 43.4085 121.815 43.1221 121.815 42.7998C121.815 42.4059 121.683 42.0693 121.418 41.79C121.153 41.5107 120.788 41.2493 120.322 41.0059C119.864 40.7624 119.345 40.501 118.765 40.2217C118.399 40.0498 118.002 39.8421 117.572 39.5986C117.143 39.348 116.734 39.0436 116.348 38.6855C115.961 38.3275 115.642 37.8942 115.392 37.3857C115.148 36.8701 115.026 36.2542 115.026 35.5381C115.026 34.5999 115.241 33.7979 115.671 33.1318C116.101 32.4658 116.713 31.9574 117.508 31.6064C118.31 31.2484 119.255 31.0693 120.344 31.0693C121.16 31.0693 121.937 31.166 122.675 31.3594C123.42 31.5456 124.197 31.8177 125.006 32.1758L123.932 34.7646C123.208 34.471 122.56 34.2454 121.987 34.0879C121.414 33.9232 120.831 33.8408 120.236 33.8408C119.821 33.8408 119.466 33.9089 119.173 34.0449C118.879 34.1738 118.657 34.36 118.507 34.6035C118.356 34.8398 118.281 35.1156 118.281 35.4307C118.281 35.8031 118.389 36.1182 118.604 36.376C118.826 36.6266 119.155 36.8701 119.592 37.1064C120.036 37.3428 120.587 37.6185 121.246 37.9336C122.048 38.3132 122.732 38.7106 123.298 39.126C123.871 39.5342 124.311 40.0176 124.619 40.5762C124.927 41.1276 125.081 41.8151 125.081 42.6387ZM132.622 34.7646C133.732 34.7646 134.688 34.9795 135.49 35.4092C136.292 35.8317 136.912 36.4476 137.349 37.2568C137.785 38.0661 138.004 39.0544 138.004 40.2217V41.8115H130.259C130.295 42.7354 130.57 43.4622 131.086 43.9922C131.609 44.515 132.332 44.7764 133.256 44.7764C134.022 44.7764 134.724 44.6976 135.361 44.54C135.999 44.3825 136.654 44.1462 137.327 43.8311V46.3662C136.733 46.6598 136.11 46.8747 135.458 47.0107C134.813 47.1468 134.029 47.2148 133.105 47.2148C131.902 47.2148 130.835 46.9928 129.904 46.5488C128.98 46.1048 128.254 45.4281 127.724 44.5186C127.201 43.609 126.939 42.4632 126.939 41.0811C126.939 39.6774 127.176 38.5101 127.648 37.5791C128.128 36.641 128.794 35.9391 129.646 35.4736C130.499 35.001 131.491 34.7646 132.622 34.7646ZM132.644 37.0957C132.006 37.0957 131.476 37.2998 131.054 37.708C130.638 38.1162 130.398 38.7572 130.334 39.6309H134.932C134.924 39.1439 134.835 38.7106 134.663 38.3311C134.498 37.9515 134.248 37.6507 133.911 37.4287C133.582 37.2067 133.159 37.0957 132.644 37.0957ZM149.047 43.4336C149.047 44.25 148.854 44.9411 148.467 45.5068C148.087 46.0654 147.518 46.4915 146.759 46.7852C146 47.0716 145.054 47.2148 143.923 47.2148C143.085 47.2148 142.365 47.1611 141.764 47.0537C141.169 46.9463 140.568 46.7673 139.959 46.5166V43.8096C140.611 44.1032 141.309 44.3467 142.054 44.54C142.806 44.7262 143.465 44.8193 144.03 44.8193C144.668 44.8193 145.122 44.7262 145.395 44.54C145.674 44.3467 145.813 44.096 145.813 43.7881C145.813 43.5876 145.756 43.4085 145.642 43.251C145.534 43.0863 145.298 42.9036 144.933 42.7031C144.567 42.4954 143.994 42.2269 143.214 41.8975C142.462 41.5824 141.842 41.2637 141.355 40.9414C140.876 40.6191 140.518 40.2396 140.281 39.8027C140.052 39.3587 139.938 38.7965 139.938 38.1162C139.938 37.0062 140.367 36.1719 141.227 35.6133C142.093 35.0475 143.25 34.7646 144.696 34.7646C145.441 34.7646 146.15 34.8398 146.823 34.9902C147.504 35.1406 148.202 35.3805 148.918 35.71L147.93 38.0732C147.335 37.8154 146.773 37.6042 146.243 37.4395C145.72 37.2747 145.187 37.1924 144.643 37.1924C144.163 37.1924 143.801 37.2568 143.558 37.3857C143.314 37.5146 143.192 37.7116 143.192 37.9766C143.192 38.1699 143.253 38.3418 143.375 38.4922C143.504 38.6426 143.747 38.8109 144.105 38.9971C144.471 39.1761 145.004 39.4089 145.706 39.6953C146.386 39.9746 146.977 40.2682 147.479 40.5762C147.98 40.877 148.367 41.2529 148.639 41.7041C148.911 42.1481 149.047 42.7246 149.047 43.4336ZM159.982 43.4336C159.982 44.25 159.789 44.9411 159.402 45.5068C159.023 46.0654 158.453 46.4915 157.694 46.7852C156.935 47.0716 155.99 47.2148 154.858 47.2148C154.021 47.2148 153.301 47.1611 152.699 47.0537C152.105 46.9463 151.503 46.7673 150.895 46.5166V43.8096C151.546 44.1032 152.244 44.3467 152.989 44.54C153.741 44.7262 154.4 44.8193 154.966 44.8193C155.603 44.8193 156.058 44.7262 156.33 44.54C156.609 44.3467 156.749 44.096 156.749 43.7881C156.749 43.5876 156.692 43.4085 156.577 43.251C156.47 43.0863 156.233 42.9036 155.868 42.7031C155.503 42.4954 154.93 42.2269 154.149 41.8975C153.397 41.5824 152.778 41.2637 152.291 40.9414C151.811 40.6191 151.453 40.2396 151.217 39.8027C150.988 39.3587 150.873 38.7965 150.873 38.1162C150.873 37.0062 151.303 36.1719 152.162 35.6133C153.029 35.0475 154.185 34.7646 155.632 34.7646C156.377 34.7646 157.086 34.8398 157.759 34.9902C158.439 35.1406 159.137 35.3805 159.854 35.71L158.865 38.0732C158.271 37.8154 157.709 37.6042 157.179 37.4395C156.656 37.2747 156.122 37.1924 155.578 37.1924C155.098 37.1924 154.737 37.2568 154.493 37.3857C154.25 37.5146 154.128 37.7116 154.128 37.9766C154.128 38.1699 154.189 38.3418 154.311 38.4922C154.439 38.6426 154.683 38.8109 155.041 38.9971C155.406 39.1761 155.94 39.4089 156.642 39.6953C157.322 39.9746 157.913 40.2682 158.414 40.5762C158.915 40.877 159.302 41.2529 159.574 41.7041C159.846 42.1481 159.982 42.7246 159.982 43.4336ZM165.815 34.9902V47H162.539V34.9902H165.815ZM164.183 30.2852C164.67 30.2852 165.089 30.3997 165.439 30.6289C165.79 30.8509 165.966 31.2699 165.966 31.8857C165.966 32.4945 165.79 32.917 165.439 33.1533C165.089 33.3825 164.67 33.4971 164.183 33.4971C163.688 33.4971 163.266 33.3825 162.915 33.1533C162.571 32.917 162.399 32.4945 162.399 31.8857C162.399 31.2699 162.571 30.8509 162.915 30.6289C163.266 30.3997 163.688 30.2852 164.183 30.2852ZM180.178 40.9736C180.178 41.9762 180.042 42.8643 179.77 43.6377C179.505 44.4111 179.114 45.0664 178.599 45.6035C178.09 46.1335 177.474 46.5345 176.751 46.8066C176.035 47.0788 175.226 47.2148 174.323 47.2148C173.478 47.2148 172.701 47.0788 171.992 46.8066C171.29 46.5345 170.678 46.1335 170.155 45.6035C169.64 45.0664 169.239 44.4111 168.952 43.6377C168.673 42.8643 168.533 41.9762 168.533 40.9736C168.533 39.6416 168.77 38.5137 169.242 37.5898C169.715 36.666 170.388 35.9642 171.262 35.4844C172.135 35.0046 173.177 34.7646 174.388 34.7646C175.512 34.7646 176.507 35.0046 177.374 35.4844C178.248 35.9642 178.932 36.666 179.426 37.5898C179.927 38.5137 180.178 39.6416 180.178 40.9736ZM171.874 40.9736C171.874 41.7614 171.96 42.4238 172.132 42.9609C172.304 43.498 172.572 43.9027 172.938 44.1748C173.303 44.4469 173.779 44.583 174.366 44.583C174.946 44.583 175.415 44.4469 175.773 44.1748C176.139 43.9027 176.404 43.498 176.568 42.9609C176.74 42.4238 176.826 41.7614 176.826 40.9736C176.826 40.1787 176.74 39.5199 176.568 38.9971C176.404 38.4671 176.139 38.0697 175.773 37.8047C175.408 37.5397 174.932 37.4072 174.345 37.4072C173.478 37.4072 172.848 37.7044 172.454 38.2988C172.067 38.8932 171.874 39.7848 171.874 40.9736ZM189.706 34.7646C190.988 34.7646 192.019 35.1156 192.8 35.8174C193.58 36.512 193.971 37.6292 193.971 39.1689V47H190.694V39.9854C190.694 39.126 190.537 38.4779 190.222 38.041C189.914 37.6042 189.427 37.3857 188.761 37.3857C187.758 37.3857 187.074 37.7259 186.709 38.4062C186.344 39.0866 186.161 40.0677 186.161 41.3496V47H182.885V34.9902H185.388L185.828 36.5264H186.011C186.269 36.111 186.587 35.7744 186.967 35.5166C187.354 35.2588 187.78 35.069 188.245 34.9473C188.718 34.8255 189.205 34.7646 189.706 34.7646ZM205.723 43.4336C205.723 44.25 205.529 44.9411 205.143 45.5068C204.763 46.0654 204.194 46.4915 203.435 46.7852C202.675 47.0716 201.73 47.2148 200.599 47.2148C199.761 47.2148 199.041 47.1611 198.439 47.0537C197.845 46.9463 197.243 46.7673 196.635 46.5166V43.8096C197.286 44.1032 197.985 44.3467 198.729 44.54C199.481 44.7262 200.14 44.8193 200.706 44.8193C201.343 44.8193 201.798 44.7262 202.07 44.54C202.35 44.3467 202.489 44.096 202.489 43.7881C202.489 43.5876 202.432 43.4085 202.317 43.251C202.21 43.0863 201.974 42.9036 201.608 42.7031C201.243 42.4954 200.67 42.2269 199.89 41.8975C199.138 41.5824 198.518 41.2637 198.031 40.9414C197.551 40.6191 197.193 40.2396 196.957 39.8027C196.728 39.3587 196.613 38.7965 196.613 38.1162C196.613 37.0062 197.043 36.1719 197.902 35.6133C198.769 35.0475 199.925 34.7646 201.372 34.7646C202.117 34.7646 202.826 34.8398 203.499 34.9902C204.179 35.1406 204.878 35.3805 205.594 35.71L204.605 38.0732C204.011 37.8154 203.449 37.6042 202.919 37.4395C202.396 37.2747 201.863 37.1924 201.318 37.1924C200.839 37.1924 200.477 37.2568 200.233 37.3857C199.99 37.5146 199.868 37.7116 199.868 37.9766C199.868 38.1699 199.929 38.3418 200.051 38.4922C200.18 38.6426 200.423 38.8109 200.781 38.9971C201.146 39.1761 201.68 39.4089 202.382 39.6953C203.062 39.9746 203.653 40.2682 204.154 40.5762C204.656 40.877 205.042 41.2529 205.314 41.7041C205.587 42.1481 205.723 42.7246 205.723 43.4336Z" fill="#656C73"/>
</svg>
