<svg width="220" height="53" viewBox="0 0 220 53" fill="none" xmlns="http://www.w3.org/2000/svg">
<path d="M5.99323 1.29486C8.02003 1.29486 9.49902 1.73176 10.43 2.60546C11.361 3.47196 11.826 4.66796 11.826 6.19336C11.826 6.88086 11.722 7.53966 11.515 8.16986C11.307 8.79296 10.967 9.34796 10.494 9.83496C10.029 10.3219 9.40602 10.7087 8.62502 10.9951C7.84402 11.2744 6.88102 11.4141 5.73542 11.4141H4.30663V17H0.976624V1.29486H5.99323ZM5.82132 4.02336H4.30663V8.68546H5.40232C6.02502 8.68546 6.56602 8.60316 7.02402 8.43846C7.48302 8.27376 7.83702 8.01596 8.08802 7.66496C8.33902 7.31406 8.46402 6.86296 8.46402 6.31146C8.46402 5.53806 8.24902 4.96516 7.81902 4.59276C7.39002 4.21316 6.72402 4.02336 5.82132 4.02336ZM25.447 10.9736C25.447 11.9762 25.311 12.8643 25.039 13.6377C24.774 14.4111 24.384 15.0664 23.868 15.6035C23.36 16.1335 22.744 16.5345 22.021 16.8066C21.304 17.0788 20.495 17.2148 19.593 17.2148C18.748 17.2148 17.971 17.0788 17.262 16.8066C16.56 16.5345 15.948 16.1335 15.425 15.6035C14.909 15.0664 14.508 14.4111 14.222 13.6377C13.942 12.8643 13.803 11.9762 13.803 10.9736C13.803 9.64156 14.039 8.51366 14.512 7.58976C14.984 6.66596 15.658 5.96416 16.531 5.48436C17.405 5.00456 18.447 4.76456 19.657 4.76456C20.782 4.76456 21.777 5.00456 22.644 5.48436C23.517 5.96416 24.201 6.66596 24.695 7.58976C25.197 8.51366 25.447 9.64156 25.447 10.9736ZM17.144 10.9736C17.144 11.7614 17.229 12.4238 17.401 12.9609C17.573 13.498 17.842 13.9027 18.207 14.1748C18.572 14.4469 19.049 14.583 19.636 14.583C20.216 14.583 20.685 14.4469 21.043 14.1748C21.408 13.9027 21.673 13.498 21.838 12.9609C22.01 12.4238 22.096 11.7614 22.096 10.9736C22.096 10.1787 22.01 9.51986 21.838 8.99706C21.673 8.46706 21.408 8.06966 21.043 7.80466C20.678 7.53966 20.201 7.40716 19.614 7.40716C18.748 7.40716 18.118 7.70436 17.724 8.29876C17.337 8.89316 17.144 9.78476 17.144 10.9736ZM33.214 14.6045C33.572 14.6045 33.919 14.5687 34.256 14.4971C34.6 14.4255 34.94 14.3359 35.276 14.2285V16.667C34.925 16.8245 34.489 16.9535 33.966 17.0537C33.45 17.1611 32.884 17.2148 32.269 17.2148C31.552 17.2148 30.908 17.1003 30.335 16.8711C29.769 16.6348 29.322 16.2301 28.992 15.6572C28.67 15.0771 28.509 14.2715 28.509 13.2402V7.45016H26.94V6.06446L28.745 4.96876L29.69 2.43356H31.785V4.99016H35.147V7.45016H31.785V13.2402C31.785 13.6986 31.914 14.0423 32.172 14.2715C32.437 14.4935 32.784 14.6045 33.214 14.6045ZM42.667 4.76456C43.777 4.76456 44.733 4.97946 45.535 5.40916C46.337 5.83166 46.957 6.44756 47.394 7.25676C47.83 8.06606 48.049 9.05436 48.049 10.2217V11.8115H40.304C40.34 12.7354 40.615 13.4622 41.131 13.9922C41.654 14.515 42.377 14.7764 43.301 14.7764C44.067 14.7764 44.769 14.6976 45.406 14.54C46.044 14.3825 46.699 14.1462 47.372 13.8311V16.3662C46.778 16.6598 46.155 16.8747 45.503 17.0107C44.858 17.1468 44.074 17.2148 43.15 17.2148C41.947 17.2148 40.88 16.9928 39.949 16.5488C39.025 16.1048 38.299 15.4281 37.769 14.5186C37.246 13.609 36.984 12.4632 36.984 11.0811C36.984 9.67736 37.221 8.51006 37.693 7.57906C38.173 6.64096 38.839 5.93906 39.691 5.47356C40.544 5.00096 41.535 4.76456 42.667 4.76456ZM42.688 7.09566C42.051 7.09566 41.521 7.29976 41.099 7.70796C40.683 8.11616 40.443 8.75716 40.379 9.63086H44.977C44.969 9.14386 44.88 8.71056 44.708 8.33106C44.543 7.95146 44.293 7.65066 43.956 7.42866C43.627 7.20666 43.204 7.09566 42.688 7.09566ZM57.534 4.76456C58.816 4.76456 59.847 5.11556 60.628 5.81736C61.409 6.51196 61.799 7.62916 61.799 9.16886V17H58.522V9.98536C58.522 9.12596 58.365 8.47786 58.05 8.04096C57.742 7.60416 57.255 7.38566 56.589 7.38566C55.586 7.38566 54.902 7.72586 54.537 8.40616C54.172 9.08656 53.989 10.0677 53.989 11.3496V17H50.713V4.99016H53.216L53.656 6.52636H53.839C54.097 6.11096 54.415 5.77436 54.795 5.51656C55.182 5.25876 55.608 5.06896 56.073 4.94726C56.546 4.82546 57.033 4.76456 57.534 4.76456ZM70.231 14.6045C70.59 14.6045 70.937 14.5687 71.273 14.4971C71.617 14.4255 71.957 14.3359 72.294 14.2285V16.667C71.943 16.8245 71.506 16.9535 70.983 17.0537C70.468 17.1611 69.902 17.2148 69.286 17.2148C68.57 17.2148 67.925 17.1003 67.353 16.8711C66.787 16.6348 66.339 16.2301 66.01 15.6572C65.688 15.0771 65.526 14.2715 65.526 13.2402V7.45016H63.958V6.06446L65.763 4.96876L66.708 2.43356H68.803V4.99016H72.165V7.45016H68.803V13.2402C68.803 13.6986 68.932 14.0423 69.189 14.2715C69.454 14.4935 69.802 14.6045 70.231 14.6045ZM78.009 4.99016V17H74.732V4.99016H78.009ZM76.376 0.285156C76.863 0.285156 77.282 0.399656 77.633 0.628856C77.984 0.850856 78.159 1.26986 78.159 1.88566C78.159 2.49446 77.984 2.91696 77.633 3.15326C77.282 3.38246 76.863 3.49706 76.376 3.49706C75.882 3.49706 75.459 3.38246 75.108 3.15326C74.765 2.91696 74.593 2.49446 74.593 1.88566C74.593 1.26986 74.765 0.850856 75.108 0.628856C75.459 0.399656 75.882 0.285156 76.376 0.285156ZM86.377 4.74316C87.988 4.74316 89.224 5.09406 90.083 5.79586C90.942 6.49766 91.372 7.56476 91.372 8.99706V17H89.084L88.45 15.3672H88.364C88.021 15.7969 87.67 16.1478 87.312 16.4199C86.953 16.6921 86.542 16.8926 86.076 17.0215C85.611 17.1504 85.045 17.2148 84.379 17.2148C83.67 17.2148 83.033 17.0788 82.467 16.8066C81.908 16.5345 81.468 16.1191 81.146 15.5605C80.823 14.9948 80.662 14.2786 80.662 13.4121C80.662 12.1374 81.11 11.1992 82.005 10.5977C82.9 9.98886 84.243 9.65226 86.033 9.58786L88.117 9.52336V8.99706C88.117 8.36686 87.952 7.90486 87.623 7.61126C87.294 7.31766 86.835 7.17086 86.248 7.17086C85.668 7.17086 85.099 7.25326 84.54 7.41796C83.981 7.58266 83.423 7.79036 82.864 8.04096L81.779 5.82806C82.417 5.49146 83.129 5.22656 83.917 5.03316C84.712 4.83976 85.532 4.74316 86.377 4.74316ZM88.117 11.4355L86.85 11.4785C85.79 11.5072 85.052 11.6969 84.637 12.0479C84.229 12.3988 84.024 12.8607 84.024 13.4336C84.024 13.9349 84.171 14.293 84.465 14.5078C84.758 14.7155 85.142 14.8193 85.614 14.8193C86.316 14.8193 86.907 14.6117 87.387 14.1963C87.874 13.7809 88.117 13.1901 88.117 12.4238V11.4355ZM98.032 17H94.756V0.285156H98.032V17ZM107.453 17V1.29486H110.783V17H107.453ZM121.3 4.76456C122.582 4.76456 123.613 5.11556 124.394 5.81736C125.174 6.51196 125.564 7.62916 125.564 9.16886V17H122.288V9.98536C122.288 9.12596 122.131 8.47786 121.815 8.04096C121.507 7.60416 121.021 7.38566 120.354 7.38566C119.352 7.38566 118.668 7.72586 118.303 8.40616C117.938 9.08656 117.755 10.0677 117.755 11.3496V17H114.479V4.99016H116.981L117.422 6.52636H117.604C117.862 6.11096 118.181 5.77436 118.561 5.51656C118.947 5.25876 119.373 5.06896 119.839 4.94726C120.312 4.82546 120.799 4.76456 121.3 4.76456ZM133.997 14.6045C134.355 14.6045 134.702 14.5687 135.039 14.4971C135.383 14.4255 135.723 14.3359 136.06 14.2285V16.667C135.709 16.8245 135.272 16.9535 134.749 17.0537C134.233 17.1611 133.668 17.2148 133.052 17.2148C132.336 17.2148 131.691 17.1003 131.118 16.8711C130.552 16.6348 130.105 16.2301 129.775 15.6572C129.453 15.0771 129.292 14.2715 129.292 13.2402V7.45016H127.724V6.06446L129.528 4.96876L130.474 2.43356H132.568V4.99016H135.931V7.45016H132.568V13.2402C132.568 13.6986 132.697 14.0423 132.955 14.2715C133.22 14.4935 133.567 14.6045 133.997 14.6045ZM143.45 4.76456C144.56 4.76456 145.516 4.97946 146.318 5.40916C147.12 5.83166 147.74 6.44756 148.177 7.25676C148.614 8.06606 148.832 9.05436 148.832 10.2217V11.8115H141.087C141.123 12.7354 141.398 13.4622 141.914 13.9922C142.437 14.515 143.16 14.7764 144.084 14.7764C144.85 14.7764 145.552 14.6976 146.189 14.54C146.827 14.3825 147.482 14.1462 148.155 13.8311V16.3662C147.561 16.6598 146.938 16.8747 146.286 17.0107C145.642 17.1468 144.857 17.2148 143.934 17.2148C142.73 17.2148 141.663 16.9928 140.732 16.5488C139.809 16.1048 139.082 15.4281 138.552 14.5186C138.029 13.609 137.768 12.4632 137.768 11.0811C137.768 9.67736 138.004 8.51006 138.477 7.57906C138.956 6.64096 139.622 5.93906 140.475 5.47356C141.327 5.00096 142.319 4.76456 143.45 4.76456ZM143.472 7.09566C142.834 7.09566 142.304 7.29976 141.882 7.70796C141.466 8.11616 141.227 8.75716 141.162 9.63086H145.76C145.753 9.14386 145.663 8.71056 145.491 8.33106C145.326 7.95146 145.076 7.65066 144.739 7.42866C144.41 7.20666 143.987 7.09566 143.472 7.09566ZM158.199 4.76456C158.364 4.76456 158.554 4.77536 158.769 4.79686C158.991 4.81116 159.17 4.83266 159.306 4.86126L159.059 7.93356C158.951 7.89776 158.797 7.87266 158.597 7.85836C158.403 7.83686 158.235 7.82616 158.092 7.82616C157.669 7.82616 157.257 7.87986 156.856 7.98726C156.463 8.09466 156.108 8.27016 155.793 8.51366C155.478 8.74996 155.227 9.06506 155.041 9.45896C154.862 9.84566 154.772 10.3219 154.772 10.8877V17H151.496V4.99016H153.978L154.461 7.00976H154.622C154.858 6.60156 155.152 6.22916 155.503 5.89256C155.861 5.54876 156.266 5.27666 156.717 5.07616C157.175 4.86846 157.669 4.76456 158.199 4.76456ZM168.308 4.76456C169.59 4.76456 170.621 5.11556 171.401 5.81736C172.182 6.51196 172.572 7.62916 172.572 9.16886V17H169.296V9.98536C169.296 9.12596 169.138 8.47786 168.823 8.04096C168.515 7.60416 168.028 7.38566 167.362 7.38566C166.36 7.38566 165.676 7.72586 165.311 8.40616C164.945 9.08656 164.763 10.0677 164.763 11.3496V17H161.486V4.99016H163.989L164.43 6.52636H164.612C164.87 6.11096 165.189 5.77436 165.568 5.51656C165.955 5.25876 166.381 5.06896 166.847 4.94726C167.319 4.82546 167.806 4.76456 168.308 4.76456ZM184.324 13.4336C184.324 14.25 184.131 14.9411 183.744 15.5068C183.365 16.0654 182.795 16.4915 182.036 16.7852C181.277 17.0716 180.332 17.2148 179.2 17.2148C178.362 17.2148 177.643 17.1611 177.041 17.0537C176.447 16.9463 175.845 16.7673 175.236 16.5166V13.8096C175.888 14.1032 176.586 14.3467 177.331 14.54C178.083 14.7262 178.742 14.8193 179.308 14.8193C179.945 14.8193 180.4 14.7262 180.672 14.54C180.951 14.3467 181.091 14.096 181.091 13.7881C181.091 13.5876 181.034 13.4085 180.919 13.251C180.812 13.0863 180.575 12.9036 180.21 12.7031C179.845 12.4954 179.272 12.2269 178.491 11.8975C177.739 11.5824 177.12 11.2637 176.633 10.9414C176.153 10.6191 175.795 10.2396 175.559 9.80266C175.329 9.35866 175.215 8.79646 175.215 8.11616C175.215 7.00616 175.645 6.17186 176.504 5.61326C177.37 5.04746 178.527 4.76456 179.974 4.76456C180.718 4.76456 181.427 4.83976 182.101 4.99016C182.781 5.14056 183.479 5.38046 184.195 5.70996L183.207 8.07316C182.613 7.81536 182.05 7.60416 181.521 7.43946C180.998 7.27466 180.464 7.19236 179.92 7.19236C179.44 7.19236 179.078 7.25676 178.835 7.38566C178.591 7.51456 178.47 7.71156 178.47 7.97656C178.47 8.16986 178.531 8.34176 178.652 8.49216C178.781 8.64256 179.025 8.81086 179.383 8.99706C179.748 9.17606 180.282 9.40886 180.983 9.69526C181.664 9.97456 182.255 10.2682 182.756 10.5762C183.257 10.877 183.644 11.2529 183.916 11.7041C184.188 12.1481 184.324 12.7246 184.324 13.4336ZM190.157 0.285156V3.69036C190.157 4.28476 190.136 4.85056 190.093 5.38766C190.057 5.92476 190.028 6.30436 190.007 6.52636H190.179C190.437 6.11096 190.741 5.77436 191.092 5.51656C191.45 5.25876 191.844 5.06896 192.273 4.94726C192.703 4.82546 193.165 4.76456 193.659 4.76456C194.526 4.76456 195.281 4.91856 195.926 5.22656C196.57 5.52726 197.072 6.00356 197.43 6.65526C197.788 7.29976 197.967 8.13766 197.967 9.16886V17H194.69V9.98536C194.69 9.12596 194.533 8.47786 194.218 8.04096C193.903 7.60416 193.416 7.38566 192.757 7.38566C192.098 7.38566 191.579 7.53966 191.199 7.84766C190.82 8.14836 190.551 8.59596 190.394 9.19036C190.236 9.77766 190.157 10.4974 190.157 11.3496V17H186.881V0.285156H190.157ZM204.616 4.99016V17H201.34V4.99016H204.616ZM202.983 0.285156C203.47 0.285156 203.889 0.399656 204.24 0.628856C204.591 0.850856 204.767 1.26986 204.767 1.88566C204.767 2.49446 204.591 2.91696 204.24 3.15326C203.889 3.38246 203.47 3.49706 202.983 3.49706C202.489 3.49706 202.067 3.38246 201.716 3.15326C201.372 2.91696 201.2 2.49446 201.2 1.88566C201.2 1.26986 201.372 0.850856 201.716 0.628856C202.067 0.399656 202.489 0.285156 202.983 0.285156ZM214.746 4.76456C216.1 4.76456 217.192 5.29096 218.022 6.34376C218.86 7.39646 219.279 8.93976 219.279 10.9736C219.279 12.3343 219.082 13.4801 218.688 14.4111C218.295 15.335 217.75 16.0332 217.056 16.5059C216.361 16.9785 215.562 17.2148 214.66 17.2148C214.08 17.2148 213.582 17.1432 213.167 17C212.752 16.8496 212.397 16.6598 212.104 16.4307C211.81 16.1943 211.556 15.9437 211.341 15.6787H211.169C211.226 15.9652 211.269 16.2588 211.298 16.5596C211.326 16.8604 211.341 17.154 211.341 17.4404V22.2852H208.064V4.99016H210.729L211.19 6.54786H211.341C211.556 6.22556 211.817 5.92836 212.125 5.65616C212.433 5.38406 212.802 5.16926 213.231 5.01166C213.668 4.84696 214.173 4.76456 214.746 4.76456ZM213.693 7.38566C213.12 7.38566 212.666 7.50386 212.329 7.74016C211.993 7.97656 211.745 8.33106 211.588 8.80366C211.438 9.27636 211.355 9.87426 211.341 10.5977V10.9521C211.341 11.7256 211.412 12.3809 211.556 12.918C211.706 13.4551 211.953 13.8633 212.297 14.1426C212.648 14.4219 213.128 14.5615 213.736 14.5615C214.238 14.5615 214.649 14.4219 214.972 14.1426C215.294 13.8633 215.534 13.4551 215.691 12.918C215.856 12.3737 215.938 11.7113 215.938 10.9307C215.938 9.75616 215.756 8.87166 215.391 8.27726C215.025 7.68286 214.46 7.38566 213.693 7.38566ZM7.64703 33.8408C7.01003 33.8408 6.44403 33.9661 5.95023 34.2168C5.46323 34.4603 5.05142 34.8148 4.71482 35.2803C4.38542 35.7458 4.13482 36.3079 3.96292 36.9668C3.79102 37.6257 3.70512 38.3669 3.70512 39.1904C3.70512 40.3005 3.84112 41.2493 4.11332 42.0371C4.39262 42.8177 4.82232 43.4157 5.40232 43.8311C5.98242 44.2393 6.73103 44.4434 7.64703 44.4434C8.28503 44.4434 8.92202 44.3717 9.56002 44.2285C10.204 44.0853 10.902 43.8812 11.654 43.6162V46.4092C10.96 46.6956 10.276 46.8997 9.60302 47.0215C8.92902 47.1504 8.17402 47.2148 7.33602 47.2148C5.71742 47.2148 4.38542 46.8818 3.33982 46.2158C2.30142 45.5426 1.53162 44.6045 1.03032 43.4014C0.529019 42.1911 0.27832 40.7803 0.27832 39.1689C0.27832 37.9801 0.439526 36.8916 0.761726 35.9033C1.08403 34.915 1.55663 34.0592 2.17973 33.3359C2.80273 32.6126 3.57263 32.054 4.48933 31.6602C5.40593 31.2663 6.45903 31.0693 7.64703 31.0693C8.42803 31.0693 9.20902 31.1696 9.98902 31.3701C10.777 31.5635 11.529 31.832 12.245 32.1758L11.171 34.8828C10.584 34.6035 9.99303 34.36 9.39803 34.1523C8.80403 33.9447 8.22003 33.8408 7.64703 33.8408ZM25.662 40.9736C25.662 41.9762 25.526 42.8643 25.254 43.6377C24.989 44.4111 24.599 45.0664 24.083 45.6035C23.575 46.1335 22.959 46.5345 22.235 46.8066C21.519 47.0788 20.71 47.2148 19.808 47.2148C18.963 47.2148 18.186 47.0788 17.477 46.8066C16.775 46.5345 16.162 46.1335 15.64 45.6035C15.124 45.0664 14.723 44.4111 14.437 43.6377C14.157 42.8643 14.018 41.9762 14.018 40.9736C14.018 39.6416 14.254 38.5137 14.727 37.5898C15.199 36.666 15.872 35.9642 16.746 35.4844C17.62 35.0046 18.662 34.7646 19.872 34.7646C20.996 34.7646 21.992 35.0046 22.858 35.4844C23.732 35.9642 24.416 36.666 24.91 37.5898C25.411 38.5137 25.662 39.6416 25.662 40.9736ZM17.358 40.9736C17.358 41.7614 17.444 42.4238 17.616 42.9609C17.788 43.498 18.057 43.9027 18.422 44.1748C18.787 44.4469 19.263 44.583 19.851 44.583C20.431 44.583 20.9 44.4469 21.258 44.1748C21.623 43.9027 21.888 43.498 22.053 42.9609C22.225 42.4238 22.311 41.7614 22.311 40.9736C22.311 40.1787 22.225 39.5199 22.053 38.9971C21.888 38.4671 21.623 38.0697 21.258 37.8047C20.893 37.5397 20.416 37.4072 19.829 37.4072C18.963 37.4072 18.332 37.7044 17.938 38.2988C17.552 38.8932 17.358 39.7848 17.358 40.9736ZM39.391 34.9902V47H36.877L36.437 45.4639H36.265C36.007 45.8721 35.685 46.2051 35.298 46.4629C34.911 46.7207 34.485 46.9105 34.02 47.0322C33.554 47.154 33.071 47.2148 32.569 47.2148C31.71 47.2148 30.962 47.0645 30.324 46.7637C29.687 46.4557 29.189 45.9795 28.831 45.335C28.48 44.6904 28.305 43.8525 28.305 42.8213V34.9902H31.581V42.0049C31.581 42.8643 31.735 43.5124 32.043 43.9492C32.351 44.3861 32.841 44.6045 33.515 44.6045C34.181 44.6045 34.703 44.4541 35.083 44.1533C35.463 43.8454 35.728 43.3978 35.878 42.8105C36.035 42.2161 36.114 41.4928 36.114 40.6406V34.9902H39.391ZM49.649 34.7646C50.931 34.7646 51.963 35.1156 52.743 35.8174C53.524 36.512 53.914 37.6292 53.914 39.1689V47H50.638V39.9854C50.638 39.126 50.48 38.4779 50.165 38.041C49.857 37.6042 49.37 37.3857 48.704 37.3857C47.701 37.3857 47.018 37.7259 46.652 38.4062C46.287 39.0866 46.104 40.0677 46.104 41.3496V47H42.828V34.9902H45.331L45.771 36.5264H45.954C46.212 36.111 46.531 35.7744 46.91 35.5166C47.297 35.2588 47.723 35.069 48.188 34.9473C48.661 34.8255 49.148 34.7646 49.649 34.7646ZM65.666 43.4336C65.666 44.25 65.473 44.9411 65.086 45.5068C64.706 46.0654 64.137 46.4915 63.378 46.7852C62.619 47.0716 61.674 47.2148 60.542 47.2148C59.704 47.2148 58.984 47.1611 58.383 47.0537C57.788 46.9463 57.187 46.7673 56.578 46.5166V43.8096C57.23 44.1032 57.928 44.3467 58.673 44.54C59.425 44.7262 60.084 44.8193 60.649 44.8193C61.287 44.8193 61.742 44.7262 62.014 44.54C62.293 44.3467 62.433 44.096 62.433 43.7881C62.433 43.5876 62.375 43.4085 62.261 43.251C62.153 43.0863 61.917 42.9036 61.552 42.7031C61.187 42.4954 60.614 42.2269 59.833 41.8975C59.081 41.5824 58.462 41.2637 57.975 40.9414C57.495 40.6191 57.137 40.2396 56.9 39.8027C56.671 39.3587 56.557 38.7965 56.557 38.1162C56.557 37.0062 56.986 36.1719 57.846 35.6133C58.712 35.0475 59.869 34.7646 61.315 34.7646C62.06 34.7646 62.769 34.8398 63.442 34.9902C64.123 35.1406 64.821 35.3805 65.537 35.71L64.549 38.0732C63.954 37.8154 63.392 37.6042 62.862 37.4395C62.34 37.2747 61.806 37.1924 61.262 37.1924C60.782 37.1924 60.42 37.2568 60.177 37.3857C59.933 37.5146 59.812 37.7116 59.812 37.9766C59.812 38.1699 59.872 38.3418 59.994 38.4922C60.123 38.6426 60.367 38.8109 60.725 38.9971C61.09 39.1761 61.623 39.4089 62.325 39.6953C63.006 39.9746 63.596 40.2682 64.098 40.5762C64.599 40.877 64.986 41.2529 65.258 41.7041C65.53 42.1481 65.666 42.7246 65.666 43.4336ZM73.175 34.7646C74.285 34.7646 75.241 34.9795 76.043 35.4092C76.845 35.8317 77.465 36.4476 77.901 37.2568C78.338 38.0661 78.557 39.0544 78.557 40.2217V41.8115H70.812C70.847 42.7354 71.123 43.4622 71.639 43.9922C72.161 44.515 72.885 44.7764 73.809 44.7764C74.575 44.7764 75.277 44.6976 75.914 44.54C76.551 44.3825 77.207 44.1462 77.88 43.8311V46.3662C77.285 46.6598 76.662 46.8747 76.011 47.0107C75.366 47.1468 74.582 47.2148 73.658 47.2148C72.455 47.2148 71.388 46.9928 70.457 46.5488C69.533 46.1048 68.806 45.4281 68.276 44.5186C67.754 43.609 67.492 42.4632 67.492 41.0811C67.492 39.6774 67.729 38.5101 68.201 37.5791C68.681 36.641 69.347 35.9391 70.199 35.4736C71.051 35.001 72.043 34.7646 73.175 34.7646ZM73.196 37.0957C72.559 37.0957 72.029 37.2998 71.606 37.708C71.191 38.1162 70.951 38.7572 70.887 39.6309H75.484C75.477 39.1439 75.388 38.7106 75.216 38.3311C75.051 37.9515 74.8 37.6507 74.464 37.4287C74.134 37.2067 73.712 37.0957 73.196 37.0957ZM84.497 47H81.221V30.2852H84.497V47ZM91.222 47H87.945V30.2852H91.222V47ZM97.946 34.9902V47H94.67V34.9902H97.946ZM96.313 30.2852C96.8 30.2852 97.219 30.3997 97.57 30.6289C97.921 30.8509 98.097 31.2699 98.097 31.8857C98.097 32.4945 97.921 32.917 97.57 33.1533C97.219 33.3825 96.8 33.4971 96.313 33.4971C95.819 33.4971 95.397 33.3825 95.046 33.1533C94.702 32.917 94.53 32.4945 94.53 31.8857C94.53 31.2699 94.702 30.8509 95.046 30.6289C95.397 30.3997 95.819 30.2852 96.313 30.2852ZM108.216 34.7646C109.498 34.7646 110.529 35.1156 111.31 35.8174C112.09 36.512 112.48 37.6292 112.48 39.1689V47H109.204V39.9854C109.204 39.126 109.047 38.4779 108.731 38.041C108.424 37.6042 107.937 37.3857 107.271 37.3857C106.268 37.3857 105.584 37.7259 105.219 38.4062C104.854 39.0866 104.671 40.0677 104.671 41.3496V47H101.395V34.9902H103.897L104.338 36.5264H104.521C104.778 36.111 105.097 35.7744 105.477 35.5166C105.863 35.2588 106.289 35.069 106.755 34.9473C107.228 34.8255 107.715 34.7646 108.216 34.7646ZM119.366 52.2852C117.69 52.2852 116.409 51.9915 115.521 51.4043C114.64 50.8242 114.199 50.0078 114.199 48.9551C114.199 48.2318 114.425 47.6266 114.876 47.1396C115.327 46.6527 115.99 46.3053 116.863 46.0977C116.527 45.9544 116.233 45.7217 115.982 45.3994C115.732 45.07 115.606 44.7227 115.606 44.3574C115.606 43.8991 115.739 43.5195 116.004 43.2188C116.269 42.9108 116.652 42.61 117.153 42.3164C116.523 42.0443 116.022 41.6074 115.649 41.0059C115.284 40.4043 115.102 39.6953 115.102 38.8789C115.102 38.0052 115.291 37.264 115.671 36.6553C116.058 36.0394 116.616 35.5703 117.347 35.248C118.084 34.9258 118.979 34.7646 120.032 34.7646C120.254 34.7646 120.512 34.779 120.806 34.8076C121.099 34.8363 121.368 34.8685 121.611 34.9043C121.862 34.9401 122.03 34.9688 122.116 34.9902H126.306V36.6553L124.426 37.1387C124.598 37.4036 124.727 37.6865 124.812 37.9873C124.898 38.2881 124.941 38.6068 124.941 38.9434C124.941 40.2324 124.49 41.2386 123.588 41.9619C122.693 42.6781 121.447 43.0361 119.85 43.0361C119.47 43.0146 119.112 42.986 118.775 42.9502C118.611 43.0791 118.485 43.2152 118.399 43.3584C118.313 43.5016 118.271 43.652 118.271 43.8096C118.271 43.9671 118.335 44.0996 118.464 44.207C118.6 44.3073 118.8 44.3861 119.065 44.4434C119.338 44.4935 119.674 44.5186 120.075 44.5186H122.116C123.434 44.5186 124.437 44.8014 125.124 45.3672C125.819 45.9329 126.166 46.7637 126.166 47.8594C126.166 49.263 125.579 50.3516 124.404 51.125C123.237 51.8984 121.558 52.2852 119.366 52.2852ZM119.506 50.1475C120.286 50.1475 120.956 50.0723 121.515 49.9219C122.08 49.7786 122.514 49.571 122.814 49.2988C123.115 49.0339 123.266 48.7152 123.266 48.3428C123.266 48.042 123.176 47.8021 122.997 47.623C122.825 47.4512 122.56 47.3294 122.202 47.2578C121.851 47.1862 121.4 47.1504 120.849 47.1504H119.151C118.75 47.1504 118.389 47.2148 118.066 47.3438C117.751 47.4727 117.501 47.6517 117.314 47.8809C117.128 48.1172 117.035 48.3893 117.035 48.6973C117.035 49.1484 117.25 49.5029 117.68 49.7607C118.117 50.0186 118.725 50.1475 119.506 50.1475ZM120.032 41.0381C120.648 41.0381 121.099 40.8483 121.386 40.4688C121.672 40.0892 121.815 39.5736 121.815 38.9219C121.815 38.1986 121.665 37.6579 121.364 37.2998C121.071 36.9346 120.627 36.752 120.032 36.752C119.431 36.752 118.979 36.9346 118.679 37.2998C118.378 37.6579 118.228 38.1986 118.228 38.9219C118.228 39.5736 118.374 40.0892 118.668 40.4688C118.969 40.8483 119.424 41.0381 120.032 41.0381Z" fill="#656C73"/>
</svg>
