<svg width="179" height="53" viewBox="0 0 179 53" fill="none" xmlns="http://www.w3.org/2000/svg">
<path d="M5.99316 1.29486C8.01996 1.29486 9.49896 1.73176 10.43 2.60546C11.361 3.47196 11.826 4.66796 11.826 6.19336C11.826 6.88086 11.722 7.53966 11.515 8.16986C11.307 8.79296 10.967 9.34796 10.494 9.83496C10.029 10.3219 9.40596 10.7087 8.62496 10.9951C7.84396 11.2744 6.88096 11.4141 5.73536 11.4141H4.30656V17H0.976562V1.29486H5.99316ZM5.82126 4.02336H4.30656V8.68546H5.40226C6.02496 8.68546 6.56596 8.60316 7.02396 8.43846C7.48296 8.27376 7.83696 8.01596 8.08796 7.66496C8.33896 7.31406 8.46396 6.86296 8.46396 6.31146C8.46396 5.53806 8.24896 4.96516 7.81896 4.59276C7.38996 4.21316 6.72396 4.02336 5.82126 4.02336ZM21.236 4.76456C21.401 4.76456 21.591 4.77536 21.806 4.79686C22.028 4.81116 22.207 4.83266 22.343 4.86126L22.096 7.93356C21.988 7.89776 21.834 7.87266 21.634 7.85836C21.44 7.83686 21.272 7.82616 21.129 7.82616C20.706 7.82616 20.295 7.87986 19.894 7.98726C19.5 8.09466 19.145 8.27016 18.83 8.51366C18.515 8.74996 18.264 9.06506 18.078 9.45896C17.899 9.84566 17.81 10.3219 17.81 10.8877V17H14.533V4.99016H17.015L17.498 7.00976H17.659C17.896 6.60156 18.189 6.22916 18.54 5.89256C18.898 5.54876 19.303 5.27666 19.754 5.07616C20.212 4.86846 20.706 4.76456 21.236 4.76456ZM29.443 4.74316C31.055 4.74316 32.29 5.09406 33.149 5.79586C34.009 6.49766 34.438 7.56476 34.438 8.99706V17H32.15L31.517 15.3672H31.431C31.087 15.7969 30.736 16.1478 30.378 16.4199C30.02 16.6921 29.608 16.8926 29.143 17.0215C28.677 17.1504 28.111 17.2148 27.445 17.2148C26.736 17.2148 26.099 17.0788 25.533 16.8066C24.975 16.5345 24.534 16.1191 24.212 15.5605C23.89 14.9948 23.729 14.2786 23.729 13.4121C23.729 12.1374 24.176 11.1992 25.071 10.5977C25.966 9.98886 27.309 9.65226 29.1 9.58786L31.184 9.52336V8.99706C31.184 8.36686 31.019 7.90486 30.689 7.61126C30.36 7.31766 29.902 7.17086 29.314 7.17086C28.734 7.17086 28.165 7.25326 27.606 7.41796C27.048 7.58266 26.489 7.79036 25.931 8.04096L24.846 5.82806C25.483 5.49146 26.196 5.22656 26.983 5.03316C27.778 4.83976 28.598 4.74316 29.443 4.74316ZM31.184 11.4355L29.916 11.4785C28.856 11.5072 28.118 11.6969 27.703 12.0479C27.295 12.3988 27.091 12.8607 27.091 13.4336C27.091 13.9349 27.238 14.293 27.531 14.5078C27.825 14.7155 28.208 14.8193 28.681 14.8193C29.382 14.8193 29.973 14.6117 30.453 14.1963C30.94 13.7809 31.184 13.1901 31.184 12.4238V11.4355ZM42.699 17.2148C41.51 17.2148 40.497 17 39.659 16.5703C38.821 16.1335 38.184 15.4603 37.747 14.5508C37.31 13.6413 37.092 12.4775 37.092 11.0596C37.092 9.59146 37.339 8.39546 37.833 7.47166C38.334 6.54066 39.025 5.85676 39.906 5.41986C40.794 4.98306 41.822 4.76456 42.989 4.76456C43.82 4.76456 44.536 4.84696 45.138 5.01166C45.746 5.16926 46.276 5.35896 46.728 5.58106L45.761 8.11616C45.245 7.90846 44.765 7.74016 44.321 7.61126C43.877 7.47526 43.433 7.40716 42.989 7.40716C42.416 7.40716 41.94 7.54326 41.561 7.81536C41.181 8.08036 40.898 8.48136 40.712 9.01856C40.526 9.55566 40.433 10.2288 40.433 11.0381C40.433 11.833 40.533 12.4919 40.733 13.0146C40.934 13.5374 41.224 13.9277 41.604 14.1855C41.983 14.4362 42.445 14.5615 42.989 14.5615C43.67 14.5615 44.275 14.472 44.805 14.293C45.335 14.1068 45.85 13.849 46.352 13.5195V16.3232C45.85 16.6383 45.324 16.8639 44.772 17C44.228 17.1432 43.537 17.2148 42.699 17.2148ZM54.204 14.6045C54.562 14.6045 54.91 14.5687 55.246 14.4971C55.59 14.4255 55.93 14.3359 56.267 14.2285V16.667C55.916 16.8245 55.479 16.9535 54.956 17.0537C54.44 17.1611 53.875 17.2148 53.259 17.2148C52.543 17.2148 51.898 17.1003 51.325 16.8711C50.759 16.6348 50.312 16.2301 49.982 15.6572C49.66 15.0771 49.499 14.2715 49.499 13.2402V7.45016H47.931V6.06446L49.735 4.96876L50.681 2.43356H52.775V4.99016H56.138V7.45016H52.775V13.2402C52.775 13.6986 52.904 14.0423 53.162 14.2715C53.427 14.4935 53.774 14.6045 54.204 14.6045ZM61.981 4.99016V17H58.705V4.99016H61.981ZM60.349 0.285156C60.836 0.285156 61.255 0.399656 61.605 0.628856C61.956 0.850856 62.132 1.26986 62.132 1.88566C62.132 2.49446 61.956 2.91696 61.605 3.15326C61.255 3.38246 60.836 3.49706 60.349 3.49706C59.854 3.49706 59.432 3.38246 59.081 3.15326C58.737 2.91696 58.565 2.49446 58.565 1.88566C58.565 1.26986 58.737 0.850856 59.081 0.628856C59.432 0.399656 59.854 0.285156 60.349 0.285156ZM70.307 17.2148C69.118 17.2148 68.104 17 67.267 16.5703C66.429 16.1335 65.791 15.4603 65.354 14.5508C64.918 13.6413 64.699 12.4775 64.699 11.0596C64.699 9.59146 64.946 8.39546 65.44 7.47166C65.942 6.54066 66.633 5.85676 67.514 5.41986C68.402 4.98306 69.429 4.76456 70.597 4.76456C71.427 4.76456 72.144 4.84696 72.745 5.01166C73.354 5.16926 73.884 5.35896 74.335 5.58106L73.368 8.11616C72.853 7.90846 72.373 7.74016 71.929 7.61126C71.485 7.47526 71.041 7.40716 70.597 7.40716C70.024 7.40716 69.548 7.54326 69.168 7.81536C68.788 8.08036 68.506 8.48136 68.319 9.01856C68.133 9.55566 68.04 10.2288 68.04 11.0381C68.04 11.833 68.14 12.4919 68.341 13.0146C68.541 13.5374 68.831 13.9277 69.211 14.1855C69.59 14.4362 70.052 14.5615 70.597 14.5615C71.277 14.5615 71.882 14.472 72.412 14.293C72.942 14.1068 73.458 13.849 73.959 13.5195V16.3232C73.458 16.6383 72.931 16.8639 72.38 17C71.836 17.1432 71.145 17.2148 70.307 17.2148ZM81.672 4.74316C83.283 4.74316 84.519 5.09406 85.378 5.79586C86.237 6.49766 86.667 7.56476 86.667 8.99706V17H84.379L83.745 15.3672H83.659C83.315 15.7969 82.965 16.1478 82.606 16.4199C82.248 16.6921 81.837 16.8926 81.371 17.0215C80.906 17.1504 80.34 17.2148 79.674 17.2148C78.965 17.2148 78.327 17.0788 77.762 16.8066C77.203 16.5345 76.763 16.1191 76.44 15.5605C76.118 14.9948 75.957 14.2786 75.957 13.4121C75.957 12.1374 76.405 11.1992 77.3 10.5977C78.195 9.98886 79.538 9.65226 81.328 9.58786L83.412 9.52336V8.99706C83.412 8.36686 83.247 7.90486 82.918 7.61126C82.589 7.31766 82.13 7.17086 81.543 7.17086C80.963 7.17086 80.394 7.25326 79.835 7.41796C79.276 7.58266 78.718 7.79036 78.159 8.04096L77.074 5.82806C77.712 5.49146 78.424 5.22656 79.212 5.03316C80.007 4.83976 80.827 4.74316 81.672 4.74316ZM83.412 11.4355L82.145 11.4785C81.085 11.5072 80.347 11.6969 79.932 12.0479C79.523 12.3988 79.319 12.8607 79.319 13.4336C79.319 13.9349 79.466 14.293 79.76 14.5078C80.053 14.7155 80.437 14.8193 80.909 14.8193C81.611 14.8193 82.202 14.6117 82.682 14.1963C83.169 13.7809 83.412 13.1901 83.412 12.4238V11.4355ZM93.327 17H90.051V0.285156H93.327V17ZM107.765 1.29486C109.791 1.29486 111.27 1.73176 112.201 2.60546C113.132 3.47196 113.598 4.66796 113.598 6.19336C113.598 6.88086 113.494 7.53966 113.286 8.16986C113.078 8.79296 112.738 9.34796 112.266 9.83496C111.8 10.3219 111.177 10.7087 110.396 10.9951C109.616 11.2744 108.653 11.4141 107.507 11.4141H106.078V17H102.748V1.29486H107.765ZM107.593 4.02336H106.078V8.68546H107.174C107.797 8.68546 108.338 8.60316 108.796 8.43846C109.254 8.27376 109.609 8.01596 109.859 7.66496C110.11 7.31406 110.235 6.86296 110.235 6.31146C110.235 5.53806 110.021 4.96516 109.591 4.59276C109.161 4.21316 108.495 4.02336 107.593 4.02336ZM123.008 4.76456C123.173 4.76456 123.362 4.77536 123.577 4.79686C123.799 4.81116 123.978 4.83266 124.114 4.86126L123.867 7.93356C123.76 7.89776 123.606 7.87266 123.405 7.85836C123.212 7.83686 123.044 7.82616 122.9 7.82616C122.478 7.82616 122.066 7.87986 121.665 7.98726C121.271 8.09466 120.917 8.27016 120.602 8.51366C120.286 8.74996 120.036 9.06506 119.85 9.45896C119.671 9.84566 119.581 10.3219 119.581 10.8877V17H116.305V4.99016H118.786L119.27 7.00976H119.431C119.667 6.60156 119.961 6.22916 120.312 5.89256C120.67 5.54876 121.074 5.27666 121.525 5.07616C121.984 4.86846 122.478 4.76456 123.008 4.76456ZM137.209 10.9736C137.209 11.9762 137.073 12.8643 136.801 13.6377C136.536 14.4111 136.146 15.0664 135.63 15.6035C135.121 16.1335 134.506 16.5345 133.782 16.8066C133.066 17.0788 132.257 17.2148 131.354 17.2148C130.509 17.2148 129.732 17.0788 129.023 16.8066C128.322 16.5345 127.709 16.1335 127.187 15.6035C126.671 15.0664 126.27 14.4111 125.983 13.6377C125.704 12.8643 125.564 11.9762 125.564 10.9736C125.564 9.64156 125.801 8.51366 126.273 7.58976C126.746 6.66596 127.419 5.96416 128.293 5.48436C129.167 5.00456 130.209 4.76456 131.419 4.76456C132.543 4.76456 133.539 5.00456 134.405 5.48436C135.279 5.96416 135.963 6.66596 136.457 7.58976C136.958 8.51366 137.209 9.64156 137.209 10.9736ZM128.905 10.9736C128.905 11.7614 128.991 12.4238 129.163 12.9609C129.335 13.498 129.604 13.9027 129.969 14.1748C130.334 14.4469 130.81 14.583 131.397 14.583C131.978 14.583 132.447 14.4469 132.805 14.1748C133.17 13.9027 133.435 13.498 133.6 12.9609C133.771 12.4238 133.857 11.7614 133.857 10.9736C133.857 10.1787 133.771 9.51986 133.6 8.99706C133.435 8.46706 133.17 8.06966 132.805 7.80466C132.439 7.53966 131.963 7.40716 131.376 7.40716C130.509 7.40716 129.879 7.70436 129.485 8.29876C129.099 8.89316 128.905 9.78476 128.905 10.9736ZM138.949 22.2852C138.577 22.2852 138.19 22.2565 137.789 22.1992C137.388 22.1491 137.055 22.0882 136.79 22.0166V19.4385C137.055 19.5101 137.306 19.5602 137.542 19.5889C137.771 19.6247 138.033 19.6426 138.326 19.6426C138.77 19.6426 139.146 19.5173 139.454 19.2666C139.762 19.0231 139.916 18.5397 139.916 17.8164V4.99016H143.192V18.2998C143.192 19.0303 143.053 19.6963 142.773 20.2979C142.494 20.9066 142.043 21.39 141.42 21.748C140.797 22.1061 139.973 22.2852 138.949 22.2852ZM139.776 1.88566C139.776 1.26986 139.948 0.850856 140.292 0.628856C140.643 0.399656 141.065 0.285156 141.56 0.285156C142.047 0.285156 142.465 0.399656 142.816 0.628856C143.167 0.850856 143.343 1.26986 143.343 1.88566C143.343 2.49446 143.167 2.91696 142.816 3.15326C142.465 3.38246 142.047 3.49706 141.56 3.49706C141.065 3.49706 140.643 3.38246 140.292 3.15326C139.948 2.91696 139.776 2.49446 139.776 1.88566ZM151.593 4.76456C152.703 4.76456 153.659 4.97946 154.461 5.40916C155.263 5.83166 155.882 6.44756 156.319 7.25676C156.756 8.06606 156.975 9.05436 156.975 10.2217V11.8115H149.229C149.265 12.7354 149.541 13.4622 150.057 13.9922C150.579 14.515 151.303 14.7764 152.227 14.7764C152.993 14.7764 153.695 14.6976 154.332 14.54C154.969 14.3825 155.625 14.1462 156.298 13.8311V16.3662C155.703 16.6598 155.08 16.8747 154.429 17.0107C153.784 17.1468 153 17.2148 152.076 17.2148C150.873 17.2148 149.806 16.9928 148.875 16.5488C147.951 16.1048 147.224 15.4281 146.694 14.5186C146.172 13.609 145.91 12.4632 145.91 11.0811C145.91 9.67736 146.146 8.51006 146.619 7.57906C147.099 6.64096 147.765 5.93906 148.617 5.47356C149.469 5.00096 150.461 4.76456 151.593 4.76456ZM151.614 7.09566C150.977 7.09566 150.447 7.29976 150.024 7.70796C149.609 8.11616 149.369 8.75716 149.305 9.63086H153.902C153.895 9.14386 153.806 8.71056 153.634 8.33106C153.469 7.95146 153.218 7.65066 152.882 7.42866C152.552 7.20666 152.13 7.09566 151.614 7.09566ZM164.516 17.2148C163.327 17.2148 162.313 17 161.476 16.5703C160.638 16.1335 160 15.4603 159.563 14.5508C159.127 13.6413 158.908 12.4775 158.908 11.0596C158.908 9.59146 159.155 8.39546 159.649 7.47166C160.151 6.54066 160.842 5.85676 161.723 5.41986C162.611 4.98306 163.638 4.76456 164.806 4.76456C165.636 4.76456 166.353 4.84696 166.954 5.01166C167.563 5.16926 168.093 5.35896 168.544 5.58106L167.577 8.11616C167.062 7.90846 166.582 7.74016 166.138 7.61126C165.694 7.47526 165.25 7.40716 164.806 7.40716C164.233 7.40716 163.757 7.54326 163.377 7.81536C162.997 8.08036 162.715 8.48136 162.528 9.01856C162.342 9.55566 162.249 10.2288 162.249 11.0381C162.249 11.833 162.349 12.4919 162.55 13.0146C162.75 13.5374 163.04 13.9277 163.42 14.1855C163.799 14.4362 164.261 14.5615 164.806 14.5615C165.486 14.5615 166.091 14.472 166.621 14.293C167.151 14.1068 167.667 13.849 168.168 13.5195V16.3232C167.667 16.6383 167.14 16.8639 166.589 17C166.045 17.1432 165.354 17.2148 164.516 17.2148ZM176.021 14.6045C176.379 14.6045 176.726 14.5687 177.062 14.4971C177.406 14.4255 177.746 14.3359 178.083 14.2285V16.667C177.732 16.8245 177.295 16.9535 176.772 17.0537C176.257 17.1611 175.691 17.2148 175.075 17.2148C174.359 17.2148 173.715 17.1003 173.142 16.8711C172.576 16.6348 172.128 16.2301 171.799 15.6572C171.477 15.0771 171.315 14.2715 171.315 13.2402V7.45016H169.747V6.06446L171.552 4.96876L172.497 2.43356H174.592V4.99016H177.954V7.45016H174.592V13.2402C174.592 13.6986 174.721 14.0423 174.979 14.2715C175.243 14.4935 175.591 14.6045 176.021 14.6045ZM0.976562 47V31.2949H4.30656V47H0.976562ZM22.106 34.7646C23.467 34.7646 24.495 35.1156 25.189 35.8174C25.891 36.512 26.242 37.6292 26.242 39.1689V47H22.955V39.9854C22.955 39.126 22.808 38.4779 22.515 38.041C22.221 37.6042 21.766 37.3857 21.15 37.3857C20.284 37.3857 19.668 37.6973 19.303 38.3203C18.938 38.9362 18.755 39.8206 18.755 40.9736V47H15.479V39.9854C15.479 39.4124 15.414 38.9326 15.285 38.5459C15.156 38.1592 14.959 37.8691 14.694 37.6758C14.429 37.4824 14.089 37.3857 13.674 37.3857C13.065 37.3857 12.585 37.5397 12.234 37.8477C11.891 38.1484 11.644 38.596 11.493 39.1904C11.35 39.7777 11.278 40.4974 11.278 41.3496V47H8.00196V34.9902H10.505L10.945 36.5264H11.128C11.371 36.111 11.676 35.7744 12.041 35.5166C12.413 35.2588 12.822 35.069 13.266 34.9473C13.71 34.8255 14.161 34.7646 14.619 34.7646C15.5 34.7646 16.245 34.9079 16.854 35.1943C17.469 35.4808 17.942 35.9248 18.271 36.5264H18.562C18.92 35.9105 19.424 35.4629 20.076 35.1836C20.735 34.9043 21.412 34.7646 22.106 34.7646ZM36.297 34.7646C37.65 34.7646 38.743 35.291 39.573 36.3438C40.411 37.3965 40.83 38.9398 40.83 40.9736C40.83 42.3343 40.633 43.4801 40.239 44.4111C39.845 45.335 39.301 46.0332 38.606 46.5059C37.912 46.9785 37.113 47.2148 36.211 47.2148C35.631 47.2148 35.133 47.1432 34.718 47C34.302 46.8496 33.948 46.6598 33.654 46.4307C33.361 46.1943 33.106 45.9437 32.892 45.6787H32.72C32.777 45.9652 32.82 46.2588 32.849 46.5596C32.877 46.8604 32.892 47.154 32.892 47.4404V52.2852H29.615V34.9902H32.279L32.741 36.5479H32.892C33.106 36.2256 33.368 35.9284 33.676 35.6562C33.984 35.3841 34.353 35.1693 34.782 35.0117C35.219 34.847 35.724 34.7646 36.297 34.7646ZM35.244 37.3857C34.671 37.3857 34.216 37.5039 33.88 37.7402C33.543 37.9766 33.296 38.3311 33.139 38.8037C32.988 39.2764 32.906 39.8743 32.892 40.5977V40.9521C32.892 41.7256 32.963 42.3809 33.106 42.918C33.257 43.4551 33.504 43.8633 33.848 44.1426C34.199 44.4219 34.678 44.5615 35.287 44.5615C35.788 44.5615 36.2 44.4219 36.522 44.1426C36.845 43.8633 37.085 43.4551 37.242 42.918C37.407 42.3737 37.489 41.7113 37.489 40.9307C37.489 39.7562 37.307 38.8717 36.941 38.2773C36.576 37.6829 36.01 37.3857 35.244 37.3857ZM46.813 47H43.537V30.2852H46.813V47ZM55.214 34.7646C56.324 34.7646 57.28 34.9795 58.082 35.4092C58.884 35.8317 59.504 36.4476 59.94 37.2568C60.377 38.0661 60.596 39.0544 60.596 40.2217V41.8115H52.851C52.886 42.7354 53.162 43.4622 53.678 43.9922C54.201 44.515 54.924 44.7764 55.848 44.7764C56.614 44.7764 57.316 44.6976 57.953 44.54C58.59 44.3825 59.246 44.1462 59.919 43.8311V46.3662C59.325 46.6598 58.701 46.8747 58.05 47.0107C57.405 47.1468 56.621 47.2148 55.697 47.2148C54.494 47.2148 53.427 46.9928 52.496 46.5488C51.572 46.1048 50.845 45.4281 50.315 44.5186C49.793 43.609 49.531 42.4632 49.531 41.0811C49.531 39.6774 49.768 38.5101 50.24 37.5791C50.72 36.641 51.386 35.9391 52.238 35.4736C53.09 35.001 54.082 34.7646 55.214 34.7646ZM55.235 37.0957C54.598 37.0957 54.068 37.2998 53.646 37.708C53.23 38.1162 52.99 38.7572 52.926 39.6309H57.523C57.516 39.1439 57.427 38.7106 57.255 38.3311C57.09 37.9515 56.84 37.6507 56.503 37.4287C56.174 37.2067 55.751 37.0957 55.235 37.0957ZM77.364 34.7646C78.725 34.7646 79.753 35.1156 80.447 35.8174C81.149 36.512 81.5 37.6292 81.5 39.1689V47H78.213V39.9854C78.213 39.126 78.066 38.4779 77.772 38.041C77.479 37.6042 77.024 37.3857 76.408 37.3857C75.542 37.3857 74.926 37.6973 74.561 38.3203C74.195 38.9362 74.013 39.8206 74.013 40.9736V47H70.736V39.9854C70.736 39.4124 70.672 38.9326 70.543 38.5459C70.414 38.1592 70.217 37.8691 69.952 37.6758C69.687 37.4824 69.347 37.3857 68.932 37.3857C68.323 37.3857 67.843 37.5397 67.492 37.8477C67.148 38.1484 66.901 38.596 66.751 39.1904C66.608 39.7777 66.536 40.4974 66.536 41.3496V47H63.26V34.9902H65.763L66.203 36.5264H66.386C66.629 36.111 66.934 35.7744 67.299 35.5166C67.671 35.2588 68.079 35.069 68.523 34.9473C68.967 34.8255 69.419 34.7646 69.877 34.7646C70.758 34.7646 71.503 34.9079 72.111 35.1943C72.727 35.4808 73.2 35.9248 73.529 36.5264H73.819C74.177 35.9105 74.682 35.4629 75.334 35.1836C75.993 34.9043 76.67 34.7646 77.364 34.7646ZM89.825 34.7646C90.935 34.7646 91.891 34.9795 92.693 35.4092C93.495 35.8317 94.115 36.4476 94.552 37.2568C94.989 38.0661 95.207 39.0544 95.207 40.2217V41.8115H87.462C87.498 42.7354 87.773 43.4622 88.289 43.9922C88.812 44.515 89.535 44.7764 90.459 44.7764C91.225 44.7764 91.927 44.6976 92.564 44.54C93.202 44.3825 93.857 44.1462 94.53 43.8311V46.3662C93.936 46.6598 93.313 46.8747 92.661 47.0107C92.017 47.1468 91.232 47.2148 90.309 47.2148C89.105 47.2148 88.038 46.9928 87.107 46.5488C86.184 46.1048 85.457 45.4281 84.927 44.5186C84.404 43.609 84.143 42.4632 84.143 41.0811C84.143 39.6774 84.379 38.5101 84.852 37.5791C85.331 36.641 85.997 35.9391 86.85 35.4736C87.702 35.001 88.694 34.7646 89.825 34.7646ZM89.847 37.0957C89.209 37.0957 88.679 37.2998 88.257 37.708C87.841 38.1162 87.602 38.7572 87.537 39.6309H92.135C92.128 39.1439 92.038 38.7106 91.866 38.3311C91.701 37.9515 91.451 37.6507 91.114 37.4287C90.785 37.2067 90.362 37.0957 89.847 37.0957ZM104.692 34.7646C105.974 34.7646 107.006 35.1156 107.786 35.8174C108.567 36.512 108.957 37.6292 108.957 39.1689V47H105.681V39.9854C105.681 39.126 105.523 38.4779 105.208 38.041C104.9 37.6042 104.413 37.3857 103.747 37.3857C102.744 37.3857 102.061 37.7259 101.695 38.4062C101.33 39.0866 101.147 40.0677 101.147 41.3496V47H97.871V34.9902H100.374L100.814 36.5264H100.997C101.255 36.111 101.574 35.7744 101.953 35.5166C102.34 35.2588 102.766 35.069 103.231 34.9473C103.704 34.8255 104.191 34.7646 104.692 34.7646ZM117.39 44.6045C117.748 44.6045 118.095 44.5687 118.432 44.4971C118.775 44.4255 119.116 44.3359 119.452 44.2285V46.667C119.101 46.8245 118.664 46.9535 118.142 47.0537C117.626 47.1611 117.06 47.2148 116.444 47.2148C115.728 47.2148 115.084 47.1003 114.511 46.8711C113.945 46.6348 113.497 46.2301 113.168 45.6572C112.846 45.0771 112.685 44.2715 112.685 43.2402V37.4502H111.116V36.0645L112.921 34.9688L113.866 32.4336H115.961V34.9902H119.323V37.4502H115.961V43.2402C115.961 43.6986 116.09 44.0423 116.348 44.2715C116.613 44.4935 116.96 44.6045 117.39 44.6045ZM126.811 34.7432C128.422 34.7432 129.657 35.0941 130.517 35.7959C131.376 36.4977 131.806 37.5648 131.806 38.9971V47H129.518L128.884 45.3672H128.798C128.454 45.7969 128.103 46.1478 127.745 46.4199C127.387 46.6921 126.975 46.8926 126.51 47.0215C126.044 47.1504 125.479 47.2148 124.812 47.2148C124.104 47.2148 123.466 47.0788 122.9 46.8066C122.342 46.5345 121.901 46.1191 121.579 45.5605C121.257 44.9948 121.096 44.2786 121.096 43.4121C121.096 42.1374 121.543 41.1992 122.438 40.5977C123.334 39.9889 124.676 39.6523 126.467 39.5879L128.551 39.5234V38.9971C128.551 38.3669 128.386 37.9049 128.057 37.6113C127.727 37.3177 127.269 37.1709 126.682 37.1709C126.102 37.1709 125.532 37.2533 124.974 37.418C124.415 37.5827 123.856 37.7904 123.298 38.041L122.213 35.8281C122.85 35.4915 123.563 35.2266 124.351 35.0332C125.146 34.8398 125.965 34.7432 126.811 34.7432ZM128.551 41.4355L127.283 41.4785C126.223 41.5072 125.486 41.6969 125.07 42.0479C124.662 42.3988 124.458 42.8607 124.458 43.4336C124.458 43.9349 124.605 44.293 124.898 44.5078C125.192 44.7155 125.575 44.8193 126.048 44.8193C126.75 44.8193 127.34 44.6117 127.82 44.1963C128.307 43.7809 128.551 43.1901 128.551 42.4238V41.4355ZM140.249 44.6045C140.607 44.6045 140.954 44.5687 141.291 44.4971C141.635 44.4255 141.975 44.3359 142.312 44.2285V46.667C141.961 46.8245 141.524 46.9535 141.001 47.0537C140.485 47.1611 139.92 47.2148 139.304 47.2148C138.588 47.2148 137.943 47.1003 137.37 46.8711C136.804 46.6348 136.357 46.2301 136.027 45.6572C135.705 45.0771 135.544 44.2715 135.544 43.2402V37.4502H133.976V36.0645L135.78 34.9688L136.726 32.4336H138.82V34.9902H142.183V37.4502H138.82V43.2402C138.82 43.6986 138.949 44.0423 139.207 44.2715C139.472 44.4935 139.819 44.6045 140.249 44.6045ZM148.026 34.9902V47H144.75V34.9902H148.026ZM146.394 30.2852C146.881 30.2852 147.299 30.3997 147.65 30.6289C148.001 30.8509 148.177 31.2699 148.177 31.8857C148.177 32.4945 148.001 32.917 147.65 33.1533C147.299 33.3825 146.881 33.4971 146.394 33.4971C145.899 33.4971 145.477 33.3825 145.126 33.1533C144.782 32.917 144.61 32.4945 144.61 31.8857C144.61 31.2699 144.782 30.8509 145.126 30.6289C145.477 30.3997 145.899 30.2852 146.394 30.2852ZM162.389 40.9736C162.389 41.9762 162.253 42.8643 161.98 43.6377C161.715 44.4111 161.325 45.0664 160.81 45.6035C160.301 46.1335 159.685 46.5345 158.962 46.8066C158.246 47.0788 157.437 47.2148 156.534 47.2148C155.689 47.2148 154.912 47.0788 154.203 46.8066C153.501 46.5345 152.889 46.1335 152.366 45.6035C151.851 45.0664 151.45 44.4111 151.163 43.6377C150.884 42.8643 150.744 41.9762 150.744 40.9736C150.744 39.6416 150.98 38.5137 151.453 37.5898C151.926 36.666 152.599 35.9642 153.473 35.4844C154.346 35.0046 155.388 34.7646 156.599 34.7646C157.723 34.7646 158.718 35.0046 159.585 35.4844C160.459 35.9642 161.143 36.666 161.637 37.5898C162.138 38.5137 162.389 39.6416 162.389 40.9736ZM154.085 40.9736C154.085 41.7614 154.171 42.4238 154.343 42.9609C154.515 43.498 154.783 43.9027 155.148 44.1748C155.514 44.4469 155.99 44.583 156.577 44.583C157.157 44.583 157.626 44.4469 157.984 44.1748C158.35 43.9027 158.615 43.498 158.779 42.9609C158.951 42.4238 159.037 41.7614 159.037 40.9736C159.037 40.1787 158.951 39.5199 158.779 38.9971C158.615 38.4671 158.35 38.0697 157.984 37.8047C157.619 37.5397 157.143 37.4072 156.556 37.4072C155.689 37.4072 155.059 37.7044 154.665 38.2988C154.278 38.8932 154.085 39.7848 154.085 40.9736ZM171.917 34.7646C173.199 34.7646 174.23 35.1156 175.011 35.8174C175.791 36.512 176.182 37.6292 176.182 39.1689V47H172.905V39.9854C172.905 39.126 172.748 38.4779 172.433 38.041C172.125 37.6042 171.638 37.3857 170.972 37.3857C169.969 37.3857 169.285 37.7259 168.92 38.4062C168.555 39.0866 168.372 40.0677 168.372 41.3496V47H165.096V34.9902H167.599L168.039 36.5264H168.222C168.479 36.111 168.798 35.7744 169.178 35.5166C169.564 35.2588 169.991 35.069 170.456 34.9473C170.929 34.8255 171.416 34.7646 171.917 34.7646Z" fill="#656C73"/>
</svg>
