<svg width="40" height="40" viewBox="0 0 40 40" fill="none" xmlns="http://www.w3.org/2000/svg">
<path d="M20 0C8.954 0 0 8.954 0 20C0 31.046 8.954 40 20 40C31.046 40 40 31.046 40 20C40 8.954 31.046 0 20 0Z" fill="black"/>
<path d="M22.7071 25.3009H27.8831L28.6961 20.0429H22.7071V17.1689C22.7071 14.9849 23.4211 13.0479 25.4641 13.0479H28.7471V8.45991C28.1701 8.38191 26.9501 8.21191 24.6451 8.21191C19.8311 8.21191 17.0091 10.7539 17.0091 16.5459V20.0439H12.0601V25.3019H17.0081V39.7539C17.9881 39.8999 18.9811 39.9999 20.0001 39.9999C20.9211 39.9999 21.8201 39.9159 22.7071 39.7959V25.3009Z" fill="white"/>
</svg>
