<svg width="309" height="74" viewBox="0 0 309 74" fill="none" xmlns="http://www.w3.org/2000/svg">
<circle cx="37" cy="37" r="37" fill="#D9D9D9"/>
<path d="M36.5 13C35.3432 13 34.1937 13.3877 33.2035 14.0966L30.1383 16.2308L26.6067 16.6923H26.5494L26.492 16.7495C25.3337 17.0104 24.2733 17.5934 23.4337 18.4309C22.5941 19.2683 22.0096 20.326 21.748 21.4812L21.6925 21.5385V21.5957L21.2298 25.1735L19.0901 27.9428L19.0308 28V28.0572C17.737 30.1194 17.6797 32.7815 19.0901 34.7495L21.2871 37.8068L21.8665 40.9822L15.9083 50.0375L14 52.8658H22.8493L24.989 57.8265L26.3198 61L28.2282 58.1145L34.0697 49.3452C35.6393 49.9877 37.4107 50.0468 38.9303 49.3452L44.7718 58.1145L46.6802 61L48.011 57.8265L50.1507 52.8658H59L57.0917 50.0375L51.3075 41.2702L51.7702 37.8086L53.9099 34.7514L53.9692 34.6942V34.6369C55.263 32.5748 55.3203 29.9698 53.9099 28.0018L51.7702 24.9428L51.0761 21.4812H51.1335C51.1261 21.4369 51.0835 21.4074 51.0761 21.3649C50.743 18.9502 48.8272 16.9895 46.3914 16.6923H46.3322L42.8617 16.2308L39.7965 14.0966C38.8392 13.3971 37.6866 13.0137 36.5 13ZM36.5 16.7495C36.9257 16.7495 37.3459 16.8788 37.6568 17.0966L40.9534 19.4615L41.3587 19.7495L41.8214 19.8086L45.8713 20.3846H45.9268C46.7598 20.4769 47.3372 21.0548 47.4316 21.8855V22L48.185 26.0966L48.2405 26.5009L48.5311 26.8462L50.9021 30.1342C51.3445 30.7471 51.4019 31.7865 50.8448 32.6726L48.2424 36.3077L48.1831 36.7692L47.6056 40.8086V40.864C47.5748 41.1525 47.4759 41.4296 47.3169 41.6726L47.2003 41.7317V41.7871C46.9252 42.1166 46.5307 42.3243 46.1027 42.3649H45.9861L41.7641 43.1163L41.3013 43.1717L40.9534 43.4615L37.6568 45.8265C37.0423 46.2677 35.9429 46.3249 35.0544 45.7692L32.0466 43.4615L31.6987 43.1735L31.1786 43.1145L27.1287 42.5385H27.0732C26.8115 42.5154 26.5591 42.4299 26.3375 42.2892C26.1159 42.1485 25.9314 41.9566 25.7997 41.7298C25.6767 41.5169 25.598 41.2815 25.5684 41.0375V40.9231L24.8169 36.712L24.7577 36.2505L24.4689 35.9034L22.0979 32.6154C21.6555 32.0025 21.5981 30.9058 22.1552 30.0197L24.4689 27.0197L24.7577 26.6726L24.815 26.1538L25.337 22.288C25.3444 22.2603 25.387 22.2603 25.3944 22.2308C25.5098 21.7864 25.7422 21.3808 26.0677 21.0562C26.3932 20.7316 26.7997 20.4997 27.2453 20.3846C27.2749 20.3772 27.2749 20.3348 27.3027 20.3274L31.1786 19.8068L31.6413 19.7514L32.0466 19.4615L35.3432 17.0966C35.6541 16.8806 36.0743 16.7495 36.5 16.7495ZM49.2826 44.8462L52.1182 49.1735H47.6612L47.1984 50.3274L45.9268 53.2683L41.9936 47.2683L42.8598 46.6351L46.5062 46V46.0572C46.5487 46.0498 46.5765 46.0074 46.6209 46C47.5951 45.8598 48.5137 45.4613 49.2807 44.8462H49.2826ZM23.7174 44.9034C24.5211 45.6322 25.5308 46.0958 26.6086 46.2308H26.666L30.1957 46.6923L31.0046 47.3274L27.0713 53.2683L25.7997 50.3274L25.337 49.1735H20.8836L23.7174 44.9034Z" fill="#656C73"/>
<path d="M101.647 18.8408C101.01 18.8408 100.444 18.9661 99.9502 19.2168C99.4632 19.4603 99.0514 19.8148 98.7148 20.2803C98.3854 20.7458 98.1348 21.3079 97.9629 21.9668C97.791 22.6257 97.7051 23.3669 97.7051 24.1904C97.7051 25.3005 97.8411 26.2493 98.1133 27.0371C98.3926 27.8177 98.8223 28.4157 99.4023 28.8311C99.9824 29.2393 100.731 29.4434 101.647 29.4434C102.285 29.4434 102.922 29.3717 103.56 29.2285C104.204 29.0853 104.902 28.8812 105.654 28.6162V31.4092C104.96 31.6956 104.276 31.8997 103.603 32.0215C102.929 32.1504 102.174 32.2148 101.336 32.2148C99.7174 32.2148 98.3854 31.8818 97.3398 31.2158C96.3014 30.5426 95.5316 29.6045 95.0303 28.4014C94.529 27.1911 94.2783 25.7803 94.2783 24.1689C94.2783 22.9801 94.4395 21.8916 94.7617 20.9033C95.084 19.915 95.5566 19.0592 96.1797 18.3359C96.8027 17.6126 97.5726 17.054 98.4893 16.6602C99.4059 16.2663 100.459 16.0693 101.647 16.0693C102.428 16.0693 103.209 16.1696 103.989 16.3701C104.777 16.5635 105.529 16.832 106.245 17.1758L105.171 19.8828C104.584 19.6035 103.993 19.36 103.398 19.1523C102.804 18.9447 102.22 18.8408 101.647 18.8408ZM113.7 19.7646C114.81 19.7646 115.766 19.9795 116.568 20.4092C117.37 20.8317 117.99 21.4476 118.427 22.2568C118.864 23.0661 119.082 24.0544 119.082 25.2217V26.8115H111.337C111.373 27.7354 111.648 28.4622 112.164 28.9922C112.687 29.515 113.41 29.7764 114.334 29.7764C115.1 29.7764 115.802 29.6976 116.439 29.54C117.077 29.3825 117.732 29.1462 118.405 28.8311V31.3662C117.811 31.6598 117.188 31.8747 116.536 32.0107C115.892 32.1468 115.107 32.2148 114.184 32.2148C112.98 32.2148 111.913 31.9928 110.982 31.5488C110.059 31.1048 109.332 30.4281 108.802 29.5186C108.279 28.609 108.018 27.4632 108.018 26.0811C108.018 24.6774 108.254 23.5101 108.727 22.5791C109.206 21.641 109.872 20.9391 110.725 20.4736C111.577 20.001 112.569 19.7646 113.7 19.7646ZM113.722 22.0957C113.084 22.0957 112.554 22.2998 112.132 22.708C111.716 23.1162 111.477 23.7572 111.412 24.6309H116.01C116.003 24.1439 115.913 23.7106 115.741 23.3311C115.576 22.9515 115.326 22.6507 114.989 22.4287C114.66 22.2067 114.237 22.0957 113.722 22.0957ZM128.449 19.7646C128.614 19.7646 128.804 19.7754 129.019 19.7969C129.241 19.8112 129.42 19.8327 129.556 19.8613L129.309 22.9336C129.201 22.8978 129.047 22.8727 128.847 22.8584C128.653 22.8369 128.485 22.8262 128.342 22.8262C127.919 22.8262 127.507 22.8799 127.106 22.9873C126.713 23.0947 126.358 23.2702 126.043 23.5137C125.728 23.75 125.477 24.0651 125.291 24.459C125.112 24.8457 125.022 25.3219 125.022 25.8877V32H121.746V19.9902H124.228L124.711 22.0098H124.872C125.108 21.6016 125.402 21.2292 125.753 20.8926C126.111 20.5488 126.516 20.2767 126.967 20.0762C127.425 19.8685 127.919 19.7646 128.449 19.7646ZM136.796 29.6045C137.154 29.6045 137.501 29.5687 137.838 29.4971C138.182 29.4255 138.522 29.3359 138.858 29.2285V31.667C138.507 31.8245 138.071 31.9535 137.548 32.0537C137.032 32.1611 136.466 32.2148 135.851 32.2148C135.134 32.2148 134.49 32.1003 133.917 31.8711C133.351 31.6348 132.904 31.2301 132.574 30.6572C132.252 30.0771 132.091 29.2715 132.091 28.2402V22.4502H130.522V21.0645L132.327 19.9688L133.272 17.4336H135.367V19.9902H138.729V22.4502H135.367V28.2402C135.367 28.6986 135.496 29.0423 135.754 29.2715C136.019 29.4935 136.366 29.6045 136.796 29.6045ZM144.573 19.9902V32H141.297V19.9902H144.573ZM142.94 15.2852C143.427 15.2852 143.846 15.3997 144.197 15.6289C144.548 15.8509 144.724 16.2699 144.724 16.8857C144.724 17.4945 144.548 17.917 144.197 18.1533C143.846 18.3825 143.427 18.4971 142.94 18.4971C142.446 18.4971 142.024 18.3825 141.673 18.1533C141.329 17.917 141.157 17.4945 141.157 16.8857C141.157 16.2699 141.329 15.8509 141.673 15.6289C142.024 15.3997 142.446 15.2852 142.94 15.2852ZM154.66 22.4502H151.824V32H148.548V22.4502H146.743V20.8711L148.548 19.9902V19.1094C148.548 18.0853 148.72 17.2904 149.063 16.7246C149.414 16.1517 149.905 15.7507 150.535 15.5215C151.173 15.2852 151.924 15.167 152.791 15.167C153.428 15.167 154.008 15.2207 154.531 15.3281C155.054 15.4284 155.48 15.543 155.81 15.6719L154.972 18.0781C154.721 17.9993 154.449 17.9277 154.155 17.8633C153.862 17.7988 153.525 17.7666 153.146 17.7666C152.687 17.7666 152.351 17.9062 152.136 18.1855C151.928 18.4577 151.824 18.8086 151.824 19.2383V19.9902H154.66V22.4502ZM159.816 19.9902V32H156.54V19.9902H159.816ZM158.184 15.2852C158.671 15.2852 159.09 15.3997 159.44 15.6289C159.791 15.8509 159.967 16.2699 159.967 16.8857C159.967 17.4945 159.791 17.917 159.44 18.1533C159.09 18.3825 158.671 18.4971 158.184 18.4971C157.689 18.4971 157.267 18.3825 156.916 18.1533C156.572 17.917 156.4 17.4945 156.4 16.8857C156.4 16.2699 156.572 15.8509 156.916 15.6289C157.267 15.3997 157.689 15.2852 158.184 15.2852ZM168.131 32.2148C166.942 32.2148 165.929 32 165.091 31.5703C164.253 31.1335 163.616 30.4603 163.179 29.5508C162.742 28.6413 162.523 27.4775 162.523 26.0596C162.523 24.5915 162.771 23.3955 163.265 22.4717C163.766 21.5407 164.457 20.8568 165.338 20.4199C166.226 19.9831 167.254 19.7646 168.421 19.7646C169.252 19.7646 169.968 19.847 170.569 20.0117C171.178 20.1693 171.708 20.359 172.159 20.5811L171.192 23.1162C170.677 22.9085 170.197 22.7402 169.753 22.6113C169.309 22.4753 168.865 22.4072 168.421 22.4072C167.848 22.4072 167.372 22.5433 166.992 22.8154C166.613 23.0804 166.33 23.4814 166.144 24.0186C165.957 24.5557 165.864 25.2288 165.864 26.0381C165.864 26.833 165.965 27.4919 166.165 28.0146C166.366 28.5374 166.656 28.9277 167.035 29.1855C167.415 29.4362 167.877 29.5615 168.421 29.5615C169.101 29.5615 169.706 29.472 170.236 29.293C170.766 29.1068 171.282 28.849 171.783 28.5195V31.3232C171.282 31.6383 170.756 31.8639 170.204 32C169.66 32.1432 168.969 32.2148 168.131 32.2148ZM179.496 19.7432C181.107 19.7432 182.343 20.0941 183.202 20.7959C184.062 21.4977 184.491 22.5648 184.491 23.9971V32H182.203L181.569 30.3672H181.483C181.14 30.7969 180.789 31.1478 180.431 31.4199C180.073 31.6921 179.661 31.8926 179.195 32.0215C178.73 32.1504 178.164 32.2148 177.498 32.2148C176.789 32.2148 176.152 32.0788 175.586 31.8066C175.027 31.5345 174.587 31.1191 174.265 30.5605C173.942 29.9948 173.781 29.2786 173.781 28.4121C173.781 27.1374 174.229 26.1992 175.124 25.5977C176.019 24.9889 177.362 24.6523 179.152 24.5879L181.236 24.5234V23.9971C181.236 23.3669 181.072 22.9049 180.742 22.6113C180.413 22.3177 179.954 22.1709 179.367 22.1709C178.787 22.1709 178.218 22.2533 177.659 22.418C177.101 22.5827 176.542 22.7904 175.983 23.041L174.898 20.8281C175.536 20.4915 176.248 20.2266 177.036 20.0332C177.831 19.8398 178.651 19.7432 179.496 19.7432ZM181.236 26.4355L179.969 26.4785C178.909 26.5072 178.171 26.6969 177.756 27.0479C177.348 27.3988 177.144 27.8607 177.144 28.4336C177.144 28.9349 177.29 29.293 177.584 29.5078C177.878 29.7155 178.261 29.8193 178.733 29.8193C179.435 29.8193 180.026 29.6117 180.506 29.1963C180.993 28.7809 181.236 28.1901 181.236 27.4238V26.4355ZM192.935 29.6045C193.293 29.6045 193.64 29.5687 193.977 29.4971C194.32 29.4255 194.66 29.3359 194.997 29.2285V31.667C194.646 31.8245 194.209 31.9535 193.687 32.0537C193.171 32.1611 192.605 32.2148 191.989 32.2148C191.273 32.2148 190.629 32.1003 190.056 31.8711C189.49 31.6348 189.042 31.2301 188.713 30.6572C188.391 30.0771 188.229 29.2715 188.229 28.2402V22.4502H186.661V21.0645L188.466 19.9688L189.411 17.4336H191.506V19.9902H194.868V22.4502H191.506V28.2402C191.506 28.6986 191.635 29.0423 191.893 29.2715C192.158 29.4935 192.505 29.6045 192.935 29.6045ZM202.388 19.7646C203.498 19.7646 204.454 19.9795 205.256 20.4092C206.058 20.8317 206.677 21.4476 207.114 22.2568C207.551 23.0661 207.77 24.0544 207.77 25.2217V26.8115H200.024C200.06 27.7354 200.336 28.4622 200.852 28.9922C201.374 29.515 202.098 29.7764 203.021 29.7764C203.788 29.7764 204.49 29.6976 205.127 29.54C205.764 29.3825 206.42 29.1462 207.093 28.8311V31.3662C206.498 31.6598 205.875 31.8747 205.224 32.0107C204.579 32.1468 203.795 32.2148 202.871 32.2148C201.668 32.2148 200.601 31.9928 199.67 31.5488C198.746 31.1048 198.019 30.4281 197.489 29.5186C196.966 28.609 196.705 27.4632 196.705 26.0811C196.705 24.6774 196.941 23.5101 197.414 22.5791C197.894 21.641 198.56 20.9391 199.412 20.4736C200.264 20.001 201.256 19.7646 202.388 19.7646ZM202.409 22.0957C201.772 22.0957 201.242 22.2998 200.819 22.708C200.404 23.1162 200.164 23.7572 200.1 24.6309H204.697C204.69 24.1439 204.601 23.7106 204.429 23.3311C204.264 22.9515 204.013 22.6507 203.677 22.4287C203.347 22.2067 202.925 22.0957 202.409 22.0957ZM222.787 22.4502H219.951V32H216.675V22.4502H214.87V20.8711L216.675 19.9902V19.1094C216.675 18.0853 216.847 17.2904 217.19 16.7246C217.541 16.1517 218.032 15.7507 218.662 15.5215C219.299 15.2852 220.051 15.167 220.918 15.167C221.555 15.167 222.135 15.2207 222.658 15.3281C223.181 15.4284 223.607 15.543 223.937 15.6719L223.099 18.0781C222.848 17.9993 222.576 17.9277 222.282 17.8633C221.989 17.7988 221.652 17.7666 221.272 17.7666C220.814 17.7666 220.478 17.9062 220.263 18.1855C220.055 18.4577 219.951 18.8086 219.951 19.2383V19.9902H222.787V22.4502ZM231.381 19.7646C231.546 19.7646 231.735 19.7754 231.95 19.7969C232.172 19.8112 232.351 19.8327 232.487 19.8613L232.24 22.9336C232.133 22.8978 231.979 22.8727 231.778 22.8584C231.585 22.8369 231.417 22.8262 231.273 22.8262C230.851 22.8262 230.439 22.8799 230.038 22.9873C229.644 23.0947 229.29 23.2702 228.975 23.5137C228.66 23.75 228.409 24.0651 228.223 24.459C228.044 24.8457 227.954 25.3219 227.954 25.8877V32H224.678V19.9902H227.159L227.643 22.0098H227.804C228.04 21.6016 228.334 21.2292 228.685 20.8926C229.043 20.5488 229.447 20.2767 229.898 20.0762C230.357 19.8685 230.851 19.7646 231.381 19.7646ZM245.582 25.9736C245.582 26.9762 245.446 27.8643 245.174 28.6377C244.909 29.4111 244.519 30.0664 244.003 30.6035C243.494 31.1335 242.879 31.5345 242.155 31.8066C241.439 32.0788 240.63 32.2148 239.728 32.2148C238.882 32.2148 238.105 32.0788 237.396 31.8066C236.695 31.5345 236.082 31.1335 235.56 30.6035C235.044 30.0664 234.643 29.4111 234.356 28.6377C234.077 27.8643 233.938 26.9762 233.938 25.9736C233.938 24.6416 234.174 23.5137 234.646 22.5898C235.119 21.666 235.792 20.9642 236.666 20.4844C237.54 20.0046 238.582 19.7646 239.792 19.7646C240.916 19.7646 241.912 20.0046 242.778 20.4844C243.652 20.9642 244.336 21.666 244.83 22.5898C245.331 23.5137 245.582 24.6416 245.582 25.9736ZM237.278 25.9736C237.278 26.7614 237.364 27.4238 237.536 27.9609C237.708 28.498 237.977 28.9027 238.342 29.1748C238.707 29.4469 239.183 29.583 239.771 29.583C240.351 29.583 240.82 29.4469 241.178 29.1748C241.543 28.9027 241.808 28.498 241.973 27.9609C242.145 27.4238 242.23 26.7614 242.23 25.9736C242.23 25.1787 242.145 24.5199 241.973 23.9971C241.808 23.4671 241.543 23.0697 241.178 22.8047C240.812 22.5397 240.336 22.4072 239.749 22.4072C238.882 22.4072 238.252 22.7044 237.858 23.2988C237.472 23.8932 237.278 24.7848 237.278 25.9736ZM262.394 19.7646C263.754 19.7646 264.782 20.1156 265.477 20.8174C266.178 21.512 266.529 22.6292 266.529 24.1689V32H263.242V24.9854C263.242 24.126 263.095 23.4779 262.802 23.041C262.508 22.6042 262.053 22.3857 261.438 22.3857C260.571 22.3857 259.955 22.6973 259.59 23.3203C259.225 23.9362 259.042 24.8206 259.042 25.9736V32H255.766V24.9854C255.766 24.4124 255.701 23.9326 255.572 23.5459C255.443 23.1592 255.246 22.8691 254.981 22.6758C254.716 22.4824 254.376 22.3857 253.961 22.3857C253.352 22.3857 252.872 22.5397 252.521 22.8477C252.178 23.1484 251.931 23.596 251.78 24.1904C251.637 24.7777 251.565 25.4974 251.565 26.3496V32H248.289V19.9902H250.792L251.232 21.5264H251.415C251.659 21.111 251.963 20.7744 252.328 20.5166C252.701 20.2588 253.109 20.069 253.553 19.9473C253.997 19.8255 254.448 19.7646 254.906 19.7646C255.787 19.7646 256.532 19.9079 257.141 20.1943C257.757 20.4808 258.229 20.9248 258.559 21.5264H258.849C259.207 20.9105 259.712 20.4629 260.363 20.1836C261.022 19.9043 261.699 19.7646 262.394 19.7646ZM100.938 53.1807H107.169V61.3232C106.345 61.5954 105.49 61.8138 104.602 61.9785C103.714 62.1361 102.707 62.2148 101.583 62.2148C100.022 62.2148 98.6969 61.9069 97.6084 61.291C96.5199 60.6751 95.6927 59.7656 95.127 58.5625C94.5612 57.3594 94.2783 55.8805 94.2783 54.126C94.2783 52.4788 94.5934 51.0537 95.2236 49.8506C95.861 48.6475 96.7884 47.7165 98.0059 47.0576C99.2305 46.3988 100.724 46.0693 102.485 46.0693C103.316 46.0693 104.136 46.1589 104.945 46.3379C105.755 46.5169 106.489 46.7497 107.147 47.0361L106.041 49.7002C105.561 49.4567 105.013 49.2526 104.397 49.0879C103.782 48.9232 103.137 48.8408 102.464 48.8408C101.497 48.8408 100.656 49.0628 99.9395 49.5068C99.2305 49.9508 98.679 50.5739 98.2852 51.376C97.8984 52.1709 97.7051 53.109 97.7051 54.1904C97.7051 55.2145 97.8447 56.124 98.124 56.9189C98.4033 57.7067 98.8438 58.3262 99.4453 58.7773C100.047 59.2214 100.831 59.4434 101.798 59.4434C102.271 59.4434 102.668 59.4219 102.99 59.3789C103.32 59.3288 103.628 59.2786 103.914 59.2285V55.9521H100.938V53.1807ZM123.948 53.9971C123.948 55.766 123.608 57.2448 122.928 58.4336C122.255 59.6152 121.277 60.5068 119.995 61.1084C118.713 61.7028 117.17 62 115.365 62H110.918V46.2949H115.849C117.496 46.2949 118.924 46.5885 120.135 47.1758C121.345 47.7559 122.283 48.6188 122.949 49.7646C123.615 50.9033 123.948 52.3141 123.948 53.9971ZM120.489 54.083C120.489 52.9229 120.317 51.9704 119.974 51.2256C119.637 50.4736 119.136 49.9186 118.47 49.5605C117.811 49.2025 116.994 49.0234 116.021 49.0234H114.248V59.25H115.677C117.302 59.25 118.509 58.8167 119.297 57.9502C120.092 57.0837 120.489 55.7946 120.489 54.083ZM136.474 57.6387C136.474 58.5697 136.248 59.3789 135.797 60.0664C135.346 60.7539 134.687 61.2839 133.82 61.6562C132.961 62.0286 131.915 62.2148 130.684 62.2148C130.139 62.2148 129.606 62.179 129.083 62.1074C128.567 62.0358 128.07 61.932 127.59 61.7959C127.117 61.6527 126.666 61.4772 126.236 61.2695V58.1758C126.981 58.5052 127.755 58.8024 128.557 59.0674C129.359 59.3324 130.154 59.4648 130.941 59.4648C131.486 59.4648 131.923 59.3932 132.252 59.25C132.589 59.1068 132.832 58.9098 132.982 58.6592C133.133 58.4085 133.208 58.1221 133.208 57.7998C133.208 57.4059 133.076 57.0693 132.811 56.79C132.546 56.5107 132.18 56.2493 131.715 56.0059C131.257 55.7624 130.737 55.501 130.157 55.2217C129.792 55.0498 129.395 54.8421 128.965 54.5986C128.535 54.348 128.127 54.0436 127.74 53.6855C127.354 53.3275 127.035 52.8942 126.784 52.3857C126.541 51.8701 126.419 51.2542 126.419 50.5381C126.419 49.5999 126.634 48.7979 127.063 48.1318C127.493 47.4658 128.105 46.9574 128.9 46.6064C129.702 46.2484 130.648 46.0693 131.736 46.0693C132.553 46.0693 133.33 46.166 134.067 46.3594C134.812 46.5456 135.589 46.8177 136.398 47.1758L135.324 49.7646C134.601 49.471 133.953 49.2454 133.38 49.0879C132.807 48.9232 132.223 48.8408 131.629 48.8408C131.214 48.8408 130.859 48.9089 130.565 49.0449C130.272 49.1738 130.05 49.36 129.899 49.6035C129.749 49.8398 129.674 50.1156 129.674 50.4307C129.674 50.8031 129.781 51.1182 129.996 51.376C130.218 51.6266 130.548 51.8701 130.984 52.1064C131.428 52.3428 131.98 52.6185 132.639 52.9336C133.441 53.3132 134.125 53.7106 134.69 54.126C135.263 54.5342 135.704 55.0176 136.012 55.5762C136.32 56.1276 136.474 56.8151 136.474 57.6387ZM145.991 48.8408C145.354 48.8408 144.788 48.9661 144.294 49.2168C143.807 49.4603 143.395 49.8148 143.059 50.2803C142.729 50.7458 142.479 51.3079 142.307 51.9668C142.135 52.6257 142.049 53.3669 142.049 54.1904C142.049 55.3005 142.185 56.2493 142.457 57.0371C142.736 57.8177 143.166 58.4157 143.746 58.8311C144.326 59.2393 145.075 59.4434 145.991 59.4434C146.629 59.4434 147.266 59.3717 147.903 59.2285C148.548 59.0853 149.246 58.8812 149.998 58.6162V61.4092C149.303 61.6956 148.619 61.8997 147.946 62.0215C147.273 62.1504 146.518 62.2148 145.68 62.2148C144.061 62.2148 142.729 61.8818 141.684 61.2158C140.645 60.5426 139.875 59.6045 139.374 58.4014C138.873 57.1911 138.622 55.7803 138.622 54.1689C138.622 52.9801 138.783 51.8916 139.105 50.9033C139.428 49.915 139.9 49.0592 140.523 48.3359C141.146 47.6126 141.916 47.054 142.833 46.6602C143.75 46.2663 144.802 46.0693 145.991 46.0693C146.772 46.0693 147.552 46.1696 148.333 46.3701C149.121 46.5635 149.873 46.832 150.589 47.1758L149.515 49.8828C148.927 49.6035 148.337 49.36 147.742 49.1523C147.148 48.9447 146.564 48.8408 145.991 48.8408Z" fill="#656C73"/>
</svg>
