<svg width="309" height="74" viewBox="0 0 309 74" fill="none" xmlns="http://www.w3.org/2000/svg">
<circle cx="37" cy="37" r="37" fill="#D9D9D9"/>
<path d="M39 29C39 31.1217 38.1571 33.1566 36.6569 34.6569C35.1566 36.1571 33.1217 37 31 37C28.8783 37 26.8434 36.1571 25.3431 34.6569C23.8429 33.1566 23 31.1217 23 29C23 26.8783 23.8429 24.8434 25.3431 23.3431C26.8434 21.8429 28.8783 21 31 21C33.1217 21 35.1566 21.8429 36.6569 23.3431C38.1571 24.8434 39 26.8783 39 29ZM47 49V53H15V49C15 44.58 22.16 41 31 41C39.84 41 47 44.58 47 49ZM54 42V45H51V42H54ZM50 32H47V31C47 29.4087 47.6321 27.8826 48.7574 26.7574C49.8826 25.6321 51.4087 25 53 25C54.5913 25 56.1174 25.6321 57.2426 26.7574C58.3679 27.8826 59 29.4087 59 31C59 32.94 58 34.76 56.42 35.82L55.82 36.2C54.68 37 54 38.22 54 39.6V40H51V39.6C51 37.22 52.2 35 54.18 33.7L54.76 33.32C55.54 32.8 56 31.94 56 31C56 30.2044 55.6839 29.4413 55.1213 28.8787C54.5587 28.3161 53.7957 28 53 28C52.2043 28 51.4413 28.3161 50.8787 28.8787C50.3161 29.4413 50 30.2044 50 31V32Z" fill="#656C73"/>
<path d="M102.088 32H98.7686V22.9121C98.7686 22.6615 98.7721 22.3535 98.7793 21.9883C98.7865 21.6159 98.7972 21.2363 98.8115 20.8496C98.8258 20.4557 98.8402 20.1012 98.8545 19.7861C98.7757 19.8792 98.6146 20.0404 98.3711 20.2695C98.1348 20.4915 97.9128 20.6921 97.7051 20.8711L95.9004 22.3213L94.2998 20.3232L99.3594 16.2949H102.088V32ZM111.96 27.4453V24.7598H117.729V27.4453H111.96ZM133.197 32H129.878V22.9121C129.878 22.6615 129.882 22.3535 129.889 21.9883C129.896 21.6159 129.907 21.2363 129.921 20.8496C129.935 20.4557 129.95 20.1012 129.964 19.7861C129.885 19.8792 129.724 20.0404 129.48 20.2695C129.244 20.4915 129.022 20.6921 128.814 20.8711L127.01 22.3213L125.409 20.3232L130.469 16.2949H133.197V32ZM157.421 23.9971C157.421 25.766 157.081 27.2448 156.4 28.4336C155.727 29.6152 154.75 30.5068 153.468 31.1084C152.186 31.7028 150.643 32 148.838 32H144.391V16.2949H149.321C150.968 16.2949 152.397 16.5885 153.607 17.1758C154.818 17.7559 155.756 18.6188 156.422 19.7646C157.088 20.9033 157.421 22.3141 157.421 23.9971ZM153.962 24.083C153.962 22.9229 153.79 21.9704 153.446 21.2256C153.11 20.4736 152.608 19.9186 151.942 19.5605C151.284 19.2025 150.467 19.0234 149.493 19.0234H147.721V29.25H149.149C150.775 29.25 151.982 28.8167 152.77 27.9502C153.564 27.0837 153.962 25.7946 153.962 24.083ZM171.332 25.9736C171.332 26.9762 171.196 27.8643 170.924 28.6377C170.659 29.4111 170.269 30.0664 169.753 30.6035C169.244 31.1335 168.629 31.5345 167.905 31.8066C167.189 32.0788 166.38 32.2148 165.478 32.2148C164.632 32.2148 163.855 32.0788 163.146 31.8066C162.445 31.5345 161.832 31.1335 161.31 30.6035C160.794 30.0664 160.393 29.4111 160.106 28.6377C159.827 27.8643 159.688 26.9762 159.688 25.9736C159.688 24.6416 159.924 23.5137 160.396 22.5898C160.869 21.666 161.542 20.9642 162.416 20.4844C163.29 20.0046 164.332 19.7646 165.542 19.7646C166.666 19.7646 167.662 20.0046 168.528 20.4844C169.402 20.9642 170.086 21.666 170.58 22.5898C171.081 23.5137 171.332 24.6416 171.332 25.9736ZM163.028 25.9736C163.028 26.7614 163.114 27.4238 163.286 27.9609C163.458 28.498 163.727 28.9027 164.092 29.1748C164.457 29.4469 164.933 29.583 165.521 29.583C166.101 29.583 166.57 29.4469 166.928 29.1748C167.293 28.9027 167.558 28.498 167.723 27.9609C167.895 27.4238 167.98 26.7614 167.98 25.9736C167.98 25.1787 167.895 24.5199 167.723 23.9971C167.558 23.4671 167.293 23.0697 166.928 22.8047C166.562 22.5397 166.086 22.4072 165.499 22.4072C164.632 22.4072 164.002 22.7044 163.608 23.2988C163.222 23.8932 163.028 24.7848 163.028 25.9736ZM185.061 19.9902V32H182.547L182.106 30.4639H181.935C181.677 30.8721 181.354 31.2051 180.968 31.4629C180.581 31.7207 180.155 31.9105 179.689 32.0322C179.224 32.154 178.741 32.2148 178.239 32.2148C177.38 32.2148 176.632 32.0645 175.994 31.7637C175.357 31.4557 174.859 30.9795 174.501 30.335C174.15 29.6904 173.975 28.8525 173.975 27.8213V19.9902H177.251V27.0049C177.251 27.8643 177.405 28.5124 177.713 28.9492C178.021 29.3861 178.511 29.6045 179.185 29.6045C179.851 29.6045 180.373 29.4541 180.753 29.1533C181.132 28.8454 181.397 28.3978 181.548 27.8105C181.705 27.2161 181.784 26.4928 181.784 25.6406V19.9902H185.061ZM191.774 15.2852V19.1738C191.774 19.625 191.76 20.0726 191.731 20.5166C191.71 20.9606 191.681 21.3044 191.646 21.5479H191.774C192.09 21.0537 192.519 20.6348 193.063 20.291C193.608 19.9401 194.313 19.7646 195.18 19.7646C196.526 19.7646 197.618 20.291 198.456 21.3438C199.294 22.3965 199.713 23.9398 199.713 25.9736C199.713 27.3415 199.52 28.4909 199.133 29.4219C198.746 30.3457 198.205 31.0439 197.511 31.5166C196.816 31.9821 196.01 32.2148 195.094 32.2148C194.213 32.2148 193.518 32.0573 193.01 31.7422C192.501 31.4271 192.09 31.0726 191.774 30.6787H191.549L191.001 32H188.498V15.2852H191.774ZM194.127 22.3857C193.554 22.3857 193.099 22.5039 192.763 22.7402C192.426 22.9766 192.179 23.3311 192.021 23.8037C191.871 24.2764 191.789 24.8743 191.774 25.5977V25.9521C191.774 27.1195 191.946 28.0146 192.29 28.6377C192.634 29.2536 193.26 29.5615 194.17 29.5615C194.843 29.5615 195.377 29.25 195.771 28.627C196.172 28.0039 196.372 27.1051 196.372 25.9307C196.372 24.7562 196.172 23.8717 195.771 23.2773C195.369 22.6829 194.822 22.3857 194.127 22.3857ZM207.479 29.6045C207.838 29.6045 208.185 29.5687 208.521 29.4971C208.865 29.4255 209.205 29.3359 209.542 29.2285V31.667C209.191 31.8245 208.754 31.9535 208.231 32.0537C207.716 32.1611 207.15 32.2148 206.534 32.2148C205.818 32.2148 205.174 32.1003 204.601 31.8711C204.035 31.6348 203.587 31.2301 203.258 30.6572C202.936 30.0771 202.774 29.2715 202.774 28.2402V22.4502H201.206V21.0645L203.011 19.9688L203.956 17.4336H206.051V19.9902H209.413V22.4502H206.051V28.2402C206.051 28.6986 206.18 29.0423 206.438 29.2715C206.702 29.4935 207.05 29.6045 207.479 29.6045ZM101.647 48.8408C101.01 48.8408 100.444 48.9661 99.9502 49.2168C99.4632 49.4603 99.0514 49.8148 98.7148 50.2803C98.3854 50.7458 98.1348 51.3079 97.9629 51.9668C97.791 52.6257 97.7051 53.3669 97.7051 54.1904C97.7051 55.3005 97.8411 56.2493 98.1133 57.0371C98.3926 57.8177 98.8223 58.4157 99.4023 58.8311C99.9824 59.2393 100.731 59.4434 101.647 59.4434C102.285 59.4434 102.922 59.3717 103.56 59.2285C104.204 59.0853 104.902 58.8812 105.654 58.6162V61.4092C104.96 61.6956 104.276 61.8997 103.603 62.0215C102.929 62.1504 102.174 62.2148 101.336 62.2148C99.7174 62.2148 98.3854 61.8818 97.3398 61.2158C96.3014 60.5426 95.5316 59.6045 95.0303 58.4014C94.529 57.1911 94.2783 55.7803 94.2783 54.1689C94.2783 52.9801 94.4395 51.8916 94.7617 50.9033C95.084 49.915 95.5566 49.0592 96.1797 48.3359C96.8027 47.6126 97.5726 47.054 98.4893 46.6602C99.4059 46.2663 100.459 46.0693 101.647 46.0693C102.428 46.0693 103.209 46.1696 103.989 46.3701C104.777 46.5635 105.529 46.832 106.245 47.1758L105.171 49.8828C104.584 49.6035 103.993 49.36 103.398 49.1523C102.804 48.9447 102.22 48.8408 101.647 48.8408ZM112.024 62H108.748V45.2852H112.024V62ZM120.425 49.7646C121.535 49.7646 122.491 49.9795 123.293 50.4092C124.095 50.8317 124.715 51.4476 125.151 52.2568C125.588 53.0661 125.807 54.0544 125.807 55.2217V56.8115H118.062C118.097 57.7354 118.373 58.4622 118.889 58.9922C119.411 59.515 120.135 59.7764 121.059 59.7764C121.825 59.7764 122.527 59.6976 123.164 59.54C123.801 59.3825 124.457 59.1462 125.13 58.8311V61.3662C124.535 61.6598 123.912 61.8747 123.261 62.0107C122.616 62.1468 121.832 62.2148 120.908 62.2148C119.705 62.2148 118.638 61.9928 117.707 61.5488C116.783 61.1048 116.056 60.4281 115.526 59.5186C115.004 58.609 114.742 57.4632 114.742 56.0811C114.742 54.6774 114.979 53.5101 115.451 52.5791C115.931 51.641 116.597 50.9391 117.449 50.4736C118.301 50.001 119.293 49.7646 120.425 49.7646ZM120.446 52.0957C119.809 52.0957 119.279 52.2998 118.856 52.708C118.441 53.1162 118.201 53.7572 118.137 54.6309H122.734C122.727 54.1439 122.638 53.7106 122.466 53.3311C122.301 52.9515 122.05 52.6507 121.714 52.4287C121.384 52.2067 120.962 52.0957 120.446 52.0957ZM133.391 49.7432C135.002 49.7432 136.237 50.0941 137.097 50.7959C137.956 51.4977 138.386 52.5648 138.386 53.9971V62H136.098L135.464 60.3672H135.378C135.034 60.7969 134.683 61.1478 134.325 61.4199C133.967 61.6921 133.555 61.8926 133.09 62.0215C132.624 62.1504 132.059 62.2148 131.393 62.2148C130.684 62.2148 130.046 62.0788 129.48 61.8066C128.922 61.5345 128.481 61.1191 128.159 60.5605C127.837 59.9948 127.676 59.2786 127.676 58.4121C127.676 57.1374 128.123 56.1992 129.019 55.5977C129.914 54.9889 131.257 54.6523 133.047 54.5879L135.131 54.5234V53.9971C135.131 53.3669 134.966 52.9049 134.637 52.6113C134.307 52.3177 133.849 52.1709 133.262 52.1709C132.682 52.1709 132.112 52.2533 131.554 52.418C130.995 52.5827 130.437 52.7904 129.878 53.041L128.793 50.8281C129.43 50.4915 130.143 50.2266 130.931 50.0332C131.726 49.8398 132.546 49.7432 133.391 49.7432ZM135.131 56.4355L133.863 56.4785C132.803 56.5072 132.066 56.6969 131.65 57.0479C131.242 57.3988 131.038 57.8607 131.038 58.4336C131.038 58.9349 131.185 59.293 131.479 59.5078C131.772 59.7155 132.155 59.8193 132.628 59.8193C133.33 59.8193 133.921 59.6117 134.4 59.1963C134.887 58.7809 135.131 58.1901 135.131 57.4238V56.4355ZM148.473 49.7646C148.637 49.7646 148.827 49.7754 149.042 49.7969C149.264 49.8112 149.443 49.8327 149.579 49.8613L149.332 52.9336C149.225 52.8978 149.071 52.8727 148.87 52.8584C148.677 52.8369 148.508 52.8262 148.365 52.8262C147.943 52.8262 147.531 52.8799 147.13 52.9873C146.736 53.0947 146.382 53.2702 146.066 53.5137C145.751 53.75 145.501 54.0651 145.314 54.459C145.135 54.8457 145.046 55.3219 145.046 55.8877V62H141.77V49.9902H144.251L144.734 52.0098H144.896C145.132 51.6016 145.425 51.2292 145.776 50.8926C146.134 50.5488 146.539 50.2767 146.99 50.0762C147.449 49.8685 147.943 49.7646 148.473 49.7646ZM156.68 49.7432C158.291 49.7432 159.526 50.0941 160.386 50.7959C161.245 51.4977 161.675 52.5648 161.675 53.9971V62H159.387L158.753 60.3672H158.667C158.323 60.7969 157.972 61.1478 157.614 61.4199C157.256 61.6921 156.844 61.8926 156.379 62.0215C155.913 62.1504 155.348 62.2148 154.682 62.2148C153.973 62.2148 153.335 62.0788 152.77 61.8066C152.211 61.5345 151.771 61.1191 151.448 60.5605C151.126 59.9948 150.965 59.2786 150.965 58.4121C150.965 57.1374 151.412 56.1992 152.308 55.5977C153.203 54.9889 154.546 54.6523 156.336 54.5879L158.42 54.5234V53.9971C158.42 53.3669 158.255 52.9049 157.926 52.6113C157.596 52.3177 157.138 52.1709 156.551 52.1709C155.971 52.1709 155.401 52.2533 154.843 52.418C154.284 52.5827 153.726 52.7904 153.167 53.041L152.082 50.8281C152.719 50.4915 153.432 50.2266 154.22 50.0332C155.015 49.8398 155.835 49.7432 156.68 49.7432ZM158.42 56.4355L157.152 56.4785C156.092 56.5072 155.355 56.6969 154.939 57.0479C154.531 57.3988 154.327 57.8607 154.327 58.4336C154.327 58.9349 154.474 59.293 154.768 59.5078C155.061 59.7155 155.444 59.8193 155.917 59.8193C156.619 59.8193 157.21 59.6117 157.689 59.1963C158.176 58.7809 158.42 58.1901 158.42 57.4238V56.4355ZM171.88 49.7646C173.162 49.7646 174.193 50.1156 174.974 50.8174C175.754 51.512 176.145 52.6292 176.145 54.1689V62H172.868V54.9854C172.868 54.126 172.711 53.4779 172.396 53.041C172.088 52.6042 171.601 52.3857 170.935 52.3857C169.932 52.3857 169.248 52.7259 168.883 53.4062C168.518 54.0866 168.335 55.0677 168.335 56.3496V62H165.059V49.9902H167.562L168.002 51.5264H168.185C168.442 51.111 168.761 50.7744 169.141 50.5166C169.527 50.2588 169.953 50.069 170.419 49.9473C170.892 49.8255 171.379 49.7646 171.88 49.7646ZM184.395 62.2148C183.206 62.2148 182.192 62 181.354 61.5703C180.517 61.1335 179.879 60.4603 179.442 59.5508C179.006 58.6413 178.787 57.4775 178.787 56.0596C178.787 54.5915 179.034 53.3955 179.528 52.4717C180.03 51.5407 180.721 50.8568 181.602 50.4199C182.49 49.9831 183.517 49.7646 184.685 49.7646C185.515 49.7646 186.231 49.847 186.833 50.0117C187.442 50.1693 187.972 50.359 188.423 50.5811L187.456 53.1162C186.94 52.9085 186.461 52.7402 186.017 52.6113C185.573 52.4753 185.129 52.4072 184.685 52.4072C184.112 52.4072 183.635 52.5433 183.256 52.8154C182.876 53.0804 182.593 53.4814 182.407 54.0186C182.221 54.5557 182.128 55.2288 182.128 56.0381C182.128 56.833 182.228 57.4919 182.429 58.0146C182.629 58.5374 182.919 58.9277 183.299 59.1855C183.678 59.4362 184.14 59.5615 184.685 59.5615C185.365 59.5615 185.97 59.472 186.5 59.293C187.03 59.1068 187.546 58.849 188.047 58.5195V61.3232C187.546 61.6383 187.019 61.8639 186.468 62C185.924 62.1432 185.232 62.2148 184.395 62.2148ZM195.792 49.7646C196.902 49.7646 197.858 49.9795 198.66 50.4092C199.462 50.8317 200.082 51.4476 200.519 52.2568C200.955 53.0661 201.174 54.0544 201.174 55.2217V56.8115H193.429C193.465 57.7354 193.74 58.4622 194.256 58.9922C194.779 59.515 195.502 59.7764 196.426 59.7764C197.192 59.7764 197.894 59.6976 198.531 59.54C199.169 59.3825 199.824 59.1462 200.497 58.8311V61.3662C199.903 61.6598 199.28 61.8747 198.628 62.0107C197.983 62.1468 197.199 62.2148 196.275 62.2148C195.072 62.2148 194.005 61.9928 193.074 61.5488C192.15 61.1048 191.424 60.4281 190.894 59.5186C190.371 58.609 190.109 57.4632 190.109 56.0811C190.109 54.6774 190.346 53.5101 190.818 52.5791C191.298 51.641 191.964 50.9391 192.816 50.4736C193.669 50.001 194.66 49.7646 195.792 49.7646ZM195.813 52.0957C195.176 52.0957 194.646 52.2998 194.224 52.708C193.808 53.1162 193.568 53.7572 193.504 54.6309H198.102C198.094 54.1439 198.005 53.7106 197.833 53.3311C197.668 52.9515 197.418 52.6507 197.081 52.4287C196.752 52.2067 196.329 52.0957 195.813 52.0957ZM219.081 57.6387C219.081 58.5697 218.855 59.3789 218.404 60.0664C217.953 60.7539 217.294 61.2839 216.428 61.6562C215.568 62.0286 214.523 62.2148 213.291 62.2148C212.747 62.2148 212.213 62.179 211.69 62.1074C211.175 62.0358 210.677 61.932 210.197 61.7959C209.725 61.6527 209.273 61.4772 208.844 61.2695V58.1758C209.589 58.5052 210.362 58.8024 211.164 59.0674C211.966 59.3324 212.761 59.4648 213.549 59.4648C214.093 59.4648 214.53 59.3932 214.859 59.25C215.196 59.1068 215.439 58.9098 215.59 58.6592C215.74 58.4085 215.815 58.1221 215.815 57.7998C215.815 57.4059 215.683 57.0693 215.418 56.79C215.153 56.5107 214.788 56.2493 214.322 56.0059C213.864 55.7624 213.345 55.501 212.765 55.2217C212.399 55.0498 212.002 54.8421 211.572 54.5986C211.143 54.348 210.734 54.0436 210.348 53.6855C209.961 53.3275 209.642 52.8942 209.392 52.3857C209.148 51.8701 209.026 51.2542 209.026 50.5381C209.026 49.5999 209.241 48.7979 209.671 48.1318C210.101 47.4658 210.713 46.9574 211.508 46.6064C212.31 46.2484 213.255 46.0693 214.344 46.0693C215.16 46.0693 215.937 46.166 216.675 46.3594C217.42 46.5456 218.197 46.8177 219.006 47.1758L217.932 49.7646C217.208 49.471 216.56 49.2454 215.987 49.0879C215.414 48.9232 214.831 48.8408 214.236 48.8408C213.821 48.8408 213.466 48.9089 213.173 49.0449C212.879 49.1738 212.657 49.36 212.507 49.6035C212.356 49.8398 212.281 50.1156 212.281 50.4307C212.281 50.8031 212.389 51.1182 212.604 51.376C212.826 51.6266 213.155 51.8701 213.592 52.1064C214.036 52.3428 214.587 52.6185 215.246 52.9336C216.048 53.3132 216.732 53.7106 217.298 54.126C217.871 54.5342 218.311 55.0176 218.619 55.5762C218.927 56.1276 219.081 56.8151 219.081 57.6387ZM226.622 49.7646C227.732 49.7646 228.688 49.9795 229.49 50.4092C230.292 50.8317 230.912 51.4476 231.349 52.2568C231.785 53.0661 232.004 54.0544 232.004 55.2217V56.8115H224.259C224.295 57.7354 224.57 58.4622 225.086 58.9922C225.609 59.515 226.332 59.7764 227.256 59.7764C228.022 59.7764 228.724 59.6976 229.361 59.54C229.999 59.3825 230.654 59.1462 231.327 58.8311V61.3662C230.733 61.6598 230.11 61.8747 229.458 62.0107C228.813 62.1468 228.029 62.2148 227.105 62.2148C225.902 62.2148 224.835 61.9928 223.904 61.5488C222.98 61.1048 222.254 60.4281 221.724 59.5186C221.201 58.609 220.939 57.4632 220.939 56.0811C220.939 54.6774 221.176 53.5101 221.648 52.5791C222.128 51.641 222.794 50.9391 223.646 50.4736C224.499 50.001 225.491 49.7646 226.622 49.7646ZM226.644 52.0957C226.006 52.0957 225.476 52.2998 225.054 52.708C224.638 53.1162 224.398 53.7572 224.334 54.6309H228.932C228.924 54.1439 228.835 53.7106 228.663 53.3311C228.498 52.9515 228.248 52.6507 227.911 52.4287C227.582 52.2067 227.159 52.0957 226.644 52.0957ZM243.047 58.4336C243.047 59.25 242.854 59.9411 242.467 60.5068C242.087 61.0654 241.518 61.4915 240.759 61.7852C240 62.0716 239.054 62.2148 237.923 62.2148C237.085 62.2148 236.365 62.1611 235.764 62.0537C235.169 61.9463 234.568 61.7673 233.959 61.5166V58.8096C234.611 59.1032 235.309 59.3467 236.054 59.54C236.806 59.7262 237.465 59.8193 238.03 59.8193C238.668 59.8193 239.122 59.7262 239.395 59.54C239.674 59.3467 239.813 59.096 239.813 58.7881C239.813 58.5876 239.756 58.4085 239.642 58.251C239.534 58.0863 239.298 57.9036 238.933 57.7031C238.567 57.4954 237.994 57.2269 237.214 56.8975C236.462 56.5824 235.842 56.2637 235.355 55.9414C234.876 55.6191 234.518 55.2396 234.281 54.8027C234.052 54.3587 233.938 53.7965 233.938 53.1162C233.938 52.0062 234.367 51.1719 235.227 50.6133C236.093 50.0475 237.25 49.7646 238.696 49.7646C239.441 49.7646 240.15 49.8398 240.823 49.9902C241.504 50.1406 242.202 50.3805 242.918 50.71L241.93 53.0732C241.335 52.8154 240.773 52.6042 240.243 52.4395C239.72 52.2747 239.187 52.1924 238.643 52.1924C238.163 52.1924 237.801 52.2568 237.558 52.3857C237.314 52.5146 237.192 52.7116 237.192 52.9766C237.192 53.1699 237.253 53.3418 237.375 53.4922C237.504 53.6426 237.747 53.8109 238.105 53.9971C238.471 54.1761 239.004 54.4089 239.706 54.6953C240.386 54.9746 240.977 55.2682 241.479 55.5762C241.98 55.877 242.367 56.2529 242.639 56.7041C242.911 57.1481 243.047 57.7246 243.047 58.4336ZM253.982 58.4336C253.982 59.25 253.789 59.9411 253.402 60.5068C253.023 61.0654 252.453 61.4915 251.694 61.7852C250.935 62.0716 249.99 62.2148 248.858 62.2148C248.021 62.2148 247.301 62.1611 246.699 62.0537C246.105 61.9463 245.503 61.7673 244.895 61.5166V58.8096C245.546 59.1032 246.244 59.3467 246.989 59.54C247.741 59.7262 248.4 59.8193 248.966 59.8193C249.603 59.8193 250.058 59.7262 250.33 59.54C250.609 59.3467 250.749 59.096 250.749 58.7881C250.749 58.5876 250.692 58.4085 250.577 58.251C250.47 58.0863 250.233 57.9036 249.868 57.7031C249.503 57.4954 248.93 57.2269 248.149 56.8975C247.397 56.5824 246.778 56.2637 246.291 55.9414C245.811 55.6191 245.453 55.2396 245.217 54.8027C244.988 54.3587 244.873 53.7965 244.873 53.1162C244.873 52.0062 245.303 51.1719 246.162 50.6133C247.029 50.0475 248.185 49.7646 249.632 49.7646C250.377 49.7646 251.086 49.8398 251.759 49.9902C252.439 50.1406 253.137 50.3805 253.854 50.71L252.865 53.0732C252.271 52.8154 251.709 52.6042 251.179 52.4395C250.656 52.2747 250.122 52.1924 249.578 52.1924C249.098 52.1924 248.737 52.2568 248.493 52.3857C248.25 52.5146 248.128 52.7116 248.128 52.9766C248.128 53.1699 248.189 53.3418 248.311 53.4922C248.439 53.6426 248.683 53.8109 249.041 53.9971C249.406 54.1761 249.94 54.4089 250.642 54.6953C251.322 54.9746 251.913 55.2682 252.414 55.5762C252.915 55.877 253.302 56.2529 253.574 56.7041C253.846 57.1481 253.982 57.7246 253.982 58.4336ZM259.815 49.9902V62H256.539V49.9902H259.815ZM258.183 45.2852C258.67 45.2852 259.089 45.3997 259.439 45.6289C259.79 45.8509 259.966 46.2699 259.966 46.8857C259.966 47.4945 259.79 47.917 259.439 48.1533C259.089 48.3825 258.67 48.4971 258.183 48.4971C257.688 48.4971 257.266 48.3825 256.915 48.1533C256.571 47.917 256.399 47.4945 256.399 46.8857C256.399 46.2699 256.571 45.8509 256.915 45.6289C257.266 45.3997 257.688 45.2852 258.183 45.2852ZM274.178 55.9736C274.178 56.9762 274.042 57.8643 273.77 58.6377C273.505 59.4111 273.114 60.0664 272.599 60.6035C272.09 61.1335 271.474 61.5345 270.751 61.8066C270.035 62.0788 269.226 62.2148 268.323 62.2148C267.478 62.2148 266.701 62.0788 265.992 61.8066C265.29 61.5345 264.678 61.1335 264.155 60.6035C263.64 60.0664 263.239 59.4111 262.952 58.6377C262.673 57.8643 262.533 56.9762 262.533 55.9736C262.533 54.6416 262.77 53.5137 263.242 52.5898C263.715 51.666 264.388 50.9642 265.262 50.4844C266.135 50.0046 267.177 49.7646 268.388 49.7646C269.512 49.7646 270.507 50.0046 271.374 50.4844C272.248 50.9642 272.932 51.666 273.426 52.5898C273.927 53.5137 274.178 54.6416 274.178 55.9736ZM265.874 55.9736C265.874 56.7614 265.96 57.4238 266.132 57.9609C266.304 58.498 266.572 58.9027 266.938 59.1748C267.303 59.4469 267.779 59.583 268.366 59.583C268.946 59.583 269.415 59.4469 269.773 59.1748C270.139 58.9027 270.404 58.498 270.568 57.9609C270.74 57.4238 270.826 56.7614 270.826 55.9736C270.826 55.1787 270.74 54.5199 270.568 53.9971C270.404 53.4671 270.139 53.0697 269.773 52.8047C269.408 52.5397 268.932 52.4072 268.345 52.4072C267.478 52.4072 266.848 52.7044 266.454 53.2988C266.067 53.8932 265.874 54.7848 265.874 55.9736ZM283.706 49.7646C284.988 49.7646 286.019 50.1156 286.8 50.8174C287.58 51.512 287.971 52.6292 287.971 54.1689V62H284.694V54.9854C284.694 54.126 284.537 53.4779 284.222 53.041C283.914 52.6042 283.427 52.3857 282.761 52.3857C281.758 52.3857 281.074 52.7259 280.709 53.4062C280.344 54.0866 280.161 55.0677 280.161 56.3496V62H276.885V49.9902H279.388L279.828 51.5264H280.011C280.269 51.111 280.587 50.7744 280.967 50.5166C281.354 50.2588 281.78 50.069 282.245 49.9473C282.718 49.8255 283.205 49.7646 283.706 49.7646ZM299.723 58.4336C299.723 59.25 299.529 59.9411 299.143 60.5068C298.763 61.0654 298.194 61.4915 297.435 61.7852C296.675 62.0716 295.73 62.2148 294.599 62.2148C293.761 62.2148 293.041 62.1611 292.439 62.0537C291.845 61.9463 291.243 61.7673 290.635 61.5166V58.8096C291.286 59.1032 291.985 59.3467 292.729 59.54C293.481 59.7262 294.14 59.8193 294.706 59.8193C295.343 59.8193 295.798 59.7262 296.07 59.54C296.35 59.3467 296.489 59.096 296.489 58.7881C296.489 58.5876 296.432 58.4085 296.317 58.251C296.21 58.0863 295.974 57.9036 295.608 57.7031C295.243 57.4954 294.67 57.2269 293.89 56.8975C293.138 56.5824 292.518 56.2637 292.031 55.9414C291.551 55.6191 291.193 55.2396 290.957 54.8027C290.728 54.3587 290.613 53.7965 290.613 53.1162C290.613 52.0062 291.043 51.1719 291.902 50.6133C292.769 50.0475 293.925 49.7646 295.372 49.7646C296.117 49.7646 296.826 49.8398 297.499 49.9902C298.179 50.1406 298.878 50.3805 299.594 50.71L298.605 53.0732C298.011 52.8154 297.449 52.6042 296.919 52.4395C296.396 52.2747 295.863 52.1924 295.318 52.1924C294.839 52.1924 294.477 52.2568 294.233 52.3857C293.99 52.5146 293.868 52.7116 293.868 52.9766C293.868 53.1699 293.929 53.3418 294.051 53.4922C294.18 53.6426 294.423 53.8109 294.781 53.9971C295.146 54.1761 295.68 54.4089 296.382 54.6953C297.062 54.9746 297.653 55.2682 298.154 55.5762C298.656 55.877 299.042 56.2529 299.314 56.7041C299.587 57.1481 299.723 57.7246 299.723 58.4336Z" fill="#656C73"/>
</svg>
