<svg width="1020" height="164" viewBox="0 0 1020 164" fill="none" xmlns="http://www.w3.org/2000/svg">
<path d="M1022 17.2043L1004.25 12.4712C986.503 7.7383 950.997 -1.72768 915.5 6.17048C880 13.9503 844.5 39.3901 809 39.3013C773.5 39.3901 738 13.9503 702.5 4.5731C667 -4.9816 631.5 1.52624 596 14.039C560.5 26.6702 525 45.6021 489.5 44.0344C454 42.3482 418.5 20.4582 383 20.3694C347.5 20.4582 312 42.3482 276.5 45.6021C241 48.856 205.5 32.8823 170 26.6702C134.5 20.4582 98.9996 23.4163 63.5 31.4032C28 39.3901 -7.49996 51.8141 -25.25 58.2333L-43 64.534V74H-25.25C-7.49996 74 28 74 63.5 74C98.9996 74 134.5 74 170 74C205.5 74 241 74 276.5 74C312 74 347.5 74 383 74C418.5 74 454 74 489.5 74C525 74 560.5 74 596 74C631.5 74 667 74 702.5 74C738 74 773.5 74 809 74C844.5 74 880 74 915.5 74C950.997 74 986.503 74 1004.25 74H1022V17.2043Z" fill="#F4B400"/>
<path d="M0 55H1024V231H0V55Z" fill="#F4B400"/>
</svg>
