<svg width="1024" height="440" viewBox="0 0 1024 440" fill="none" xmlns="http://www.w3.org/2000/svg">
<path d="M0 34H1024V440H0V34Z" fill="#116AFF"/>
<path d="M1183 10.462L1162.57 7.58387C1142.13 4.70571 1101.27 -1.05062 1060.4 3.75232C1019.53 8.48331 978.667 23.9535 937.8 23.8995C896.933 23.9535 856.067 8.48331 815.2 2.78094C774.333 -3.02935 733.467 0.928122 692.6 8.53726C651.733 16.2184 610.867 27.731 570 26.7776C529.133 25.7523 488.267 12.4408 447.4 12.3868C406.533 12.4408 365.667 25.7523 324.8 27.731C283.933 29.7098 243.067 19.996 202.2 16.2184C161.333 12.4408 120.467 14.2396 79.6 19.0965C38.7333 23.9535 -2.13334 31.5086 -22.5667 35.4121L-43 39.2437V45H-22.5667C-2.13334 45 38.7333 45 79.6 45C120.467 45 161.333 45 202.2 45C243.067 45 283.933 45 324.8 45C365.667 45 406.533 45 447.4 45C488.267 45 529.133 45 570 45C610.867 45 651.733 45 692.6 45C733.467 45 774.333 45 815.2 45C856.067 45 896.933 45 937.8 45C978.667 45 1019.53 45 1060.4 45C1101.27 45 1142.13 45 1162.57 45H1183V10.462Z" fill="#116AFF"/>
</svg>
