<svg width="100" height="100" viewBox="0 0 100 100" fill="none" xmlns="http://www.w3.org/2000/svg">
<circle cx="50" cy="50" r="50" fill="#DB4437"/>
<path d="M22.9524 54.2727C22.8842 53.697 22.6077 53.25 22.1229 52.9318C21.638 52.6136 21.0433 52.4545 20.3388 52.4545C19.8236 52.4545 19.3729 52.5379 18.9865 52.7045C18.6039 52.8712 18.3047 53.1004 18.0888 53.392C17.8767 53.6837 17.7706 54.0152 17.7706 54.3864C17.7706 54.697 17.8445 54.964 17.9922 55.1875C18.1437 55.4072 18.3369 55.5909 18.5717 55.7386C18.8066 55.8826 19.0528 56.0019 19.3104 56.0966C19.5679 56.1875 19.8047 56.2614 20.0206 56.3182L21.2024 56.6364C21.5054 56.7159 21.8426 56.8258 22.2138 56.9659C22.5888 57.1061 22.9467 57.2973 23.2876 57.5398C23.6323 57.7784 23.9164 58.0852 24.1399 58.4602C24.3634 58.8352 24.4751 59.2955 24.4751 59.8409C24.4751 60.4697 24.3104 61.0379 23.9808 61.5455C23.6551 62.053 23.1778 62.4564 22.549 62.7557C21.924 63.0549 21.1645 63.2045 20.2706 63.2045C19.4373 63.2045 18.7157 63.0701 18.1058 62.8011C17.4998 62.5322 17.0225 62.1572 16.674 61.6761C16.3293 61.1951 16.1342 60.6364 16.0888 60H17.5433C17.5812 60.4394 17.7289 60.803 17.9865 61.0909C18.2479 61.375 18.5774 61.5871 18.9751 61.7273C19.3767 61.8636 19.8085 61.9318 20.2706 61.9318C20.8085 61.9318 21.2914 61.8447 21.7195 61.6705C22.1475 61.4924 22.4865 61.2462 22.7365 60.9318C22.9865 60.6136 23.1115 60.2424 23.1115 59.8182C23.1115 59.4318 23.0036 59.1174 22.7876 58.875C22.5717 58.6326 22.2876 58.4356 21.9354 58.2841C21.5831 58.1326 21.2024 58 20.7933 57.8864L19.3615 57.4773C18.4524 57.2159 17.7327 56.8428 17.2024 56.358C16.6721 55.8731 16.407 55.2386 16.407 54.4545C16.407 53.803 16.5831 53.2348 16.9354 52.75C17.2914 52.2614 17.7687 51.8826 18.3672 51.6136C18.9695 51.3409 19.6418 51.2045 20.3842 51.2045C21.1342 51.2045 21.8009 51.339 22.3842 51.608C22.9676 51.8731 23.4297 52.2367 23.7706 52.6989C24.1153 53.161 24.2971 53.6856 24.3161 54.2727H22.9524ZM26.7919 63V51.3636H33.8146V52.6136H28.201V56.5455H33.451V57.7955H28.201V61.75H33.9055V63H26.7919ZM42.718 54.2727C42.6499 53.697 42.3733 53.25 41.8885 52.9318C41.4036 52.6136 40.8089 52.4545 40.1044 52.4545C39.5893 52.4545 39.1385 52.5379 38.7521 52.7045C38.3696 52.8712 38.0703 53.1004 37.8544 53.392C37.6423 53.6837 37.5362 54.0152 37.5362 54.3864C37.5362 54.697 37.6101 54.964 37.7578 55.1875C37.9093 55.4072 38.1025 55.5909 38.3374 55.7386C38.5722 55.8826 38.8184 56.0019 39.076 56.0966C39.3336 56.1875 39.5703 56.2614 39.7862 56.3182L40.968 56.6364C41.2711 56.7159 41.6082 56.8258 41.9794 56.9659C42.3544 57.1061 42.7124 57.2973 43.0533 57.5398C43.398 57.7784 43.6821 58.0852 43.9055 58.4602C44.129 58.8352 44.2408 59.2955 44.2408 59.8409C44.2408 60.4697 44.076 61.0379 43.7464 61.5455C43.4207 62.053 42.9434 62.4564 42.3146 62.7557C41.6896 63.0549 40.9302 63.2045 40.0362 63.2045C39.2029 63.2045 38.4813 63.0701 37.8714 62.8011C37.2654 62.5322 36.7881 62.1572 36.4396 61.6761C36.0949 61.1951 35.8999 60.6364 35.8544 60H37.3089C37.3468 60.4394 37.4946 60.803 37.7521 61.0909C38.0135 61.375 38.343 61.5871 38.7408 61.7273C39.1423 61.8636 39.5741 61.9318 40.0362 61.9318C40.5741 61.9318 41.0571 61.8447 41.4851 61.6705C41.9131 61.4924 42.2521 61.2462 42.5021 60.9318C42.7521 60.6136 42.8771 60.2424 42.8771 59.8182C42.8771 59.4318 42.7692 59.1174 42.5533 58.875C42.3374 58.6326 42.0533 58.4356 41.701 58.2841C41.3487 58.1326 40.968 58 40.5589 57.8864L39.1271 57.4773C38.218 57.2159 37.4983 56.8428 36.968 56.358C36.4377 55.8731 36.1726 55.2386 36.1726 54.4545C36.1726 53.803 36.3487 53.2348 36.701 52.75C37.0571 52.2614 37.5343 51.8826 38.1328 51.6136C38.7351 51.3409 39.4074 51.2045 40.1499 51.2045C40.8999 51.2045 41.5665 51.339 42.1499 51.608C42.7332 51.8731 43.1953 52.2367 43.5362 52.6989C43.8809 53.161 44.0627 53.6856 44.0817 54.2727H42.718ZM52.9212 54.2727C52.853 53.697 52.5765 53.25 52.0916 52.9318C51.6068 52.6136 51.0121 52.4545 50.3075 52.4545C49.7924 52.4545 49.3416 52.5379 48.9553 52.7045C48.5727 52.8712 48.2734 53.1004 48.0575 53.392C47.8454 53.6837 47.7393 54.0152 47.7393 54.3864C47.7393 54.697 47.8132 54.964 47.9609 55.1875C48.1125 55.4072 48.3056 55.5909 48.5405 55.7386C48.7753 55.8826 49.0215 56.0019 49.2791 56.0966C49.5367 56.1875 49.7734 56.2614 49.9893 56.3182L51.1712 56.6364C51.4742 56.7159 51.8113 56.8258 52.1825 56.9659C52.5575 57.1061 52.9155 57.2973 53.2564 57.5398C53.6011 57.7784 53.8852 58.0852 54.1087 58.4602C54.3322 58.8352 54.4439 59.2955 54.4439 59.8409C54.4439 60.4697 54.2791 61.0379 53.9496 61.5455C53.6238 62.053 53.1465 62.4564 52.5178 62.7557C51.8928 63.0549 51.1333 63.2045 50.2393 63.2045C49.406 63.2045 48.6844 63.0701 48.0746 62.8011C47.4685 62.5322 46.9912 62.1572 46.6428 61.6761C46.2981 61.1951 46.103 60.6364 46.0575 60H47.5121C47.55 60.4394 47.6977 60.803 47.9553 61.0909C48.2166 61.375 48.5462 61.5871 48.9439 61.7273C49.3454 61.8636 49.7772 61.9318 50.2393 61.9318C50.7772 61.9318 51.2602 61.8447 51.6882 61.6705C52.1162 61.4924 52.4553 61.2462 52.7053 60.9318C52.9553 60.6136 53.0803 60.2424 53.0803 59.8182C53.0803 59.4318 52.9723 59.1174 52.7564 58.875C52.5405 58.6326 52.2564 58.4356 51.9041 58.2841C51.5518 58.1326 51.1712 58 50.7621 57.8864L49.3303 57.4773C48.4212 57.2159 47.7015 56.8428 47.1712 56.358C46.6409 55.8731 46.3757 55.2386 46.3757 54.4545C46.3757 53.803 46.5518 53.2348 46.9041 52.75C47.2602 52.2614 47.7375 51.8826 48.3359 51.6136C48.9382 51.3409 49.6106 51.2045 50.353 51.2045C51.103 51.2045 51.7696 51.339 52.353 51.608C52.9363 51.8731 53.3984 52.2367 53.7393 52.6989C54.084 53.161 54.2659 53.6856 54.2848 54.2727H52.9212ZM58.1697 51.3636V63H56.7607V51.3636H58.1697ZM70.8132 57.1818C70.8132 58.4091 70.5916 59.4697 70.1484 60.3636C69.7053 61.2576 69.0973 61.947 68.3246 62.4318C67.5518 62.9167 66.6693 63.1591 65.6768 63.1591C64.6844 63.1591 63.8018 62.9167 63.0291 62.4318C62.2564 61.947 61.6484 61.2576 61.2053 60.3636C60.7621 59.4697 60.5405 58.4091 60.5405 57.1818C60.5405 55.9545 60.7621 54.8939 61.2053 54C61.6484 53.1061 62.2564 52.4167 63.0291 51.9318C63.8018 51.447 64.6844 51.2045 65.6768 51.2045C66.6693 51.2045 67.5518 51.447 68.3246 51.9318C69.0973 52.4167 69.7053 53.1061 70.1484 54C70.5916 54.8939 70.8132 55.9545 70.8132 57.1818ZM69.4496 57.1818C69.4496 56.1742 69.281 55.3239 68.9439 54.6307C68.6106 53.9375 68.1579 53.4129 67.5859 53.0568C67.0178 52.7008 66.3814 52.5227 65.6768 52.5227C64.9723 52.5227 64.334 52.7008 63.7621 53.0568C63.1939 53.4129 62.7412 53.9375 62.4041 54.6307C62.0708 55.3239 61.9041 56.1742 61.9041 57.1818C61.9041 58.1894 62.0708 59.0398 62.4041 59.733C62.7412 60.4261 63.1939 60.9508 63.7621 61.3068C64.334 61.6629 64.9723 61.8409 65.6768 61.8409C66.3814 61.8409 67.0178 61.6629 67.5859 61.3068C68.1579 60.9508 68.6106 60.4261 68.9439 59.733C69.281 59.0398 69.4496 58.1894 69.4496 57.1818ZM82.4098 51.3636V63H81.0462L74.7053 53.8636H74.5916V63H73.1825V51.3636H74.5462L80.9098 60.5227H81.0234V51.3636H82.4098Z" fill="white"/>
<path d="M22.9524 54.2727L22.4559 54.3315L22.5081 54.7727H22.9524V54.2727ZM22.1229 52.9318L21.8485 53.3498L21.8485 53.3498L22.1229 52.9318ZM18.9865 52.7045L18.7885 52.2454L18.7868 52.2462L18.9865 52.7045ZM18.0888 53.392L17.6869 53.0945L17.6844 53.098L18.0888 53.392ZM17.9922 55.1875L17.575 55.4633L17.5806 55.4714L17.9922 55.1875ZM18.5717 55.7386L18.3055 56.1619L18.3105 56.1649L18.5717 55.7386ZM19.3104 56.0966L19.1378 56.5659L19.144 56.5681L19.3104 56.0966ZM20.0206 56.3182L20.1506 55.8354L20.1478 55.8346L20.0206 56.3182ZM21.2024 56.6364L21.0724 57.1192L21.0755 57.12L21.2024 56.6364ZM22.2138 56.9659L22.0372 57.4337L22.0387 57.4343L22.2138 56.9659ZM23.2876 57.5398L22.9979 57.9473L23.003 57.9509L23.2876 57.5398ZM24.1399 58.4602L24.5694 58.2043L24.5694 58.2043L24.1399 58.4602ZM23.9808 61.5455L23.5615 61.2732L23.56 61.2754L23.9808 61.5455ZM22.549 62.7557L22.3341 62.3042L22.3331 62.3047L22.549 62.7557ZM18.1058 62.8011L17.903 63.2582L17.9041 63.2586L18.1058 62.8011ZM16.674 61.6761L16.2676 61.9674L16.2691 61.9695L16.674 61.6761ZM16.0888 60V59.5H15.5518L15.59 60.0356L16.0888 60ZM17.5433 60L18.0415 59.9571L18.0021 59.5H17.5433V60ZM17.9865 61.0909L17.6138 61.4243L17.6185 61.4294L17.9865 61.0909ZM18.9751 61.7273L18.809 62.1989L18.8144 62.2007L18.9751 61.7273ZM21.7195 61.6705L21.908 62.1336L21.9115 62.1321L21.7195 61.6705ZM22.7365 60.9318L23.1279 61.243L23.1297 61.2407L22.7365 60.9318ZM22.7876 58.875L23.161 58.5425L23.161 58.5425L22.7876 58.875ZM21.9354 58.2841L21.7378 58.7434L21.7378 58.7434L21.9354 58.2841ZM20.7933 57.8864L20.656 58.3671L20.6595 58.3681L20.7933 57.8864ZM19.3615 57.4773L19.2234 57.9578L19.2241 57.958L19.3615 57.4773ZM17.2024 56.358L16.865 56.727L16.865 56.727L17.2024 56.358ZM16.9354 52.75L16.5313 52.4555L16.5309 52.4561L16.9354 52.75ZM18.3672 51.6136L18.5721 52.0697L18.5734 52.0691L18.3672 51.6136ZM22.3842 51.608L22.1749 52.062L22.1773 52.0631L22.3842 51.608ZM23.7706 52.6989L23.3682 52.9957L23.3698 52.9978L23.7706 52.6989ZM24.3161 54.2727V54.7727H24.8324L24.8158 54.2566L24.3161 54.2727ZM23.4489 54.2139C23.3634 53.4914 23.0055 52.913 22.3972 52.5138L21.8485 53.3498C22.2099 53.587 22.4051 53.9025 22.4559 54.3315L23.4489 54.2139ZM22.3972 52.5138C21.8148 52.1316 21.1197 51.9545 20.3388 51.9545V52.9545C20.967 52.9545 21.4612 53.0957 21.8485 53.3498L22.3972 52.5138ZM20.3388 51.9545C19.7704 51.9545 19.2497 52.0465 18.7885 52.2454L19.1846 53.1637C19.496 53.0293 19.8769 52.9545 20.3388 52.9545V51.9545ZM18.7868 52.2462C18.3361 52.4425 17.9623 52.7225 17.6869 53.0946L18.4906 53.6895C18.647 53.4783 18.8717 53.2999 19.1862 53.1629L18.7868 52.2462ZM17.6844 53.098C17.4082 53.4777 17.2706 53.9128 17.2706 54.3864H18.2706C18.2706 54.1175 18.3451 53.8897 18.4931 53.6861L17.6844 53.098ZM17.2706 54.3864C17.2706 54.779 17.3651 55.1455 17.5751 55.4632L18.4093 54.9118C18.3238 54.7825 18.2706 54.6149 18.2706 54.3864H17.2706ZM17.5806 55.4714C17.7721 55.7491 18.0156 55.9795 18.3055 56.1619L18.838 55.3154C18.6582 55.2023 18.5153 55.0653 18.4038 54.9036L17.5806 55.4714ZM18.3105 56.1649C18.5733 56.326 18.8492 56.4598 19.1378 56.5659L19.4829 55.6273C19.2564 55.544 19.0399 55.4391 18.833 55.3123L18.3105 56.1649ZM19.144 56.5681C19.4117 56.6626 19.6617 56.7408 19.8934 56.8017L20.1478 55.8346C19.9477 55.782 19.7242 55.7124 19.4768 55.6251L19.144 56.5681ZM19.8906 56.801L21.0724 57.1192L21.3324 56.1536L20.1506 55.8354L19.8906 56.801ZM21.0755 57.12C21.3579 57.1941 21.6782 57.2981 22.0372 57.4337L22.3904 56.4981C22.007 56.3534 21.6529 56.2377 21.3294 56.1527L21.0755 57.12ZM22.0387 57.4343C22.3712 57.5585 22.6908 57.7289 22.9979 57.9473L23.5774 57.1323C23.2027 56.8658 22.8063 56.6536 22.3888 56.4976L22.0387 57.4343ZM23.003 57.9509C23.2864 58.1471 23.522 58.4001 23.7104 58.7162L24.5694 58.2043C24.3108 57.7704 23.9782 57.4097 23.5722 57.1287L23.003 57.9509ZM23.7104 58.7162C23.8775 58.9967 23.9751 59.3633 23.9751 59.8409H24.9751C24.9751 59.2276 24.8493 58.6738 24.5694 58.2043L23.7104 58.7162ZM23.9751 59.8409C23.9751 60.377 23.8363 60.8499 23.5615 61.2732L24.4002 61.8177C24.7845 61.2258 24.9751 60.5624 24.9751 59.8409H23.9751ZM23.56 61.2754C23.292 61.693 22.892 62.0387 22.3341 62.3042L22.7639 63.2072C23.4636 62.8742 24.0181 62.4131 24.4016 61.8155L23.56 61.2754ZM22.3331 62.3047C21.7921 62.5637 21.1107 62.7045 20.2706 62.7045V63.7045C21.2184 63.7045 22.0559 63.5461 22.7649 63.2067L22.3331 62.3047ZM20.2706 62.7045C19.4899 62.7045 18.8401 62.5785 18.3076 62.3436L17.9041 63.2586C18.5913 63.5617 19.3846 63.7045 20.2706 63.7045V62.7045ZM18.3086 62.3441C17.7736 62.1067 17.3698 61.7844 17.0789 61.3828L16.2691 61.9695C16.6751 62.53 17.2259 62.9577 17.903 63.2582L18.3086 62.3441ZM17.0804 61.3849C16.7937 60.9848 16.6269 60.5161 16.5875 59.9644L15.59 60.0356C15.6415 60.7566 15.8649 61.4054 16.2676 61.9674L17.0804 61.3849ZM16.0888 60.5H17.5433V59.5H16.0888V60.5ZM17.0452 60.0429C17.091 60.5742 17.2741 61.0446 17.6139 61.4243L18.3591 60.7575C18.1837 60.5615 18.0714 60.3046 18.0415 59.9571L17.0452 60.0429ZM17.6185 61.4294C17.9403 61.7792 18.3414 62.0341 18.809 62.1989L19.1413 61.2557C18.8134 61.1402 18.5555 60.9708 18.3545 60.7524L17.6185 61.4294ZM18.8144 62.2007C19.2721 62.3562 19.7587 62.4318 20.2706 62.4318V61.4318C19.8583 61.4318 19.4812 61.3711 19.1359 61.2538L18.8144 62.2007ZM20.2706 62.4318C20.8627 62.4318 21.4111 62.3358 21.908 62.1336L21.5309 61.2074C21.1717 61.3536 20.7543 61.4318 20.2706 61.4318V62.4318ZM21.9115 62.1321C22.4055 61.9267 22.8176 61.6332 23.1279 61.243L22.3452 60.6206C22.1554 60.8592 21.8895 61.0582 21.5274 61.2088L21.9115 62.1321ZM23.1297 61.2407C23.4524 60.83 23.6115 60.3486 23.6115 59.8182H22.6115C22.6115 60.1362 22.5206 60.3973 22.3433 60.6229L23.1297 61.2407ZM23.6115 59.8182C23.6115 59.3338 23.4735 58.8933 23.161 58.5425L22.4143 59.2075C22.5336 59.3416 22.6115 59.5298 22.6115 59.8182H23.6115ZM23.161 58.5425C22.8885 58.2364 22.5403 58 22.1329 57.8248L21.7378 58.7434C22.035 58.8712 22.255 59.0287 22.4143 59.2075L23.161 58.5425ZM22.1329 57.8248C21.7579 57.6635 21.3557 57.5236 20.9271 57.4046L20.6595 58.3681C21.0491 58.4764 21.4083 58.6017 21.7378 58.7434L22.1329 57.8248ZM20.9307 57.4056L19.4989 56.9965L19.2241 57.958L20.656 58.3671L20.9307 57.4056ZM19.4997 56.9967C18.6422 56.7502 17.9981 56.408 17.5398 55.9889L16.865 56.727C17.4673 57.2776 18.2626 57.6816 19.2234 57.9578L19.4997 56.9967ZM17.5398 55.9889C17.1232 55.6081 16.907 55.1126 16.907 54.4545H15.907C15.907 55.3647 16.221 56.1382 16.865 56.727L17.5398 55.9889ZM16.907 54.4545C16.907 53.8989 17.0551 53.4358 17.3399 53.0439L16.5309 52.4561C16.1111 53.0339 15.907 53.7071 15.907 54.4545H16.907ZM17.3395 53.0445C17.64 52.632 18.046 52.3061 18.5721 52.0697L18.1622 51.1576C17.4914 51.459 16.9429 51.8907 16.5313 52.4555L17.3395 53.0445ZM18.5734 52.0691C19.1034 51.8291 19.7042 51.7045 20.3842 51.7045V50.7045C19.5794 50.7045 18.8355 50.8527 18.1609 51.1582L18.5734 52.0691ZM20.3842 51.7045C21.074 51.7045 21.6673 51.828 22.1749 52.062L22.5936 51.1539C21.9345 50.85 21.1945 50.7045 20.3842 50.7045V51.7045ZM22.1773 52.0631C22.6922 52.2972 23.0836 52.6098 23.3682 52.9957L24.173 52.402C23.7758 51.8637 23.2429 51.449 22.5911 51.1528L22.1773 52.0631ZM23.3698 52.9978C23.6522 53.3763 23.8006 53.8018 23.8163 54.2888L24.8158 54.2566C24.7936 53.5694 24.5784 52.9456 24.1714 52.3999L23.3698 52.9978ZM24.3161 53.7727H22.9524V54.7727H24.3161V53.7727ZM26.7919 63H26.2919V63.5H26.7919V63ZM26.7919 51.3636V50.8636H26.2919V51.3636H26.7919ZM33.8146 51.3636H34.3146V50.8636H33.8146V51.3636ZM33.8146 52.6136V53.1136H34.3146V52.6136H33.8146ZM28.201 52.6136V52.1136H27.701V52.6136H28.201ZM28.201 56.5455H27.701V57.0455H28.201V56.5455ZM33.451 56.5455H33.951V56.0455H33.451V56.5455ZM33.451 57.7955V58.2955H33.951V57.7955H33.451ZM28.201 57.7955V57.2955H27.701V57.7955H28.201ZM28.201 61.75H27.701V62.25H28.201V61.75ZM33.9055 61.75H34.4055V61.25H33.9055V61.75ZM33.9055 63V63.5H34.4055V63H33.9055ZM27.2919 63V51.3636H26.2919V63H27.2919ZM26.7919 51.8636H33.8146V50.8636H26.7919V51.8636ZM33.3146 51.3636V52.6136H34.3146V51.3636H33.3146ZM33.8146 52.1136H28.201V53.1136H33.8146V52.1136ZM27.701 52.6136V56.5455H28.701V52.6136H27.701ZM28.201 57.0455H33.451V56.0455H28.201V57.0455ZM32.951 56.5455V57.7955H33.951V56.5455H32.951ZM33.451 57.2955H28.201V58.2955H33.451V57.2955ZM27.701 57.7955V61.75H28.701V57.7955H27.701ZM28.201 62.25H33.9055V61.25H28.201V62.25ZM33.4055 61.75V63H34.4055V61.75H33.4055ZM33.9055 62.5H26.7919V63.5H33.9055V62.5ZM42.718 54.2727L42.2215 54.3315L42.2738 54.7727H42.718V54.2727ZM41.8885 52.9318L41.6142 53.3498L41.6142 53.3498L41.8885 52.9318ZM38.7521 52.7045L38.5541 52.2454L38.5524 52.2462L38.7521 52.7045ZM37.8544 53.392L37.4525 53.0945L37.45 53.098L37.8544 53.392ZM37.7578 55.1875L37.3406 55.4633L37.3462 55.4714L37.7578 55.1875ZM38.3374 55.7386L38.0711 56.1619L38.0761 56.1649L38.3374 55.7386ZM39.076 56.0966L38.9034 56.5659L38.9096 56.5681L39.076 56.0966ZM39.7862 56.3182L39.9162 55.8354L39.9135 55.8346L39.7862 56.3182ZM40.968 56.6364L40.8381 57.1192L40.8411 57.12L40.968 56.6364ZM41.9794 56.9659L41.8028 57.4337L41.8044 57.4343L41.9794 56.9659ZM43.0533 57.5398L42.7635 57.9473L42.7687 57.9509L43.0533 57.5398ZM43.9055 58.4602L44.3351 58.2043L44.3351 58.2043L43.9055 58.4602ZM43.7464 61.5455L43.3271 61.2732L43.3257 61.2754L43.7464 61.5455ZM42.3146 62.7557L42.0998 62.3042L42.0987 62.3047L42.3146 62.7557ZM37.8714 62.8011L37.6686 63.2582L37.6697 63.2586L37.8714 62.8011ZM36.4396 61.6761L36.0332 61.9674L36.0347 61.9695L36.4396 61.6761ZM35.8544 60V59.5H35.3174L35.3557 60.0356L35.8544 60ZM37.3089 60L37.8071 59.9571L37.7677 59.5H37.3089V60ZM37.7521 61.0909L37.3795 61.4243L37.3842 61.4294L37.7521 61.0909ZM38.7408 61.7273L38.5746 62.1989L38.58 62.2007L38.7408 61.7273ZM41.4851 61.6705L41.6736 62.1336L41.6771 62.1321L41.4851 61.6705ZM42.5021 60.9318L42.8935 61.243L42.8953 61.2407L42.5021 60.9318ZM42.5533 58.875L42.9267 58.5425L42.9266 58.5425L42.5533 58.875ZM41.701 58.2841L41.5034 58.7434L41.5034 58.7434L41.701 58.2841ZM40.5589 57.8864L40.4216 58.3671L40.4251 58.3681L40.5589 57.8864ZM39.1271 57.4773L38.989 57.9578L38.9898 57.958L39.1271 57.4773ZM36.968 56.358L36.6307 56.727L36.6307 56.727L36.968 56.358ZM36.701 52.75L36.2969 52.4555L36.2965 52.4561L36.701 52.75ZM38.1328 51.6136L38.3378 52.0697L38.3391 52.0691L38.1328 51.6136ZM42.1499 51.608L41.9405 52.062L41.943 52.0631L42.1499 51.608ZM43.5362 52.6989L43.1339 52.9957L43.1354 52.9978L43.5362 52.6989ZM44.0817 54.2727V54.7727H44.5981L44.5814 54.2566L44.0817 54.2727ZM43.2146 54.2139C43.129 53.4914 42.7711 52.913 42.1628 52.5138L41.6142 53.3498C41.9756 53.587 42.1707 53.9025 42.2215 54.3315L43.2146 54.2139ZM42.1628 52.5138C41.5804 52.1316 40.8853 51.9545 40.1044 51.9545V52.9545C40.7326 52.9545 41.2269 53.0957 41.6142 53.3498L42.1628 52.5138ZM40.1044 51.9545C39.536 51.9545 39.0153 52.0465 38.5541 52.2454L38.9502 53.1637C39.2616 53.0293 39.6425 52.9545 40.1044 52.9545V51.9545ZM38.5524 52.2462C38.1017 52.4425 37.728 52.7225 37.4525 53.0946L38.2563 53.6895C38.4127 53.4783 38.6374 53.2999 38.9518 53.1629L38.5524 52.2462ZM37.45 53.098C37.1738 53.4777 37.0362 53.9128 37.0362 54.3864H38.0362C38.0362 54.1175 38.1107 53.8897 38.2588 53.6861L37.45 53.098ZM37.0362 54.3864C37.0362 54.779 37.1307 55.1455 37.3407 55.4632L38.1749 54.9118C38.0895 54.7825 38.0362 54.6149 38.0362 54.3864H37.0362ZM37.3462 55.4714C37.5378 55.7491 37.7812 55.9795 38.0711 56.1619L38.6036 55.3154C38.4238 55.2023 38.2809 55.0653 38.1694 54.9036L37.3462 55.4714ZM38.0761 56.1649C38.3389 56.326 38.6148 56.4598 38.9035 56.5659L39.2485 55.6273C39.022 55.544 38.8055 55.4391 38.5986 55.3123L38.0761 56.1649ZM38.9096 56.5681C39.1773 56.6626 39.4273 56.7408 39.659 56.8017L39.9135 55.8346C39.7133 55.782 39.4898 55.7124 39.2424 55.6251L38.9096 56.5681ZM39.6562 56.801L40.8381 57.1192L41.098 56.1536L39.9162 55.8354L39.6562 56.801ZM40.8411 57.12C41.1236 57.1941 41.4438 57.2981 41.8028 57.4337L42.156 56.4981C41.7726 56.3534 41.4186 56.2377 41.095 56.1527L40.8411 57.12ZM41.8044 57.4343C42.1368 57.5585 42.4564 57.7289 42.7635 57.9473L43.343 57.1323C42.9683 56.8658 42.572 56.6536 42.1544 56.4976L41.8044 57.4343ZM42.7687 57.9509C43.0521 58.1471 43.2876 58.4001 43.476 58.7162L44.3351 58.2043C44.0765 57.7704 43.7439 57.4097 43.3379 57.1287L42.7687 57.9509ZM43.476 58.7162C43.6432 58.9967 43.7408 59.3633 43.7408 59.8409H44.7408C44.7408 59.2276 44.6149 58.6738 44.3351 58.2043L43.476 58.7162ZM43.7408 59.8409C43.7408 60.377 43.6019 60.8499 43.3271 61.2732L44.1658 61.8177C44.5501 61.2258 44.7408 60.5624 44.7408 59.8409H43.7408ZM43.3257 61.2754C43.0577 61.693 42.6576 62.0387 42.0998 62.3042L42.5295 63.2072C43.2292 62.8742 43.7837 62.4131 44.1672 61.8155L43.3257 61.2754ZM42.0987 62.3047C41.5577 62.5637 40.8763 62.7045 40.0362 62.7045V63.7045C40.984 63.7045 41.8215 63.5461 42.5306 63.2067L42.0987 62.3047ZM40.0362 62.7045C39.2555 62.7045 38.6057 62.5785 38.0732 62.3436L37.6697 63.2586C38.3569 63.5617 39.1503 63.7045 40.0362 63.7045V62.7045ZM38.0743 62.3441C37.5392 62.1067 37.1355 61.7844 36.8445 61.3828L36.0347 61.9695C36.4408 62.53 36.9915 62.9577 37.6686 63.2582L38.0743 62.3441ZM36.8461 61.3849C36.5593 60.9848 36.3925 60.5161 36.3531 59.9644L35.3557 60.0356C35.4072 60.7566 35.6305 61.4054 36.0332 61.9674L36.8461 61.3849ZM35.8544 60.5H37.3089V59.5H35.8544V60.5ZM36.8108 60.0429C36.8566 60.5742 37.0398 61.0446 37.3795 61.4243L38.1248 60.7575C37.9494 60.5615 37.8371 60.3046 37.8071 59.9571L36.8108 60.0429ZM37.3842 61.4294C37.7059 61.7792 38.107 62.0341 38.5746 62.1989L38.9069 61.2557C38.5791 61.1402 38.3211 60.9708 38.1201 60.7524L37.3842 61.4294ZM38.58 62.2007C39.0377 62.3562 39.5243 62.4318 40.0362 62.4318V61.4318C39.6239 61.4318 39.2468 61.3711 38.9016 61.2538L38.58 62.2007ZM40.0362 62.4318C40.6283 62.4318 41.1767 62.3358 41.6736 62.1336L41.2966 61.2074C40.9374 61.3536 40.5199 61.4318 40.0362 61.4318V62.4318ZM41.6771 62.1321C42.1711 61.9267 42.5832 61.6332 42.8935 61.243L42.1108 60.6206C41.921 60.8592 41.6551 61.0582 41.2931 61.2088L41.6771 62.1321ZM42.8953 61.2407C43.218 60.83 43.3771 60.3486 43.3771 59.8182H42.3771C42.3771 60.1362 42.2862 60.3973 42.109 60.6229L42.8953 61.2407ZM43.3771 59.8182C43.3771 59.3338 43.2391 58.8933 42.9267 58.5425L42.1799 59.2075C42.2992 59.3416 42.3771 59.5298 42.3771 59.8182H43.3771ZM42.9266 58.5425C42.6541 58.2364 42.3059 58 41.8985 57.8248L41.5034 58.7434C41.8006 58.8712 42.0206 59.0287 42.1799 59.2075L42.9266 58.5425ZM41.8986 57.8248C41.5235 57.6635 41.1213 57.5236 40.6928 57.4046L40.4251 58.3681C40.8148 58.4764 41.1739 58.6017 41.5034 58.7434L41.8986 57.8248ZM40.6963 57.4056L39.2645 56.9965L38.9898 57.958L40.4216 58.3671L40.6963 57.4056ZM39.2653 56.9967C38.4078 56.7502 37.7637 56.408 37.3054 55.9889L36.6307 56.727C37.233 57.2776 38.0283 57.6816 38.989 57.9578L39.2653 56.9967ZM37.3054 55.9889C36.8888 55.6081 36.6726 55.1126 36.6726 54.4545H35.6726C35.6726 55.3647 35.9866 56.1382 36.6307 56.727L37.3054 55.9889ZM36.6726 54.4545C36.6726 53.8989 36.8208 53.4358 37.1055 53.0439L36.2965 52.4561C35.8767 53.0339 35.6726 53.7071 35.6726 54.4545H36.6726ZM37.1051 53.0445C37.4056 52.632 37.8116 52.3061 38.3378 52.0697L37.9279 51.1576C37.257 51.459 36.7085 51.8907 36.2969 52.4555L37.1051 53.0445ZM38.3391 52.0691C38.869 51.8291 39.4698 51.7045 40.1499 51.7045V50.7045C39.3451 50.7045 38.6012 50.8527 37.9266 51.1582L38.3391 52.0691ZM40.1499 51.7045C40.8396 51.7045 41.4329 51.828 41.9405 52.062L42.3592 51.1539C41.7001 50.85 40.9601 50.7045 40.1499 50.7045V51.7045ZM41.943 52.0631C42.4579 52.2972 42.8492 52.6098 43.1339 52.9957L43.9386 52.402C43.5414 51.8637 43.0085 51.449 42.3568 51.1528L41.943 52.0631ZM43.1354 52.9978C43.4178 53.3763 43.5662 53.8018 43.5819 54.2888L44.5814 54.2566C44.5592 53.5694 44.3441 52.9456 43.937 52.3999L43.1354 52.9978ZM44.0817 53.7727H42.718V54.7727H44.0817V53.7727ZM52.9212 54.2727L52.4246 54.3315L52.4769 54.7727H52.9212V54.2727ZM52.0916 52.9318L51.8173 53.3498L51.8173 53.3498L52.0916 52.9318ZM48.9553 52.7045L48.7572 52.2454L48.7556 52.2462L48.9553 52.7045ZM48.0575 53.392L47.6556 53.0945L47.6532 53.098L48.0575 53.392ZM47.9609 55.1875L47.5437 55.4633L47.5493 55.4714L47.9609 55.1875ZM48.5405 55.7386L48.2742 56.1619L48.2792 56.1649L48.5405 55.7386ZM49.2791 56.0966L49.1066 56.5659L49.1127 56.5681L49.2791 56.0966ZM49.9893 56.3182L50.1193 55.8354L50.1166 55.8346L49.9893 56.3182ZM51.1712 56.6364L51.0412 57.1192L51.0442 57.12L51.1712 56.6364ZM52.1825 56.9659L52.0059 57.4337L52.0075 57.4343L52.1825 56.9659ZM53.2564 57.5398L52.9666 57.9473L52.9718 57.9509L53.2564 57.5398ZM54.1087 58.4602L54.5382 58.2043L54.5382 58.2043L54.1087 58.4602ZM53.9496 61.5455L53.5302 61.2732L53.5288 61.2754L53.9496 61.5455ZM52.5178 62.7557L52.3029 62.3042L52.3018 62.3047L52.5178 62.7557ZM48.0746 62.8011L47.8718 63.2582L47.8728 63.2586L48.0746 62.8011ZM46.6428 61.6761L46.2363 61.9674L46.2378 61.9695L46.6428 61.6761ZM46.0575 60V59.5H45.5205L45.5588 60.0356L46.0575 60ZM47.5121 60L48.0102 59.9571L47.9708 59.5H47.5121V60ZM47.9553 61.0909L47.5826 61.4243L47.5873 61.4294L47.9553 61.0909ZM48.9439 61.7273L48.7777 62.1989L48.7831 62.2007L48.9439 61.7273ZM51.6882 61.6705L51.8767 62.1336L51.8802 62.1321L51.6882 61.6705ZM52.7053 60.9318L53.0966 61.243L53.0984 61.2407L52.7053 60.9318ZM52.7564 58.875L53.1298 58.5425L53.1298 58.5425L52.7564 58.875ZM51.9041 58.2841L51.7066 58.7434L51.7066 58.7434L51.9041 58.2841ZM50.7621 57.8864L50.6247 58.3671L50.6283 58.3681L50.7621 57.8864ZM49.3303 57.4773L49.1921 57.9578L49.1929 57.958L49.3303 57.4773ZM47.1712 56.358L46.8338 56.727L46.8338 56.727L47.1712 56.358ZM46.9041 52.75L46.5 52.4555L46.4996 52.4561L46.9041 52.75ZM48.3359 51.6136L48.5409 52.0697L48.5422 52.0691L48.3359 51.6136ZM52.353 51.608L52.1436 52.062L52.1461 52.0631L52.353 51.608ZM53.7393 52.6989L53.337 52.9957L53.3386 52.9978L53.7393 52.6989ZM54.2848 54.2727V54.7727H54.8012L54.7845 54.2566L54.2848 54.2727ZM53.4177 54.2139C53.3321 53.4914 52.9743 52.913 52.3659 52.5138L51.8173 53.3498C52.1787 53.587 52.3738 53.9025 52.4246 54.3315L53.4177 54.2139ZM52.3659 52.5138C51.7836 52.1316 51.0884 51.9545 50.3075 51.9545V52.9545C50.9357 52.9545 51.43 53.0957 51.8173 53.3498L52.3659 52.5138ZM50.3075 51.9545C49.7392 51.9545 49.2185 52.0465 48.7572 52.2454L49.1533 53.1637C49.4648 53.0293 49.8456 52.9545 50.3075 52.9545V51.9545ZM48.7556 52.2462C48.3049 52.4425 47.9311 52.7225 47.6557 53.0946L48.4594 53.6895C48.6158 53.4783 48.8405 53.2999 49.155 53.1629L48.7556 52.2462ZM47.6532 53.098C47.377 53.4777 47.2393 53.9128 47.2393 54.3864H48.2393C48.2393 54.1175 48.3139 53.8897 48.4619 53.6861L47.6532 53.098ZM47.2393 54.3864C47.2393 54.779 47.3338 55.1455 47.5438 55.4632L48.378 54.9118C48.2926 54.7825 48.2393 54.6149 48.2393 54.3864H47.2393ZM47.5493 55.4714C47.7409 55.7491 47.9843 55.9795 48.2743 56.1619L48.8067 55.3154C48.6269 55.2023 48.484 55.0653 48.3725 54.9036L47.5493 55.4714ZM48.2792 56.1649C48.542 56.326 48.818 56.4598 49.1066 56.5659L49.4517 55.6273C49.2251 55.544 49.0086 55.4391 48.8018 55.3123L48.2792 56.1649ZM49.1127 56.5681C49.3804 56.6626 49.6305 56.7408 49.8621 56.8017L50.1166 55.8346C49.9164 55.782 49.6929 55.7124 49.4455 55.6251L49.1127 56.5681ZM49.8594 56.801L51.0412 57.1192L51.3012 56.1536L50.1193 55.8354L49.8594 56.801ZM51.0442 57.12C51.3267 57.1941 51.6469 57.2981 52.0059 57.4337L52.3591 56.4981C51.9757 56.3534 51.6217 56.2377 51.2981 56.1527L51.0442 57.12ZM52.0075 57.4343C52.34 57.5585 52.6596 57.7289 52.9666 57.9473L53.5462 57.1323C53.1714 56.8658 52.7751 56.6536 52.3576 56.4976L52.0075 57.4343ZM52.9718 57.9509C53.2552 58.1471 53.4908 58.4001 53.6792 58.7162L54.5382 58.2043C54.2796 57.7704 53.947 57.4097 53.541 57.1287L52.9718 57.9509ZM53.6792 58.7162C53.8463 58.9967 53.9439 59.3633 53.9439 59.8409H54.9439C54.9439 59.2276 54.818 58.6738 54.5382 58.2043L53.6792 58.7162ZM53.9439 59.8409C53.9439 60.377 53.805 60.8499 53.5302 61.2732L54.3689 61.8177C54.7532 61.2258 54.9439 60.5624 54.9439 59.8409H53.9439ZM53.5288 61.2754C53.2608 61.693 52.8607 62.0387 52.3029 62.3042L52.7326 63.2072C53.4323 62.8742 53.9868 62.4131 54.3704 61.8155L53.5288 61.2754ZM52.3018 62.3047C51.7608 62.5637 51.0794 62.7045 50.2393 62.7045V63.7045C51.1871 63.7045 52.0247 63.5461 52.7337 63.2067L52.3018 62.3047ZM50.2393 62.7045C49.4586 62.7045 48.8088 62.5785 48.2763 62.3436L47.8728 63.2586C48.56 63.5617 49.3534 63.7045 50.2393 63.7045V62.7045ZM48.2774 62.3441C47.7424 62.1067 47.3386 61.7844 47.0477 61.3828L46.2378 61.9695C46.6439 62.53 47.1947 62.9577 47.8718 63.2582L48.2774 62.3441ZM47.0492 61.3849C46.7625 60.9848 46.5957 60.5161 46.5563 59.9644L45.5588 60.0356C45.6103 60.7566 45.8337 61.4054 46.2363 61.9674L47.0492 61.3849ZM46.0575 60.5H47.5121V59.5H46.0575V60.5ZM47.0139 60.0429C47.0597 60.5742 47.2429 61.0446 47.5826 61.4243L48.3279 60.7575C48.1525 60.5615 48.0402 60.3046 48.0102 59.9571L47.0139 60.0429ZM47.5873 61.4294C47.909 61.7792 48.3101 62.0341 48.7777 62.1989L49.1101 61.2557C48.7822 61.1402 48.5242 60.9708 48.3232 60.7524L47.5873 61.4294ZM48.7831 62.2007C49.2408 62.3562 49.7274 62.4318 50.2393 62.4318V61.4318C49.827 61.4318 49.45 61.3711 49.1047 61.2538L48.7831 62.2007ZM50.2393 62.4318C50.8314 62.4318 51.3799 62.3358 51.8767 62.1336L51.4997 61.2074C51.1405 61.3536 50.723 61.4318 50.2393 61.4318V62.4318ZM51.8802 62.1321C52.3742 61.9267 52.7863 61.6332 53.0966 61.243L52.3139 60.6206C52.1242 60.8592 51.8583 61.0582 51.4962 61.2088L51.8802 62.1321ZM53.0984 61.2407C53.4212 60.83 53.5803 60.3486 53.5803 59.8182H52.5803C52.5803 60.1362 52.4894 60.3973 52.3121 60.6229L53.0984 61.2407ZM53.5803 59.8182C53.5803 59.3338 53.4422 58.8933 53.1298 58.5425L52.383 59.2075C52.5024 59.3416 52.5803 59.5298 52.5803 59.8182H53.5803ZM53.1298 58.5425C52.8572 58.2364 52.5091 58 52.1017 57.8248L51.7066 58.7434C52.0037 58.8712 52.2238 59.0287 52.383 59.2075L53.1298 58.5425ZM52.1017 57.8248C51.7266 57.6635 51.3244 57.5236 50.8959 57.4046L50.6283 58.3681C51.0179 58.4764 51.3771 58.6017 51.7066 58.7434L52.1017 57.8248ZM50.8994 57.4056L49.4676 56.9965L49.1929 57.958L50.6247 58.3671L50.8994 57.4056ZM49.4684 56.9967C48.6109 56.7502 47.9669 56.408 47.5085 55.9889L46.8338 56.727C47.4361 57.2776 48.2314 57.6816 49.1921 57.9578L49.4684 56.9967ZM47.5085 55.9889C47.092 55.6081 46.8757 55.1126 46.8757 54.4545H45.8757C45.8757 55.3647 46.1898 56.1382 46.8338 56.727L47.5085 55.9889ZM46.8757 54.4545C46.8757 53.8989 47.0239 53.4358 47.3086 53.0439L46.4996 52.4561C46.0798 53.0339 45.8757 53.7071 45.8757 54.4545H46.8757ZM47.3082 53.0445C47.6088 52.632 48.0147 52.3061 48.5409 52.0697L48.131 51.1576C47.4602 51.459 46.9116 51.8907 46.5 52.4555L47.3082 53.0445ZM48.5422 52.0691C49.0721 51.8291 49.6729 51.7045 50.353 51.7045V50.7045C49.5482 50.7045 48.8043 50.8527 48.1297 51.1582L48.5422 52.0691ZM50.353 51.7045C51.0427 51.7045 51.6361 51.828 52.1436 52.062L52.5623 51.1539C51.9032 50.85 51.1632 50.7045 50.353 50.7045V51.7045ZM52.1461 52.0631C52.661 52.2972 53.0523 52.6098 53.337 52.9957L54.1417 52.402C53.7445 51.8637 53.2116 51.449 52.5599 51.1528L52.1461 52.0631ZM53.3386 52.9978C53.6209 53.3763 53.7694 53.8018 53.7851 54.2888L54.7845 54.2566C54.7624 53.5694 54.5472 52.9456 54.1401 52.3999L53.3386 52.9978ZM54.2848 53.7727H52.9212V54.7727H54.2848V53.7727ZM58.1697 51.3636H58.6697V50.8636H58.1697V51.3636ZM58.1697 63V63.5H58.6697V63H58.1697ZM56.7607 63H56.2607V63.5H56.7607V63ZM56.7607 51.3636V50.8636H56.2607V51.3636H56.7607ZM57.6697 51.3636V63H58.6697V51.3636H57.6697ZM58.1697 62.5H56.7607V63.5H58.1697V62.5ZM57.2607 63V51.3636H56.2607V63H57.2607ZM56.7607 51.8636H58.1697V50.8636H56.7607V51.8636ZM70.1484 60.3636L69.7005 60.1415L69.7005 60.1415L70.1484 60.3636ZM68.3246 62.4318L68.5903 62.8554L68.5903 62.8554L68.3246 62.4318ZM63.0291 62.4318L62.7634 62.8554L62.7634 62.8554L63.0291 62.4318ZM61.2053 60.3636L61.6532 60.1415L61.6532 60.1415L61.2053 60.3636ZM61.2053 54L60.7573 53.7779L61.2053 54ZM68.3246 51.9318L68.5903 51.5083L68.5903 51.5083L68.3246 51.9318ZM70.1484 54L69.7005 54.2221L69.7005 54.2221L70.1484 54ZM68.9439 54.6307L68.4933 54.8474L68.4942 54.8494L68.9439 54.6307ZM67.5859 53.0568L67.3204 53.4805L67.3217 53.4813L67.5859 53.0568ZM63.7621 53.0568L63.4978 52.6323L63.4966 52.6331L63.7621 53.0568ZM62.4041 54.6307L61.9545 54.412L61.9535 54.414L62.4041 54.6307ZM62.4041 59.733L61.9535 59.9496L61.9545 59.9516L62.4041 59.733ZM63.7621 61.3068L63.4966 61.7305L63.4978 61.7313L63.7621 61.3068ZM67.5859 61.3068L67.3217 60.8823L67.3204 60.8831L67.5859 61.3068ZM68.9439 59.733L68.4942 59.5143L68.4933 59.5163L68.9439 59.733ZM70.3132 57.1818C70.3132 58.3494 70.1025 59.3307 69.7005 60.1415L70.5964 60.5857C71.0808 59.6087 71.3132 58.4687 71.3132 57.1818H70.3132ZM69.7005 60.1415C69.2943 60.9608 68.7461 61.577 68.0588 62.0083L68.5903 62.8554C69.4485 62.3169 70.1162 61.5543 70.5964 60.5857L69.7005 60.1415ZM68.0588 62.0083C67.3727 62.4388 66.5838 62.6591 65.6768 62.6591V63.6591C66.7547 63.6591 67.731 63.3945 68.5903 62.8554L68.0588 62.0083ZM65.6768 62.6591C64.7699 62.6591 63.981 62.4388 63.2949 62.0083L62.7634 62.8554C63.6227 63.3945 64.599 63.6591 65.6768 63.6591V62.6591ZM63.2949 62.0083C62.6076 61.577 62.0594 60.9608 61.6532 60.1415L60.7573 60.5857C61.2375 61.5543 61.9052 62.3169 62.7634 62.8554L63.2949 62.0083ZM61.6532 60.1415C61.2512 59.3307 61.0405 58.3494 61.0405 57.1818H60.0405C60.0405 58.4687 60.2729 59.6087 60.7573 60.5857L61.6532 60.1415ZM61.0405 57.1818C61.0405 56.0142 61.2512 55.0329 61.6532 54.2221L60.7573 53.7779C60.2729 54.7549 60.0405 55.8949 60.0405 57.1818H61.0405ZM61.6532 54.2221C62.0594 53.4028 62.6076 52.7866 63.2949 52.3553L62.7634 51.5083C61.9052 52.0467 61.2375 52.8093 60.7573 53.7779L61.6532 54.2221ZM63.2949 52.3553C63.981 51.9248 64.7699 51.7045 65.6768 51.7045V50.7045C64.599 50.7045 63.6227 50.9691 62.7634 51.5083L63.2949 52.3553ZM65.6768 51.7045C66.5838 51.7045 67.3727 51.9248 68.0588 52.3553L68.5903 51.5083C67.731 50.9691 66.7547 50.7045 65.6768 50.7045V51.7045ZM68.0588 52.3553C68.7461 52.7866 69.2943 53.4028 69.7005 54.2221L70.5964 53.7779C70.1162 52.8093 69.4485 52.0467 68.5903 51.5083L68.0588 52.3553ZM69.7005 54.2221C70.1025 55.0329 70.3132 56.0142 70.3132 57.1818H71.3132C71.3132 55.8949 71.0808 54.7549 70.5964 53.7779L69.7005 54.2221ZM69.9496 57.1818C69.9496 56.1208 69.7724 55.1909 69.3935 54.412L68.4942 54.8494C68.7897 55.4568 68.9496 56.2277 68.9496 57.1818H69.9496ZM69.3945 54.414C69.026 53.6477 68.5137 53.0454 67.8502 52.6323L67.3217 53.4813C67.8021 53.7804 68.1951 54.2273 68.4933 54.8474L69.3945 54.414ZM67.8514 52.6331C67.1996 52.2246 66.4703 52.0227 65.6768 52.0227V53.0227C66.2925 53.0227 66.836 53.1769 67.3204 53.4805L67.8514 52.6331ZM65.6768 52.0227C64.8834 52.0227 64.1528 52.2246 63.4978 52.6323L64.0263 53.4813C64.5153 53.1769 65.0612 53.0227 65.6768 53.0227V52.0227ZM63.4966 52.6331C62.8377 53.046 62.3263 53.6475 61.9545 54.412L62.8538 54.8494C63.1562 54.2275 63.5501 53.7797 64.0276 53.4805L63.4966 52.6331ZM61.9535 54.414C61.5792 55.1924 61.4041 56.1215 61.4041 57.1818H62.4041C62.4041 56.227 62.5624 55.4554 62.8547 54.8474L61.9535 54.414ZM61.4041 57.1818C61.4041 58.2421 61.5792 59.1713 61.9535 59.9496L62.8547 59.5163C62.5624 58.9083 62.4041 58.1367 62.4041 57.1818H61.4041ZM61.9545 59.9516C62.3263 60.7162 62.8377 61.3176 63.4966 61.7305L64.0276 60.8831C63.5501 60.5839 63.1562 60.1361 62.8538 59.5143L61.9545 59.9516ZM63.4978 61.7313C64.1528 62.139 64.8834 62.3409 65.6768 62.3409V61.3409C65.0612 61.3409 64.5153 61.1867 64.0263 60.8823L63.4978 61.7313ZM65.6768 62.3409C66.4703 62.3409 67.1996 62.139 67.8514 61.7305L67.3204 60.8831C66.836 61.1867 66.2925 61.3409 65.6768 61.3409V62.3409ZM67.8502 61.7313C68.5137 61.3182 69.026 60.7159 69.3945 59.9496L68.4933 59.5163C68.1951 60.1363 67.8021 60.5833 67.3217 60.8823L67.8502 61.7313ZM69.3935 59.9516C69.7724 59.1727 69.9496 58.2428 69.9496 57.1818H68.9496C68.9496 58.136 68.7897 58.9068 68.4942 59.5143L69.3935 59.9516ZM82.4098 51.3636H82.9098V50.8636H82.4098V51.3636ZM82.4098 63V63.5H82.9098V63H82.4098ZM81.0462 63L80.6354 63.2851L80.7846 63.5H81.0462V63ZM74.7053 53.8636L75.116 53.5786L74.9669 53.3636H74.7053V53.8636ZM74.5916 53.8636V53.3636H74.0916V53.8636H74.5916ZM74.5916 63V63.5H75.0916V63H74.5916ZM73.1825 63H72.6825V63.5H73.1825V63ZM73.1825 51.3636V50.8636H72.6825V51.3636H73.1825ZM74.5462 51.3636L74.9568 51.0783L74.8076 50.8636H74.5462V51.3636ZM80.9098 60.5227L80.4992 60.808L80.6484 61.0227H80.9098V60.5227ZM81.0234 60.5227V61.0227H81.5234V60.5227H81.0234ZM81.0234 51.3636V50.8636H80.5234V51.3636H81.0234ZM81.9098 51.3636V63H82.9098V51.3636H81.9098ZM82.4098 62.5H81.0462V63.5H82.4098V62.5ZM81.4569 62.7149L75.116 53.5786L74.2945 54.1487L80.6354 63.2851L81.4569 62.7149ZM74.7053 53.3636H74.5916V54.3636H74.7053V53.3636ZM74.0916 53.8636V63H75.0916V53.8636H74.0916ZM74.5916 62.5H73.1825V63.5H74.5916V62.5ZM73.6825 63V51.3636H72.6825V63H73.6825ZM73.1825 51.8636H74.5462V50.8636H73.1825V51.8636ZM74.1355 51.6489L80.4992 60.808L81.3204 60.2374L74.9568 51.0783L74.1355 51.6489ZM80.9098 61.0227H81.0234V60.0227H80.9098V61.0227ZM81.5234 60.5227V51.3636H80.5234V60.5227H81.5234ZM81.0234 51.8636H82.4098V50.8636H81.0234V51.8636Z" fill="white"/>
<path d="M33.3885 37.3636V49H31.9794V37.3636H33.3885ZM45.4411 37.3636V49H44.0774L37.7365 39.8636H37.6229V49H36.2138V37.3636H37.5774L43.9411 46.5227H44.0547V37.3636H45.4411ZM48.2607 49V37.3636H55.2379V38.6136H49.6697V42.5455H54.7152V43.7955H49.6697V49H48.2607ZM67.4695 43.1818C67.4695 44.4091 67.2479 45.4697 66.8047 46.3636C66.3615 47.2576 65.7536 47.947 64.9808 48.4318C64.2081 48.9167 63.3255 49.1591 62.3331 49.1591C61.3407 49.1591 60.4581 48.9167 59.6854 48.4318C58.9126 47.947 58.3047 47.2576 57.8615 46.3636C57.4183 45.4697 57.1967 44.4091 57.1967 43.1818C57.1967 41.9545 57.4183 40.8939 57.8615 40C58.3047 39.1061 58.9126 38.4167 59.6854 37.9318C60.4581 37.447 61.3407 37.2045 62.3331 37.2045C63.3255 37.2045 64.2081 37.447 64.9808 37.9318C65.7536 38.4167 66.3615 39.1061 66.8047 40C67.2479 40.8939 67.4695 41.9545 67.4695 43.1818ZM66.1058 43.1818C66.1058 42.1742 65.9373 41.3239 65.6001 40.6307C65.2668 39.9375 64.8142 39.4129 64.2422 39.0568C63.674 38.7008 63.0376 38.5227 62.3331 38.5227C61.6286 38.5227 60.9903 38.7008 60.4183 39.0568C59.8501 39.4129 59.3975 39.9375 59.0604 40.6307C58.727 41.3239 58.5604 42.1742 58.5604 43.1818C58.5604 44.1894 58.727 45.0398 59.0604 45.733C59.3975 46.4261 59.8501 46.9508 60.4183 47.3068C60.9903 47.6629 61.6286 47.8409 62.3331 47.8409C63.0376 47.8409 63.674 47.6629 64.2422 47.3068C64.8142 46.9508 65.2668 46.4261 65.6001 45.733C65.9373 45.0398 66.1058 44.1894 66.1058 43.1818Z" fill="white"/>
<path d="M33.3885 37.3636H33.8885V36.8636H33.3885V37.3636ZM33.3885 49V49.5H33.8885V49H33.3885ZM31.9794 49H31.4794V49.5H31.9794V49ZM31.9794 37.3636V36.8636H31.4794V37.3636H31.9794ZM32.8885 37.3636V49H33.8885V37.3636H32.8885ZM33.3885 48.5H31.9794V49.5H33.3885V48.5ZM32.4794 49V37.3636H31.4794V49H32.4794ZM31.9794 37.8636H33.3885V36.8636H31.9794V37.8636ZM45.4411 37.3636H45.9411V36.8636H45.4411V37.3636ZM45.4411 49V49.5H45.9411V49H45.4411ZM44.0774 49L43.6667 49.2851L43.8158 49.5H44.0774V49ZM37.7365 39.8636L38.1473 39.5786L37.9981 39.3636H37.7365V39.8636ZM37.6229 39.8636V39.3636H37.1229V39.8636H37.6229ZM37.6229 49V49.5H38.1229V49H37.6229ZM36.2138 49H35.7138V49.5H36.2138V49ZM36.2138 37.3636V36.8636H35.7138V37.3636H36.2138ZM37.5774 37.3636L37.988 37.0783L37.8389 36.8636H37.5774V37.3636ZM43.9411 46.5227L43.5304 46.808L43.6796 47.0227H43.9411V46.5227ZM44.0547 46.5227V47.0227H44.5547V46.5227H44.0547ZM44.0547 37.3636V36.8636H43.5547V37.3636H44.0547ZM44.9411 37.3636V49H45.9411V37.3636H44.9411ZM45.4411 48.5H44.0774V49.5H45.4411V48.5ZM44.4882 48.7149L38.1473 39.5786L37.3257 40.1487L43.6667 49.2851L44.4882 48.7149ZM37.7365 39.3636H37.6229V40.3636H37.7365V39.3636ZM37.1229 39.8636V49H38.1229V39.8636H37.1229ZM37.6229 48.5H36.2138V49.5H37.6229V48.5ZM36.7138 49V37.3636H35.7138V49H36.7138ZM36.2138 37.8636H37.5774V36.8636H36.2138V37.8636ZM37.1668 37.6489L43.5304 46.808L44.3517 46.2374L37.988 37.0783L37.1668 37.6489ZM43.9411 47.0227H44.0547V46.0227H43.9411V47.0227ZM44.5547 46.5227V37.3636H43.5547V46.5227H44.5547ZM44.0547 37.8636H45.4411V36.8636H44.0547V37.8636ZM48.2607 49H47.7607V49.5H48.2607V49ZM48.2607 37.3636V36.8636H47.7607V37.3636H48.2607ZM55.2379 37.3636H55.7379V36.8636H55.2379V37.3636ZM55.2379 38.6136V39.1136H55.7379V38.6136H55.2379ZM49.6697 38.6136V38.1136H49.1697V38.6136H49.6697ZM49.6697 42.5455H49.1697V43.0455H49.6697V42.5455ZM54.7152 42.5455H55.2152V42.0455H54.7152V42.5455ZM54.7152 43.7955V44.2955H55.2152V43.7955H54.7152ZM49.6697 43.7955V43.2955H49.1697V43.7955H49.6697ZM49.6697 49V49.5H50.1697V49H49.6697ZM48.7607 49V37.3636H47.7607V49H48.7607ZM48.2607 37.8636H55.2379V36.8636H48.2607V37.8636ZM54.7379 37.3636V38.6136H55.7379V37.3636H54.7379ZM55.2379 38.1136H49.6697V39.1136H55.2379V38.1136ZM49.1697 38.6136V42.5455H50.1697V38.6136H49.1697ZM49.6697 43.0455H54.7152V42.0455H49.6697V43.0455ZM54.2152 42.5455V43.7955H55.2152V42.5455H54.2152ZM54.7152 43.2955H49.6697V44.2955H54.7152V43.2955ZM49.1697 43.7955V49H50.1697V43.7955H49.1697ZM49.6697 48.5H48.2607V49.5H49.6697V48.5ZM66.8047 46.3636L66.3567 46.1415L66.3567 46.1415L66.8047 46.3636ZM64.9808 48.4318L65.2466 48.8554L65.2466 48.8554L64.9808 48.4318ZM59.6854 48.4318L59.4196 48.8554L59.4196 48.8554L59.6854 48.4318ZM57.8615 46.3636L58.3095 46.1415L58.3095 46.1415L57.8615 46.3636ZM57.8615 40L57.4135 39.7779L57.8615 40ZM64.9808 37.9318L65.2466 37.5083L65.2466 37.5083L64.9808 37.9318ZM66.8047 40L66.3567 40.2221L66.3567 40.2221L66.8047 40ZM65.6001 40.6307L65.1495 40.8474L65.1505 40.8494L65.6001 40.6307ZM64.2422 39.0568L63.9767 39.4805L63.9779 39.4813L64.2422 39.0568ZM60.4183 39.0568L60.1541 38.6323L60.1528 38.6331L60.4183 39.0568ZM59.0604 40.6307L58.6107 40.412L58.6098 40.414L59.0604 40.6307ZM59.0604 45.733L58.6098 45.9496L58.6107 45.9516L59.0604 45.733ZM60.4183 47.3068L60.1528 47.7305L60.1541 47.7313L60.4183 47.3068ZM64.2422 47.3068L63.9779 46.8823L63.9767 46.8831L64.2422 47.3068ZM65.6001 45.733L65.1505 45.5143L65.1495 45.5163L65.6001 45.733ZM66.9695 43.1818C66.9695 44.3494 66.7587 45.3307 66.3567 46.1415L67.2527 46.5857C67.737 45.6087 67.9695 44.4687 67.9695 43.1818H66.9695ZM66.3567 46.1415C65.9505 46.9608 65.4024 47.577 64.7151 48.0083L65.2466 48.8554C66.1047 48.3169 66.7725 47.5543 67.2527 46.5857L66.3567 46.1415ZM64.7151 48.0083C64.029 48.4388 63.2401 48.6591 62.3331 48.6591V49.6591C63.411 49.6591 64.3872 49.3945 65.2466 48.8554L64.7151 48.0083ZM62.3331 48.6591C61.4261 48.6591 60.6372 48.4388 59.9511 48.0083L59.4196 48.8554C60.279 49.3945 61.2552 49.6591 62.3331 49.6591V48.6591ZM59.9511 48.0083C59.2638 47.577 58.7156 46.9608 58.3095 46.1415L57.4135 46.5857C57.8937 47.5543 58.5615 48.3169 59.4196 48.8554L59.9511 48.0083ZM58.3095 46.1415C57.9075 45.3307 57.6967 44.3494 57.6967 43.1818H56.6967C56.6967 44.4687 56.9292 45.6087 57.4135 46.5857L58.3095 46.1415ZM57.6967 43.1818C57.6967 42.0142 57.9075 41.0329 58.3095 40.2221L57.4135 39.7779C56.9292 40.7549 56.6967 41.8949 56.6967 43.1818H57.6967ZM58.3095 40.2221C58.7156 39.4028 59.2638 38.7866 59.9511 38.3553L59.4196 37.5083C58.5615 38.0467 57.8937 38.8093 57.4135 39.7779L58.3095 40.2221ZM59.9511 38.3553C60.6372 37.9248 61.4261 37.7045 62.3331 37.7045V36.7045C61.2552 36.7045 60.279 36.9691 59.4196 37.5083L59.9511 38.3553ZM62.3331 37.7045C63.2401 37.7045 64.029 37.9248 64.7151 38.3553L65.2466 37.5083C64.3872 36.9691 63.411 36.7045 62.3331 36.7045V37.7045ZM64.7151 38.3553C65.4024 38.7866 65.9505 39.4028 66.3567 40.2221L67.2527 39.7779C66.7725 38.8093 66.1047 38.0467 65.2466 37.5083L64.7151 38.3553ZM66.3567 40.2221C66.7587 41.0329 66.9695 42.0142 66.9695 43.1818H67.9695C67.9695 41.8949 67.737 40.7549 67.2527 39.7779L66.3567 40.2221ZM66.6058 43.1818C66.6058 42.1208 66.4286 41.1909 66.0498 40.412L65.1505 40.8494C65.4459 41.4568 65.6058 42.2277 65.6058 43.1818H66.6058ZM66.0508 40.414C65.6823 39.6477 65.1699 39.0454 64.5064 38.6323L63.9779 39.4813C64.4584 39.7804 64.8514 40.2273 65.1495 40.8474L66.0508 40.414ZM64.5077 38.6331C63.8558 38.2246 63.1266 38.0227 62.3331 38.0227V39.0227C62.9487 39.0227 63.4922 39.1769 63.9767 39.4805L64.5077 38.6331ZM62.3331 38.0227C61.5396 38.0227 60.8091 38.2246 60.1541 38.6323L60.6826 39.4813C61.1715 39.1769 61.7175 39.0227 62.3331 39.0227V38.0227ZM60.1528 38.6331C59.494 39.046 58.9826 39.6475 58.6107 40.412L59.51 40.8494C59.8124 40.2275 60.2063 39.7797 60.6838 39.4805L60.1528 38.6331ZM58.6098 40.414C58.2355 41.1924 58.0604 42.1215 58.0604 43.1818H59.0604C59.0604 42.227 59.2186 41.4554 59.511 40.8474L58.6098 40.414ZM58.0604 43.1818C58.0604 44.2421 58.2355 45.1713 58.6098 45.9496L59.511 45.5163C59.2186 44.9083 59.0604 44.1367 59.0604 43.1818H58.0604ZM58.6107 45.9516C58.9826 46.7162 59.494 47.3176 60.1528 47.7305L60.6838 46.8831C60.2063 46.5839 59.8124 46.1361 59.51 45.5143L58.6107 45.9516ZM60.1541 47.7313C60.8091 48.139 61.5396 48.3409 62.3331 48.3409V47.3409C61.7175 47.3409 61.1715 47.1867 60.6826 46.8823L60.1541 47.7313ZM62.3331 48.3409C63.1266 48.3409 63.8558 48.139 64.5077 47.7305L63.9767 46.8831C63.4922 47.1867 62.9487 47.3409 62.3331 47.3409V48.3409ZM64.5064 47.7313C65.1699 47.3182 65.6823 46.7159 66.0508 45.9496L65.1495 45.5163C64.8514 46.1363 64.4584 46.5833 63.9779 46.8823L64.5064 47.7313ZM66.0498 45.9516C66.4286 45.1727 66.6058 44.2428 66.6058 43.1818H65.6058C65.6058 44.136 65.4459 44.9068 65.1505 45.5143L66.0498 45.9516Z" fill="white"/>
<line x1="15" y1="66.5" x2="84" y2="66.5" stroke="#F4B400"/>
</svg>
