<svg width="50" height="50" viewBox="0 0 50 50" fill="none" xmlns="http://www.w3.org/2000/svg">
<g clip-path="url(#clip0_113_6)">
<path d="M25 50C38.8071 50 50 38.8071 50 25C50 11.1929 38.8071 0 25 0C11.1929 0 0 11.1929 0 25C0 38.8071 11.1929 50 25 50Z" fill="#F4B400"/>
<path d="M37 12H12C9.23858 12 7 14.2386 7 17V32C7 34.7614 9.23858 37 12 37H37C39.7614 37 42 34.7614 42 32V17C42 14.2386 39.7614 12 37 12Z" fill="white"/>
<path d="M23.0893 30.5964C23.8696 31.3727 25.1304 31.3727 25.9107 30.5964L41.4167 15.1677C42.6815 13.9093 41.7903 11.75 40.006 11.75H8.99399C7.20977 11.75 6.31854 13.9093 7.58333 15.1677L23.0893 30.5964Z" fill="#F4B400"/>
<path d="M23.1163 27.6742C23.8899 28.4154 25.1101 28.4154 25.8837 27.6742L41.2571 12.9441C42.5586 11.6971 41.6759 9.5 39.8734 9.5H9.12658C7.32409 9.5 6.44142 11.6971 7.74291 12.9441L23.1163 27.6742Z" fill="white"/>
<path d="M40 7H9C7.89543 7 7 7.89543 7 9V13C7 14.1046 7.89543 15 9 15H40C41.1046 15 42 14.1046 42 13V9C42 7.89543 41.1046 7 40 7Z" fill="#F4B400"/>
</g>
<defs>
<clipPath id="clip0_113_6">
<rect width="50" height="50" fill="white"/>
</clipPath>
</defs>
</svg>
