<svg width="50" height="50" viewBox="0 0 50 50" fill="none" xmlns="http://www.w3.org/2000/svg">
<circle cx="25" cy="25" r="25" fill="#DB4437"/>
<rect x="7" y="12" width="35" height="25" rx="5" fill="white"/>
<path d="M23.0893 30.5964C23.8696 31.3727 25.1304 31.3727 25.9107 30.5964L41.4167 15.1677C42.6815 13.9093 41.7903 11.75 40.006 11.75H8.99396C7.20974 11.75 6.31851 13.9093 7.5833 15.1677L23.0893 30.5964Z" fill="#DB4437"/>
<path d="M23.1163 27.6742C23.8899 28.4154 25.1101 28.4154 25.8837 27.6742L41.2571 12.9441C42.5586 11.6971 41.6759 9.5 39.8734 9.5H9.12659C7.3241 9.5 6.44143 11.6971 7.74292 12.9441L23.1163 27.6742Z" fill="white"/>
<rect x="7" y="7" width="35" height="8" rx="2" fill="#DB4437"/>
</svg>
