<svg width="1024" height="164" viewBox="0 0 1024 164" fill="none" xmlns="http://www.w3.org/2000/svg">
<path d="M0 34H1024V440H0V34Z" fill="#0F9D58"/>
<path d="M0 13.392L18.4334 10.258C36.8666 7.124 73.7334 0.855994 110.6 6.08586C147.466 11.2374 184.334 28.0826 221.2 28.0238C258.066 28.0826 294.934 11.2374 331.8 5.02813C368.666 -1.29863 405.534 3.01062 442.4 11.2961C479.266 19.66 516.134 32.196 553 31.1578C589.866 30.0414 626.734 15.5466 663.6 15.4878C700.466 15.5466 737.334 30.0414 774.2 32.196C811.066 34.3506 847.934 23.7734 884.8 19.66C921.664 15.5466 958.536 17.5054 995.4 22.794C1032.26 28.0826 1069.14 36.3094 1087.56 40.5599L1106 44.732V51H1087.56C1069.14 51 1032.26 51 995.4 51C958.536 51 921.664 51 884.8 51C847.934 51 811.066 51 774.2 51C737.334 51 700.466 51 663.6 51C626.734 51 589.866 51 553 51C516.134 51 479.266 51 442.4 51C405.534 51 368.666 51 331.8 51C294.934 51 258.066 51 221.2 51C184.334 51 147.466 51 110.6 51C73.7334 51 36.8666 51 18.4334 51H0V13.392Z" fill="#0F9D58"/>
</svg>
